<svg id="Layer_1" data-name="Layer 1" xmlns="http://www.w3.org/2000/svg" viewBox="0 0 276.54 155.79"><defs><style>.cls-2{fill:#fed502}.cls-3{fill:#fecb2b}.cls-5{fill:#4c4330}.cls-6{fill:#e2b72d}.cls-7{fill:#453e2f}.cls-8{fill:#837754}.cls-9{fill:#403d3e}.cls-10{fill:#bab9b9}.cls-11{fill:#201e1f}.cls-12{fill:#262424}.cls-13{fill:#a1a0a1}</style></defs><path d="M960.07 568.61c-29.08.33-53.36-24.22-53.3-53.4.07-29 24.28-53.3 53.58-53.2 29 .1 53.3 24.3 53.16 53.61-.13 28.87-24.24 53.38-53.44 52.99zm-50.83-53.31a50.89 50.89 0 1 0 51-50.8 50.84 50.84 0 0 0-51 50.8z" transform="translate(-821.64 -462.01)" fill="#fed03c"/><path class="cls-2" d="M844.22 600.24c6.49 3 5.91 11 2.23 14.07a12.09 12.09 0 0 1-7.73 2.61c-5.41.14-10.83.05-16.25.1-1.08 0-.79-.7-.79-1.24v-24.82-5.55c0-.77.25-.95 1-.94H838a12.85 12.85 0 0 1 4.88 1 8.69 8.69 0 0 1 5 10.31c-.5 1.92-1.37 2.97-3.66 4.46zm-10.81 11v-.06h4.76a6.57 6.57 0 0 0 2.9-.77 3.3 3.3 0 0 0 .85-5.58 6.72 6.72 0 0 0-4.67-1.85c-2.87-.06-5.73 0-8.59 0-.76 0-1 .24-1 1v6.33c0 .87.34 1 1.09 1 1.58-.07 3.12-.04 4.66-.04zm-.23-21.22h-4.35c-.82 0-1.17.16-1.14 1.07.07 1.84.06 3.69 0 5.53 0 .81.23 1.06 1 1h8.44a7.41 7.41 0 0 0 2.83-.53 3.16 3.16 0 0 0 1.81-4.13 4.48 4.48 0 0 0-4.42-2.92c-1.35-.04-2.76.01-4.17.01zM881.72 595.91c-.16 3 .28 6.71-.24 10.39-1 6.91-5.84 11.27-12.83 11.48-4.7.15-8.91-1-12.08-4.76a13.61 13.61 0 0 1-3.13-8.91c-.08-6.21 0-12.42-.05-18.63 0-.84.25-1.06 1.05-1a32.63 32.63 0 0 0 3.83 0c1-.06 1.26.2 1.25 1.21v16.92a20.84 20.84 0 0 0 .18 2.62c.88 6.56 6.6 7.76 10.6 6.69 3.26-.88 5.28-3.9 5.32-8.09q.09-9 0-18c0-1.07.22-1.48 1.36-1.38a28.79 28.79 0 0 0 3.83 0c.78 0 1 .26.94 1-.05 3.25-.03 6.55-.03 10.46zM920.31 611.18c5.2 0 10.17.06 15.14 0 1.37 0 1.87.33 1.7 1.71s.56 3.16-.3 3.93-2.51.21-3.83.21h-20c-1.06 0-1.43-.21-1.43-1.35a6.25 6.25 0 0 1 1.22-3.89c4.9-6.78 9.7-13.62 14.54-20.45.2-.28.38-.57.59-.9a1.71 1.71 0 0 0-1.17-.18h-13.35c-1 0-1.48-.12-1.35-1.27.16-1.47-.62-3.45.31-4.29s2.75-.23 4.2-.24h19.3c1 0 1.25.29 1.25 1.26a4.74 4.74 0 0 1-.92 2.92q-7.56 10.59-15 21.23c-.21.35-.49.72-.9 1.31zM900.64 590.26h-1.81c-4.14 0-8.29-.06-12.43 0-1.33 0-1.67-.38-1.54-1.62a14.79 14.79 0 0 0 0-2.9c-.09-1 .22-1.32 1.29-1.32h22.6c1-.16 1.15.28 1.17 1.17a4.81 4.81 0 0 1-.95 3.05q-7.56 10.57-15 21.23c-.25.35-.48.71-.84 1.25H908.85c.89 0 1.13.28 1.09 1.12-.06 1.27 0 2.55 0 3.83 0 .67-.19.91-.9.91h-23.66c-.67 0-.9-.18-.93-.89a6.53 6.53 0 0 1 1.22-4.41c4.91-6.72 9.67-13.54 14.48-20.34a1.65 1.65 0 0 0 .49-1.08z" transform="translate(-821.64 -462.01)"/><path class="cls-3" d="M960.08 564a48.61 48.61 0 1 1 48.7-48.54 48.59 48.59 0 0 1-48.7 48.54zm-17-67.25c-.37.06-.62.17-.21.54l.07.8-.19.24c-.54.2-.54.48-.13.82l-.08 1c-.2 0-.4.09-.43.34s.16.42.43.46l.08 1.31-.66.33a19.19 19.19 0 0 0-3.89-6.64c0-.4-.19-.56-.58-.51l-1-.58a.83.83 0 0 0-1.33-.48c-2.12 0-3.18.94-3.55 3.11-.55.27-.55.55 0 .84l.14 1.29c-.41.38-.12.48.22.54a16.49 16.49 0 0 0 3.22 4.46c0 .4.2.56.59.52 1.54.95 2.92 2.19 4.68 2.79.4.45.69 1 1.34 1.21l.33.4c-.09.41 0 .65.5.64a2 2 0 0 1 .8 1c-.06.42.1.63.54.61l5.5 5.3c0 .59.33.85.93.73h.08v.05c0 .43.24.59.65.5a9.64 9.64 0 0 1 2 1.17c.09.19.14.49.29.55 1.7.7 3.4 1.37 5.13 2a.75.75 0 0 0 .94-.25l1 .09a4.3 4.3 0 0 0 4 0l1-.1c1.16.58 2.06 0 2.93-.67l.58-.16a3.84 3.84 0 0 0 3.17-1.33l.36-.09c.41.14.67 0 .71-.42a.08.08 0 0 1 .12-.06.54.54 0 0 0 .7-.29l1.28.16c.07.38.3.48.65.39a4.57 4.57 0 0 1 1.75.33c.18.75.59.64 1 .27l1.84.12a1.44 1.44 0 0 0 2.15 0l1.56-.15c.39.44.47.13.54-.22a4.59 4.59 0 0 0 1-.32c1.47-.91 3-1.84 2.9-3.87-.06-1.63-1.22-2.41-2.56-3-.14-.56-.41-.65-.81-.21h-3.69q-.59-.66-.81.18l-2.11.56c-.4-.37-.47-.07-.53.26-.9.19-1.65.81-2.59.87v-.84a2 2 0 0 1 .75-.81c.44 0 .59-.23.51-.65 0-.07 0-.11.08-.13.48 0 .68-.34.87-.7 1.4-2.73 2.43-5.42 1.85-8.7-1.1-6.19-7.44-8.36-12.52-6.64a17.05 17.05 0 0 0-5 2.78 10.3 10.3 0 0 0-1.15-5.07c-1.84-4-6.84-7.49-11.69-4.92-1.25.67-2.81 1.08-3.26 2.74l-1.81 2.57a1.32 1.32 0 0 0-.86 1.82v.79zm-4.48 20.55v1.64a17.73 17.73 0 0 0 .77 4.4c.15.65 0 1.32.6 1.91 5.29 5 11.15 8.87 18.63 9.58 1.53.15 3.11.39 4.51-.44a26.6 26.6 0 0 0 7.78-6.42c.25-.32.78-.53.43-1.09s-.79-.35-1.25-.1c-3.75 2-7.78 2-11.72 1.14-7.53-1.67-13.36-6.07-18-12.11-.33-.42-.5-1.19-1.25-1s-.47 1-.44 1.58c-.04.22-.07.44-.09.86zm12.84 18.14c.06-.48-.09-.73-.41-.86a13.68 13.68 0 0 0-1.73-.61c-.54-.12-.84 0-1.13.69-.84 2-1.38 4.06-2.07 6.09-.17.49-.49 1 .25 1.33s.94-.14 1.25-.65c1.17-1.86 2.38-3.69 3.57-5.54.09-.23.19-.42.24-.5z" transform="translate(-821.64 -462.01)"/><path d="M976.37 512.56a2 2 0 0 0-.75.81.94.94 0 0 0-.66.64c-.92.48-1.68 1.06-1.49 2.27-.14 1.57-1.31 2.08-2.58 2.5-.41.14-.82.31-1.23.47a17.78 17.78 0 0 1-13.09.34 23.25 23.25 0 0 1-7.9-5 53.44 53.44 0 0 1-6.47-7.06 3.43 3.43 0 0 0 .7-4.24 2.85 2.85 0 0 1-.08-1 4.39 4.39 0 0 0 0-3.17l-.11-.81.19-.24a1.19 1.19 0 0 0 .44-1.59v-.79c.6-.45.59-1.2.86-1.82l1.81-2.57c.34-.26.69-.52 1-.8 4.32-3.56 9.7-2.76 12.76 1.91a12.67 12.67 0 0 1 1.88 5.83c0 .34 0 .77.36.92s.53-.24.74-.44a10 10 0 0 1 2.42-1.59c3-1.54 6.19-2.09 9.41-.64 3.78 1.7 5.57 6.18 4.41 10.52a29.33 29.33 0 0 1-2.1 4.8c-.07 0-.1.06-.08.13a.65.65 0 0 0-.44.62zm-18.57-2.5c.1-.34 0-.6-.36-.64a.48.48 0 0 0-.6.49 5.73 5.73 0 0 1-1.69 1.06c-.25.55-2.44.36-.71 1.62a16.67 16.67 0 0 0 4.16 2c.28.1.62 0 .48-.35-.24-.66 0-1.51-.8-2a3.46 3.46 0 0 1-.48-2.18zm2.44-3.58c-.38.08-.61.21-.18.56l-.07.5c-.54.12-1 .28-1 1-.18 2 2.14 5.22 4 5.89a8.28 8.28 0 0 0 5.68-.17 10.47 10.47 0 0 0 6.76-9.12c.14-3.16-1.25-5.12-3.9-6.53-1-.54-1.91.17-2.82 0-2.34-.56-4 .64-5.69 2-1.05.86-1.93 1.84-1.63 3.37zm-8.34 3.24a8.31 8.31 0 0 0 1.92-.2 8.61 8.61 0 0 0 5.67-9.11 1.18 1.18 0 0 1 0-.53c.61-1.5 0-2.8-.62-4.12a6.51 6.51 0 0 0-11.1-1.63c-2.9 3.47-3.72 7.46-1.55 11.67a6.72 6.72 0 0 0 5.68 3.92z" transform="translate(-821.64 -462.01)" fill="#23201e"/><path class="cls-5" d="M938.57 517.25v-.86c0-.58-.39-1.31.44-1.58s.92.53 1.25 1c4.66 6 10.49 10.44 18 12.11 3.94.87 8 .83 11.72-1.14.46-.25.88-.47 1.25.1s-.18.77-.43 1.09a26.6 26.6 0 0 1-7.78 6.42c-1.4.83-3 .59-4.51.44-7.48-.71-13.34-4.58-18.63-9.58-.62-.59-.45-1.26-.6-1.91a17.73 17.73 0 0 1-.77-4.4c.07-.66.06-1.27.06-1.69zm24.63 16.22a16.75 16.75 0 0 0 5-3.35c.38-.33 1.19-.7.85-1.27s-.83.21-1.28.29l-.26.06a22.19 22.19 0 0 1-13.73-1.2 31.77 31.77 0 0 1-10.78-7.17 24.34 24.34 0 0 1-3.82-4.45 15.23 15.23 0 0 0 1 7.56 1.34 1.34 0 0 0 .58 1.25 41.66 41.66 0 0 0 8.8 6.27 26.06 26.06 0 0 0 6.73 2.27c2.14.51 4.29.21 6.43.17.17-.01.28-.28.48-.43z" transform="translate(-821.64 -462.01)"/><path class="cls-6" d="M942.82 502.26a2.85 2.85 0 0 0 .08 1 3.43 3.43 0 0 1-.7 4.24c-.87.34-.62 1-.43 1.61-.65-.18-.94-.76-1.34-1.21 1-.59.38-.94-.21-1.25a19 19 0 0 1-5.54-4.21 6.54 6.54 0 0 1-1.94-5 1.76 1.76 0 0 1 2.08-1.83c1.7.06 2.63 1.28 3.54 2.47a20.86 20.86 0 0 1 3.16 6.91c.1.36.23.73.68.63s.4-.54.32-.88c-.17-.72-.39-1.44-.59-2.16l.66-.33z" transform="translate(-821.64 -462.01)"/><path class="cls-7" d="M941.77 509.13c-.19-.63-.44-1.27.43-1.61a53.44 53.44 0 0 0 6.47 7.06 23.25 23.25 0 0 0 7.9 5 17.78 17.78 0 0 0 13.09-.34c.41-.16.82-.33 1.23-.47 1.27-.42 2.44-.93 2.58-2.5.38.41.16.94.28 1.41v.91l-.4.51a.08.08 0 0 0-.12.06.78.78 0 0 0-.71.42l-.36.09A12.46 12.46 0 0 0 969 521l-.51.13a9.6 9.6 0 0 0-2.93.67l-1 .1h-4l-1-.09a56.76 56.76 0 0 1-6.36-2.31 9.64 9.64 0 0 0-2-1.17.71.71 0 0 0-.65-.5v-.05h-.08c-.21-.37-.45-.71-.93-.73l-5.5-5.3a.72.72 0 0 0-.54-.61 2 2 0 0 0-.8-1 .7.7 0 0 0-.5-.64z" transform="translate(-821.64 -462.01)"/><path class="cls-8" d="M973.76 518.6v-.91l.82-.17.52.08a.5.5 0 0 0 .54.22l1.3.35a2.24 2.24 0 0 0 1.35.43l.51.08a1.13 1.13 0 0 0 1.08.15 12.9 12.9 0 0 0 3.4 0 .46.46 0 0 0 .56-.13c1.37-.36 2.78-.67 3.45-2.16a1.25 1.25 0 0 0 0-1.6l-.32-.52a.82.82 0 0 0-.78-.54 1.83 1.83 0 0 0-1.06-.27 3.29 3.29 0 0 0-2.66 0 5.35 5.35 0 0 0-2.1.33.48.48 0 0 0-.54.22 18 18 0 0 0-3.7 1.35.59.59 0 0 0-.62.46c-.35 0-.71.12-1-.2-.14-.85.72-.88 1.08-1.32a.25.25 0 0 0 0-.25c.94-.06 1.69-.68 2.59-.87a.47.47 0 0 0 .53-.26l2.11-.55a.81.81 0 0 0 .81-.19h3.69a.83.83 0 0 0 .81.21c1.34.58 2.5 1.36 2.56 3 .07 2-1.43 3-2.9 3.87a4.59 4.59 0 0 1-1 .32.52.52 0 0 0-.54.22l-1.56.15a5.76 5.76 0 0 0-2.15 0l-1.84-.12c-.28-.35-.68-.25-1-.27a4.57 4.57 0 0 0-1.75-.33.53.53 0 0 0-.65-.39l-1.28-.16zM941.93 502.58c.2.72.42 1.44.59 2.16.08.34.14.77-.32.88s-.58-.27-.68-.63a20.86 20.86 0 0 0-3.16-6.91c-.91-1.19-1.84-2.41-3.54-2.47a1.76 1.76 0 0 0-2.08 1.83 6.54 6.54 0 0 0 1.94 5 19 19 0 0 0 5.54 4.21c.59.31 1.2.66.21 1.25-1.76-.6-3.14-1.84-4.68-2.79a.65.65 0 0 0-.59-.52 16.49 16.49 0 0 1-3.22-4.46.51.51 0 0 0-.22-.54c-.05-.43-.1-.86-.14-1.29a1.07 1.07 0 0 0 0-.84c.37-2.17 1.43-3.1 3.55-3.11l1.33.48 1 .58a.63.63 0 0 0 .58.51 19.19 19.19 0 0 1 3.89 6.66z" transform="translate(-821.64 -462.01)"/><path class="cls-6" d="M977 511.78a29.33 29.33 0 0 0 2.1-4.8c1.16-4.34-.63-8.82-4.41-10.52-3.22-1.45-6.37-.9-9.41.64a10 10 0 0 0-2.42 1.59c-.21.2-.39.57-.74.44s-.32-.58-.36-.92a12.67 12.67 0 0 0-1.88-5.83c-3.06-4.67-8.44-5.47-12.76-1.91-.34.28-.69.54-1 .8.45-1.66 2-2.07 3.26-2.74 4.85-2.57 9.85.93 11.69 4.92a10.3 10.3 0 0 1 1.15 5.07 17.05 17.05 0 0 1 5-2.78c5.08-1.72 11.42.45 12.52 6.64.58 3.28-.45 6-1.85 8.7-.25.36-.45.7-.89.7z" transform="translate(-821.64 -462.01)"/><path class="cls-7" d="M951.41 535.39c0 .08-.15.27-.27.45-1.19 1.85-2.4 3.68-3.57 5.54-.31.51-.63.89-1.25.65s-.42-.84-.25-1.33c.69-2 1.23-4.1 2.07-6.09.29-.68.59-.81 1.13-.69a13.68 13.68 0 0 1 1.73.61c.32.13.47.38.41.86z" transform="translate(-821.64 -462.01)"/><path class="cls-6" d="M953.13 519.49a56.76 56.76 0 0 0 6.36 2.31.75.75 0 0 1-.94.25c-1.73-.64-3.43-1.31-5.13-2-.15-.05-.2-.37-.29-.56zM960.53 521.89h4a4.3 4.3 0 0 1-4 0z" transform="translate(-821.64 -462.01)"/><path class="cls-7" d="M942.82 502.26h-.23c0-.44-.05-.87-.08-1.31a1 1 0 0 0 0-.8c0-.35.06-.69.08-1h.24a4.39 4.39 0 0 1-.01 3.11z" transform="translate(-821.64 -462.01)"/><path class="cls-6" d="M969 521a12.46 12.46 0 0 1 3.17-1.33A3.84 3.84 0 0 1 969 521zM965.56 521.81a9.6 9.6 0 0 1 2.93-.67c-.87.69-1.77 1.25-2.93.67zM980.63 520.09a5.76 5.76 0 0 1 2.15 0 1.44 1.44 0 0 1-2.15 0zM944.24 493.84c-.27.62-.26 1.37-.86 1.82a1.32 1.32 0 0 1 .86-1.82z" transform="translate(-821.64 -462.01)"/><path class="cls-7" d="M943.35 496.45a1.19 1.19 0 0 1-.44 1.59c0-.26 0-.53-.07-.8a.43.43 0 0 0 .21-.54z" transform="translate(-821.64 -462.01)"/><path class="cls-6" d="M936.47 494.85l-1.33-.48a.83.83 0 0 1 1.33.48zM977.74 519.7c.37 0 .77-.08 1 .27-.41.37-.82.48-1-.27zM949.44 517.05c.48 0 .72.36.93.73-.6.12-.89-.14-.93-.73zM986.21 512.54a.83.83 0 0 1-.81-.21c.4-.44.67-.33.81.21zM931.59 497.48a1.07 1.07 0 0 1 0 .84c-.59-.32-.59-.57 0-.84zM981.71 512.34a.81.81 0 0 1-.81.19c.15-.53.42-.63.81-.19zM942.51 500.14a1 1 0 0 1 0 .8c-.27 0-.47-.14-.43-.46s.23-.31.43-.34zM942.83 499.09h-.24c-.41-.34-.41-.62.13-.82.03.28.07.55.11.82zM975 514a.94.94 0 0 1 .66-.64v.84h-.54zM950.5 517.82a.71.71 0 0 1 .65.5c-.41.09-.64-.07-.65-.5zM973.76 518.6l.3.22a.54.54 0 0 1-.7.29zM975.34 519a.53.53 0 0 1 .65.39c-.35.07-.58-.03-.65-.39zM972.53 519.59a.78.78 0 0 1 .71-.42c-.04.46-.3.56-.71.42zM978.79 513.08a.47.47 0 0 1-.53.26c.06-.34.13-.63.53-.26zM942.1 509.53a.7.7 0 0 1 .5.64c-.45.01-.6-.23-.5-.64zM984.34 519.94a.52.52 0 0 1 .54-.22c-.07.35-.15.66-.54.22zM976.37 512.56a.65.65 0 0 1 .51-.65c.12.42-.07.65-.51.65zM943.4 511.14a.72.72 0 0 1 .54.61c-.44.02-.6-.19-.54-.61zM935.16 504.61a.65.65 0 0 1 .59.52c-.39.04-.59-.13-.59-.52zM931.72 499.61a.51.51 0 0 1 .22.54c-.34-.06-.63-.15-.22-.54zM943.05 496.7a.43.43 0 0 1-.21.54c-.41-.37-.16-.48.21-.54zM938 495.94a.63.63 0 0 1-.58-.51c.43-.05.63.11.58.51z" transform="translate(-821.64 -462.01)"/><path class="cls-9" d="M951.9 509.72a6.72 6.72 0 0 1-5.68-3.92c-2.17-4.21-1.35-8.2 1.55-11.67a6.51 6.51 0 0 1 11.1 1.63c.62 1.32 1.23 2.62.62 4.12a1.18 1.18 0 0 0 0 .53 8.61 8.61 0 0 1-5.67 9.11 8.31 8.31 0 0 1-1.92.2zm5.79-6.93c.23.18.55.93.69.08a5.28 5.28 0 0 0 .21-2.79l-.12-1.26c.22-.2.15-.37-.07-.52l-.08-.47a.46.46 0 0 0-.28-.69 6.28 6.28 0 0 0-2.19-3.16.51.51 0 0 0-.62-.42l-1.21-.43a1.63 1.63 0 0 0-2.29 0l-1.21.42a.49.49 0 0 0-.62.4 9.31 9.31 0 0 0-3 10.2c1 2.69 3.21 4.38 5.6 4.2.34 0 .82.05.9-.35s-.44-.39-.73-.5-.61-.12-.81-.39c2.4.08 4.21-.77 5.06-3.17a2.05 2.05 0 0 1 .77-1.15zM961.35 503.88c-.3-1.53.58-2.51 1.63-3.37 1.65-1.33 3.35-2.53 5.69-2 .91.22 1.81-.49 2.82 0 2.65 1.41 4 3.37 3.9 6.53a10.47 10.47 0 0 1-6.76 9.12 8.28 8.28 0 0 1-5.68.17c-1.86-.67-4.18-3.91-4-5.89.07-.7.5-.86 1-1 0 .13.07.26.08.38.17 3 1.54 4.9 4.07 5.6 2.3.63 5.87-.65 7.05-2.44a.51.51 0 0 0 .53-.52l.24-.27a.93.93 0 0 0 .72-.88.21.21 0 0 0 .1-.16 3.57 3.57 0 0 0 1.16-2c.87-2.29.35-4.9-1.13-6.12-.11-.48-.51-.67-.88-.9-2.39-1.53-6.35-.82-8.28 1.48l-1.3 1.33c-.51.12-.49.8-.96.94z" transform="translate(-821.64 -462.01)"/><path class="cls-10" d="M961.35 503.88c.47-.14.45-.82 1-.89l.15 1.25c-.28.49-.6.95-.84 1.46-.67 1.42-1.07 2.89-.12 4.36a3.22 3.22 0 0 0 3.17 1.42 9.25 9.25 0 0 0 3.29-1.28c-1.51 2.07-3.55 2.12-5.83 1.47a2.4 2.4 0 0 0 1.49 1.17 7.41 7.41 0 0 0 6.57-1.27c.32-.21.53-.62 1-.49-1.18 1.79-4.75 3.07-7.05 2.44-2.53-.7-3.9-2.62-4.07-5.6 0-.12-.06-.25-.08-.38l.07-.5h.22v-.54zm.38 7.19l-.05.08h.08z" transform="translate(-821.64 -462.01)"/><path class="cls-5" d="M958.28 512.3c.76.44.56 1.29.8 2 .14.37-.2.45-.48.35a16.67 16.67 0 0 1-4.16-2c-1.73-1.26.46-1.07.71-1.62.35 1.34 1.64 1.5 2.62 2 .48.18.37-.47.51-.73z" transform="translate(-821.64 -462.01)"/><path class="cls-6" d="M958.28 512.3c-.14.26 0 .91-.51.67-1-.5-2.27-.66-2.62-2a5.73 5.73 0 0 0 1.69-1.06l1 .15a3.46 3.46 0 0 0 .44 2.24zM975.63 514.43c-.36.44-1.22.47-1.08 1.32-1.18.61.16 1.18 0 1.77l-.82.17c-.12-.47.1-1-.28-1.41-.19-1.21.57-1.79 1.49-2.27l.15.16c.13.22.33.24.54.26z" transform="translate(-821.64 -462.01)"/><path class="cls-5" d="M957.8 510.06l-1-.15a.48.48 0 0 1 .6-.49c.44.04.5.3.4.64z" transform="translate(-821.64 -462.01)"/><path class="cls-9" d="M960.28 507h-.22c-.43-.35-.2-.48.18-.56v.54z" transform="translate(-821.64 -462.01)"/><path class="cls-11" d="M940.19 523.94a15.23 15.23 0 0 1-1-7.56 24.34 24.34 0 0 0 3.82 4.45 31.77 31.77 0 0 0 10.77 7.17 22.19 22.19 0 0 0 13.73 1.22l.26-.06c.45-.08 1-.75 1.28-.29s-.47.94-.85 1.27a16.75 16.75 0 0 1-5 3.35 11.84 11.84 0 0 0-4.7-.24 13 13 0 0 1-4.6-.79 32.85 32.85 0 0 1-9.53-5.18c-1.43-1.09-2.37-2.77-4.18-3.34z" transform="translate(-821.64 -462.01)"/><path class="cls-12" d="M940.19 523.94c1.81.57 2.75 2.25 4.18 3.32a32.85 32.85 0 0 0 9.53 5.18 13 13 0 0 0 4.6.79 11.84 11.84 0 0 1 4.7.24c-.16.15-.31.42-.47.43-2.14 0-4.29.34-6.43-.17a26.06 26.06 0 0 1-6.73-2.27 41.66 41.66 0 0 1-8.8-6.27 1.34 1.34 0 0 1-.58-1.25z" transform="translate(-821.64 -462.01)"/><path class="cls-3" d="M974.57 517.52c.14-.59-1.2-1.16 0-1.77.27.32.63.23 1 .2a.46.46 0 0 0 .62-.46 18 18 0 0 1 3.7-1.35c.38.41.47.13.54-.22a5.35 5.35 0 0 1 2.1-.33 2.79 2.79 0 0 0 2.66 0 1.83 1.83 0 0 1 1.06.27c0 .53.39.55.78.54l.32.52a1.13 1.13 0 0 0 0 1.6c-.67 1.49-2.08 1.8-3.45 2.16-.29-.42-.45-.24-.56.13a12.9 12.9 0 0 1-3.4 0c-.28-.62-.66-.54-1.08-.15l-.51-.08c-.32-.56-.73-.82-1.35-.43l-1.3-.35c-.07-.34-.17-.62-.54-.22z" transform="translate(-821.64 -462.01)"/><path class="cls-6" d="M985.15 513.61a2.79 2.79 0 0 1-2.66 0 3.29 3.29 0 0 1 2.66 0zM987.28 516.54a1.13 1.13 0 0 1 0-1.6 1.25 1.25 0 0 1 0 1.6zM976.93 518.17c.62-.39 1-.13 1.35.43a2.24 2.24 0 0 1-1.35-.43zM978.79 518.68c.42-.39.8-.47 1.08.15a1.13 1.13 0 0 1-1.08-.15zM987 514.42c-.39 0-.77 0-.78-.54a.82.82 0 0 1 .78.54zM976.15 515.49a.46.46 0 0 1-.62.46.59.59 0 0 1 .62-.46zM975.09 517.6c.37-.4.47-.12.54.22a.5.5 0 0 1-.54-.22zM983.27 518.83c.11-.37.27-.55.56-.13a.46.46 0 0 1-.56.13zM980.39 513.92c-.07.35-.16.63-.54.22a.48.48 0 0 1 .54-.22z" transform="translate(-821.64 -462.01)"/><path class="cls-3" d="M975.63 514.43c-.21 0-.41 0-.52-.26h.54a.25.25 0 0 1-.02.26z" transform="translate(-821.64 -462.01)"/><path class="cls-11" d="M950.08 500.88a6.54 6.54 0 0 1 1.44-2.62.64.64 0 0 0 .75-.54l1.08-.57.58.07a1.29 1.29 0 0 0 1.55.06 2.53 2.53 0 0 1 1.74 1.22c.1 1.44.77 2.81.47 4.29a2.05 2.05 0 0 0-.75 1.18c-.85 2.4-2.66 3.25-5.06 3.17a3.24 3.24 0 0 1-1.79-1.91 1.89 1.89 0 0 0-.41-1.38 6.63 6.63 0 0 1 .2-2.39c.44-.07.28-.34.2-.58z" transform="translate(-821.64 -462.01)"/><path class="cls-13" d="M957.69 502.79c.3-1.48-.37-2.85-.47-4.29.84.19.33 1.56 1.37 1.58a5.28 5.28 0 0 1-.21 2.79c-.14.85-.46.13-.69-.08zM954 493.13a5.7 5.7 0 0 1-2.29 0 1.63 1.63 0 0 1 2.29 0zM958.32 497.83c-.33-.14-.46-.35-.28-.69a.46.46 0 0 1 .28.69zM950.52 493.58a.45.45 0 0 1-.62.4.49.49 0 0 1 .62-.4zM955.85 494c-.36.08-.57-.05-.62-.42a.51.51 0 0 1 .62.42zM958.47 498.82c-.26-.14-.3-.31-.07-.52.22.15.29.32.07.52z" transform="translate(-821.64 -462.01)"/><path class="cls-10" d="M972.8 501.08c-.13 0-.3.06-.38 0-2.68-2.05-5.28-1.38-7.86.2-.29.18-.52.5-.92.38 1.93-2.3 5.89-3 8.28-1.48.37.23.77.42.88.9zM972.8 509.23a.86.86 0 0 1 .06-.75c1.28-2.34 1.5-4.66 0-7-.05-.09 0-.25 0-.38 1.48 1.22 2 3.83 1.13 6.12a3.57 3.57 0 0 1-1.19 2.01zM972 510.27a.73.73 0 0 1 .72-.88.93.93 0 0 1-.72.88zM971.21 511.06c-.07-.42.12-.58.53-.52a.51.51 0 0 1-.53.52z" transform="translate(-821.64 -462.01)"/><path class="cls-12" d="M968.77 509.41l-.82.79a9.25 9.25 0 0 1-3.25 1.28 3.22 3.22 0 0 1-3.17-1.42c-.95-1.47-.55-2.94.12-4.36.24-.51.56-1 .84-1.46l1-.93c1.86-1 3.75-1.74 5.82-.52a4.59 4.59 0 0 1 .57 4.57 18.15 18.15 0 0 1-1.11 2.05z" transform="translate(-821.64 -462.01)"/><path fill="#fefefe" d="M140.09 49.06l.03.09-.08-.01.05-.08z"/><path class="cls-9" d="M138.64 45.01l.03.03-.03-.04v.01z"/><path class="cls-9" d="M955.48 497.28a1.29 1.29 0 0 1-1.55-.06v-.3c.53.08 1.14-.23 1.55.36z" transform="translate(-821.64 -462.01)"/><path class="cls-13" d="M949.68 503.85a1.89 1.89 0 0 1 .41 1.38 1 1 0 0 1-.41-1.38zM952.27 497.72a.64.64 0 0 1-.75.54c.06-.45.36-.55.75-.54zM953.92 496.92v.3l-.58-.07c.09-.36.25-.51.58-.23zM950.08 500.88c.08.24.24.51-.2.58-.3-.32-.14-.46.2-.58z" transform="translate(-821.64 -462.01)"/><path class="cls-10" d="M968.77 509.41a18.15 18.15 0 0 0 1.07-2.05 4.59 4.59 0 0 0-.57-4.57c1.45.55 1.4 1.82 1.36 3a4.13 4.13 0 0 1-1.86 3.62zM969.27 502.79c-2.07-1.22-4-.47-5.82.52 1.18-1.9 4.76-2.22 5.82-.52z" transform="translate(-821.64 -462.01)"/><path d="M969.13 593.9L958.55 608h-1.21L947 593.85v23.62h-6.12V585h7l10.16 14 10.17-14h7v32.48h-6.12zM1005.23 617.43h-24.31v-32.49h24.31v5.94H987v7.48h17.58v5.7H987v7.34h18.23zM1020.27 590.51H1010v-5.57h26.73v5.57h-10.31v26.92h-6.12zM1064.63 617.43h-24.31v-32.49h24.31v5.94h-18.23v7.48h17.6v5.7h-17.6v7.34h18.23zM1098.19 617.43h-7.29l-9.47-10.86h-5.89v10.86h-6.13V584.9h15.46c7.65 0 11.69 5.16 11.69 10.77 0 4.46-2 9-8.21 10.21l9.84 11.09zm-22.65-26.78v10.4h9.33c3.9 0 5.57-2.6 5.57-5.2s-1.72-5.2-5.57-5.2z" transform="translate(-821.64 -462.01)"/></svg>