<svg id="Layer_1" data-name="Layer 1" xmlns="http://www.w3.org/2000/svg" viewBox="0 0 1186.21 357.35"><defs><style>.cls-2{fill:#ebe8e8}.cls-4{fill:#393536}.cls-5{fill:#383536}.cls-9{fill:#f16358}</style></defs><path d="M640.73 905.37c-1.45.14-2.63-.83-4-.94-1.19-.44-2.36-.93-3.57-1.32-5.82-1.9-11.66-3.77-17.48-5.66-7.59-2.81-15.29-5.28-23-7.63a7.34 7.34 0 0 0-2.19-.9c-8.23-2.71-16.46-5.44-24.69-8.13-4-1.31-7.94-2.83-12-3.88-.66-.27-1.31-.57-2-.8q-45.48-15.11-90.93-30.24c-2.72-.9-2.61-.32-2.61-3.62v-47.46c0-1.36 0-2.72-.07-4.07v-2.89a7.37 7.37 0 0 0 0-2.39 13 13 0 0 0 0-3.35c0-1.68.09-3.35.09-5V612v-2.4c0-.5.41-.61.81-.71a1.51 1.51 0 0 0 1 .56c3.62.94 7.24 1.9 10.87 2.83l52.13 13.29q33.36 8.52 66.71 17.06c12.2 3.15 24.25 6.37 36.38 9.37 4.94 1.27 9.9 2.42 14.86 3.63 0 1 .05 2.07.05 3.11L641 775.68a7.78 7.78 0 0 1-2.78-.55q-20.54-5.58-41.08-11.19l-50.79-13.75q-4.4-1.19-8.79-2.32c-2-.51-2.08-.43-2.12 1.5 0 1.51.08 3 0 4.55s.62 1.93 1.84 2.27q16.85 4.62 33.66 9.32l38 10.57 32 8.92v3.11c0 33 0 66-.28 99.08-.04 6.06.05 12.12.07 18.18z" transform="translate(-337.29 -549.92)" fill="#f15f53"/><path class="cls-2" d="M640.73 905.37c0-6.06-.11-12.12-.05-18.18.32-33 .28-66.05.28-99.08V785q8.7-3.36 17.41-6.71c42-16 84-32.23 125.55-49.59a35.65 35.65 0 0 1 10.34-2.86c.75-.07 1.62 0 2.17-.76 4.5.86 9.14 1.25 13 4.07A30.54 30.54 0 0 1 820 742.46a60.77 60.77 0 0 1 4.42 17.25c.46 4.51 1.14 9 .8 13.53-.23 3.08-.48 6.17-.76 9.24a105.52 105.52 0 0 1-3.53 18.44 99.6 99.6 0 0 1-5 13.92 88.17 88.17 0 0 1-7.74 14 64.88 64.88 0 0 1-7.36 9.06 52.69 52.69 0 0 1-18.62 12.23c-6.85 2.61-13.62 5.39-20.44 8.08-7.93 3.11-15.87 6.19-23.8 9.31-5.77 2.28-11.52 4.63-17.3 6.9-9.26 3.64-18.55 7.21-27.82 10.84-7.11 2.79-14.21 5.63-21.32 8.45q-14 5.53-28 11a6.47 6.47 0 0 1-2.8.66zM641 775.68l.12-116.9c0-1 0-2.07-.05-3.11a86.05 86.05 0 0 0 9-3.29c18.47-7.1 36.94-14.2 55.36-21.43 24.88-9.78 49.77-19.54 74.5-29.69 4.94-2 9.88-4 15.29-4.57.88-.09 2 .28 2.69-.59 4 1.08 8.12 1.77 11.62 4.14a29.36 29.36 0 0 1 9.31 10.7 52.33 52.33 0 0 1 5.08 15.81 79.45 79.45 0 0 1 1.36 17.06 124 124 0 0 1-1.28 13.71 104.94 104.94 0 0 1-2.16 11.2 118.41 118.41 0 0 1-6.11 17.55 77.5 77.5 0 0 1-11 18.1 60.49 60.49 0 0 1-10.52 10.07 50.63 50.63 0 0 1-11.91 6.44 2.15 2.15 0 0 0-1.18.78 98.55 98.55 0 0 0-10.27 3.9c-38.48 15.26-77.13 30.08-115.77 44.9-4.67 1.8-9.29 3.77-14.08 5.22z" transform="translate(-337.29 -549.92)"/><path d="M797.86 596.1c-.74.87-1.81.5-2.69.59-5.41.52-10.35 2.54-15.29 4.57-24.73 10.15-49.62 19.91-74.5 29.69-18.38 7.23-36.89 14.33-55.38 21.43a86.05 86.05 0 0 1-9 3.29c-5-1.21-9.92-2.36-14.86-3.63-12.13-3.09-24.23-6.26-36.35-9.37q-33.36-8.55-66.71-17.06L471 612.32c-3.63-.93-7.25-1.89-10.87-2.83a1.51 1.51 0 0 1-1-.56c3.8-1.84 7.84-3.12 11.77-4.65 18.88-7.38 37.79-14.67 56.68-22 21.5-8.36 42.91-16.93 64.31-25.54 3.18-1.28 6.35-2.6 9.53-3.9a33.58 33.58 0 0 1 15.14-2.84c3.3.22 6.4 1.31 9.56 2.11 17.16 4.36 34.3 8.82 51.45 13.23l92.69 23.81 26.65 6.85a7.47 7.47 0 0 0 .95.1z" transform="translate(-337.29 -549.92)" fill="#97999b"/><path class="cls-4" d="M1384 671.9c.67-.44.46-.94.44-1.37-1.38-23.23-.74-46.47-.88-69.71 0-2.05 0-2.07 2.11-2.07h14.63c2 0 2.07 0 2.07 2.12v93.7c0 2.33 0 2.34-2.35 2.34-7.27 0-14.55-.07-21.82.06-1.91 0-2.78-.69-3.67-2.24q-20-34.9-40.13-69.74a7.77 7.77 0 0 0-1.36-2.09c-.7.2-.54.67-.51 1 1.86 22.41 1.13 44.86 1.27 67.3 0 1.36-.08 2.72 0 4.07s-.38 1.68-1.63 1.66c-3.6-.06-7.19 0-10.79 0h-5c-.93 0-1.3-.36-1.23-1.27v-1.44-92.73c0-2.89-.48-2.73 2.65-2.73 7.11 0 14.23.06 21.34 0a3.52 3.52 0 0 1 3.53 2.09q19.93 34.53 40 69c.4.65.87 1.35 1.33 2.05z" transform="translate(-337.29 -549.92)"/><path class="cls-5" d="M949.68 775.62a2.44 2.44 0 0 0 1.27.61c11.37 2.89 15.37 9.95 16.22 19.86a30.67 30.67 0 0 1-1 11.15c-1.93 6.74-6.24 11.59-12.25 15a39.17 39.17 0 0 1-18.1 4.9c-6.39.24-12.79.15-19.18.17h-20.15c-2.08 0-2.09 0-2.1-2.07v-42.9-50.57c0-2.68-.51-2.64 2.51-2.62 11.91.08 23.82-.26 35.73.24a60.08 60.08 0 0 1 16.48 2.82c11.46 3.8 16 11.78 15.64 23.18A24.73 24.73 0 0 1 963 764c-2.31 5.57-6.14 9.45-12.14 10.91-.46.14-.95.19-1.18.71zm-34.52 21.66v11.26c0 1.26.43 1.66 1.66 1.64 4.4-.06 8.8 0 13.19-.07a22.78 22.78 0 0 0 8.66-1.6 10.34 10.34 0 0 0 6.32-7 16.1 16.1 0 0 0 .38-7.34 10 10 0 0 0-5.33-7.25 18.36 18.36 0 0 0-6.37-2c-5.57-.77-11.17-.27-16.76-.39-1.67 0-1.71 0-1.72 1.72-.05 3.68-.03 7.36-.03 11.03zm0-40.36v9.09c0 2 0 2 1.91 2 3.75 0 7.5.06 11.25 0a28.17 28.17 0 0 0 8.48-1.27 8.94 8.94 0 0 0 6.48-8.29 17 17 0 0 0 0-3.11 8.26 8.26 0 0 0-5.06-7.25 19.81 19.81 0 0 0-5.52-1.5c-5.4-.77-10.83-.31-16.25-.46-1.11 0-1.32.49-1.32 1.44.05 3.13.03 6.24.03 9.35z" transform="translate(-337.29 -549.92)"/><path class="cls-4" d="M1041.16 597.12a62 62 0 0 1 17.88 2.44c13.46 4.26 22 13.42 26.23 26.71 2.94 9.27 3.41 18.81 2.69 28.44a58.32 58.32 0 0 1-3.55 16.8c-5.55 14.4-16 22.92-31.13 25.73a63 63 0 0 1-25.47-.38c-15.49-3.47-25.46-13-30.23-28-2.88-9-3.35-18.34-2.7-27.73A61 61 0 0 1 998 625c5.1-14.48 15.25-23.21 30.19-26.49a70.37 70.37 0 0 1 12.97-1.39zm25.23 49.82c-.07-1.52-.09-3.92-.32-6.31-.52-5.35-1.6-10.57-4.28-15.33a19.91 19.91 0 0 0-13.61-10.09 31.87 31.87 0 0 0-10.26-.47c-7.61.8-13.37 4.41-17.05 11.21a30.65 30.65 0 0 0-2.68 6.9c-1.94 7.61-2 15.33-1.22 23.08a35.87 35.87 0 0 0 4.07 13.92 19.93 19.93 0 0 0 12.59 10 29.72 29.72 0 0 0 13.78.44 20.1 20.1 0 0 0 13.73-9.18 28.48 28.48 0 0 0 3.07-6.74c1.7-5.37 2.1-10.95 2.18-17.43zM1197 778.16c-.11 7.86-.87 15.62-3.61 23.07-5.34 14.57-15.72 23.34-30.9 26.32a61.41 61.41 0 0 1-27.11-.55c-15.29-3.84-24.88-13.68-29.36-28.64a72.78 72.78 0 0 1-2.58-22.51 65 65 0 0 1 3.4-20.7c4.87-13.69 14.34-22.39 28.47-25.85a61.63 61.63 0 0 1 30.38.1c14.92 3.85 24.18 13.6 28.6 28.17a73.82 73.82 0 0 1 2.71 20.59zm-21.89-.68a51.11 51.11 0 0 0-.54-8.53 35.59 35.59 0 0 0-4.25-13.61 19.92 19.92 0 0 0-13.34-9.72 30.62 30.62 0 0 0-11.68-.34 20.63 20.63 0 0 0-16 11.63 32.34 32.34 0 0 0-2.64 7.42 66 66 0 0 0-.84 23.11 35 35 0 0 0 4.16 13.16 19.45 19.45 0 0 0 10.73 9.09 28.41 28.41 0 0 0 19.27-.13c6.68-2.42 10.5-7.55 12.71-14 1.87-5.71 2.41-11.56 2.37-18.08z" transform="translate(-337.29 -549.92)"/><path class="cls-5" d="M1149 598.76c4.87 0 10.55-.17 16.22.2a55.31 55.31 0 0 1 19.25 4.5c12.39 5.57 20.28 15 23.55 28.16a63.76 63.76 0 0 1-.52 33.16c-4.24 14.94-14.19 24.43-28.88 29.09a72.4 72.4 0 0 1-22 3h-25.89c-2.47 0-2.48 0-2.48-2.44V601c0-2.23 0-2.25 2.19-2.25zm.12 48.92v30.17c0 .92-.27 2 1.31 1.94 5.34-.08 10.7.24 16-.78 10-1.9 16.71-7.48 19.78-17.27 2.19-7 2.22-14.14 1.55-21.33a34.54 34.54 0 0 0-2.18-9.29 22.14 22.14 0 0 0-15.47-14.12c-6.59-1.82-13.32-1.1-20-1.26-.71 0-1 .34-1 1v1.68z" transform="translate(-337.29 -549.92)"/><path class="cls-4" d="M1516 620a61.79 61.79 0 0 0-11-3.94c-6.3-1.46-12.67-2-19-.53-10.8 2.56-17.5 9.66-20.5 20.07a48.59 48.59 0 0 0 .84 29.48c2.68 7.93 8 13.32 16.4 15.26a35.79 35.79 0 0 0 10.73.54c2.55-.18 5.08-.61 7.62-.9 1.12-.13 1.63-.56 1.62-1.83-.07-5.75 0-11.5 0-17.25 0-1.64 0-1.67-1.79-1.68h-15.35c-1.12.11-1.56-.31-1.54-1.49.07-3 0-6.07 0-9.11v-5.51c0-.88.26-1.37 1.22-1.3H1521.7c.9-.07 1.36.28 1.29 1.23v47.2c0 3.13.39 2.37-2.55 3.3a105 105 0 0 1-36.89 4.66 47 47 0 0 1-15-3.07c-12.24-4.73-19.66-13.83-23.39-26.13a73.79 73.79 0 0 1-2.61-27 54.8 54.8 0 0 1 3.19-15.42c5.07-13.47 14.62-22.4 28.33-26.43 16.29-4.79 32.38-3.47 48.05 3a5.28 5.28 0 0 1 .65.42q-3.31 8.07-6.77 16.43z" transform="translate(-337.29 -549.92)"/><path d="M1372.19 773.31c9.88-14.46 21.37-27.67 32.12-41.46.44-.57.93-1.1 1.34-1.69a2.22 2.22 0 0 1 2-1h20.86a2.17 2.17 0 0 1 .66.23 6.86 6.86 0 0 1-1.49 2.18q-15.42 19.58-30.87 39.13c-1.84 2.34-1.65 1.61-.13 4l31.54 50a5.8 5.8 0 0 1 1.21 2.25c-.53.48-1.11.28-1.64.28-6.55 0-13.11 0-19.66.05a3.09 3.09 0 0 1-3-1.7q-11.56-18.75-23.25-37.44c-1.68-2.7-1.2-2.33-3.62-.65-1.7 1.18-3.33 2.49-5.07 3.61a3.06 3.06 0 0 0-1.51 3c.06 10 0 20 0 29.95v1.44c0 1.74 0 1.79-1.67 1.8h-17.75c-1.11 0-1.65-.34-1.51-1.51a11.53 11.53 0 0 0 0-1.44v-93c0-2-.48-2.28 2.17-2.27h17.5c.92 0 1.32.35 1.26 1.27v42.86z" transform="translate(-337.29 -549.92)" fill="#393637"/><path class="cls-4" d="M1516 750.76c-2.36-.88-4.51-1.7-6.68-2.48-5.75-2.06-11.63-3.46-17.81-3.18a14.67 14.67 0 0 0-5.12 1.09 9.42 9.42 0 0 0-3.1 15.33 19.61 19.61 0 0 0 5.23 3.76c3.84 2 7.7 3.87 11.56 5.79a82.57 82.57 0 0 1 12.52 7.49c7.55 5.61 10.84 13.19 10.52 22.44-.4 11.9-6.61 20.44-17.86 24.73a43 43 0 0 1-12.12 2.69c-10.48.8-20.75-.15-30.6-4.12-3.44-1.38-3.44-1.38-3.44-5.08v-15.33c1-.35 1.6.27 2.29.56a93.21 93.21 0 0 0 18.84 6.19c4.82.9 9.68 1.31 14.51.15 5.29-1.26 8.12-4.85 8-9.88a9 9 0 0 0-2.35-5.88 21 21 0 0 0-5.63-4.41c-4-2.26-8.07-4.2-12.16-6.18a63.44 63.44 0 0 1-10.36-6c-5.77-4.28-10.1-9.66-11.39-16.86-1.75-9.72-.11-18.65 7.43-25.73 4.64-4.35 10.35-6.52 16.55-7.49 11.19-1.76 22 0 32.42 4 1.42.55 2.8 1.19 4.23 1.69 1 .36 1.11.86.71 1.81-2.08 4.89-4.07 9.76-6.19 14.9zM958.17 621.12c-3.59-1.58-6.94-3-10.39-4.28a31.83 31.83 0 0 0-16.48-1.75 20.63 20.63 0 0 0-14.38 9.83 32 32 0 0 0-4.49 12 62.45 62.45 0 0 0 1.07 27.3 25.55 25.55 0 0 0 1 2.94c3.57 8.77 10.23 13.2 19.56 13.71 7.7.41 15.08-1.34 22.37-3.56 1.44-.44 2.88-.91 4.28-1.36.69.57.39 1.25.4 1.84v13.42c0 2 0 2-2 2.82a63.88 63.88 0 0 1-17.73 3.97c-7.2.59-14.39.52-21.43-1.38-13.44-3.64-22.05-12.39-26.51-25.37-3.36-9.75-3.94-19.84-3.13-30a55.08 55.08 0 0 1 4.86-19.25c6.5-13.93 17.51-21.84 32.61-24.09 12.38-1.85 24.17.44 35.49 5.53.89.41 1.73.64 1.14 2-2.12 5.17-4.1 10.3-6.24 15.68zM1304 751.5c-3.93-1.71-7.65-3.35-11.5-4.64a30.84 30.84 0 0 0-15.82-1.29 20.34 20.34 0 0 0-13.25 8.72 34.17 34.17 0 0 0-5.56 15.38 62.85 62.85 0 0 0 1.17 24 29.43 29.43 0 0 0 1.1 3.41c3.5 9 10.49 13.92 20.19 14.24 7 .22 13.81-1.2 20.5-3.17 2-.58 4-1.2 6.19-1.89v15.24c0 2.18 0 2.18-2.15 3a67.16 67.16 0 0 1-20.35 4.09 59.68 59.68 0 0 1-18.78-1.58c-13.83-3.78-22.41-12.92-26.8-26.29a62.61 62.61 0 0 1-2.92-16.45c-.43-8.41-.09-16.76 2.38-24.9 3.38-11.12 9.51-20.15 19.85-25.94a45.2 45.2 0 0 1 19.17-5.52 63.85 63.85 0 0 1 31 5.7c.51.23 1 .44 1.53.69a.83.83 0 0 1 .42 1.19c-.06.15-.1.3-.16.45-2.05 5.06-4.09 10.19-6.21 15.56z" transform="translate(-337.29 -549.92)"/><path class="cls-5" d="M1009.77 778.19v-47c0-2.06 0-2.08 2.11-2.08h16.78c1.92 0 1.94 0 1.94 2v76.66c0 2.32 0 2.33 2.33 2.33h34.29a15.51 15.51 0 0 0 1.67 0c1.29-.14 1.61.46 1.59 1.67v13.65c0 1.79 0 1.82-1.86 1.83h-55.86c-3.36 0-3 .42-3-2.87v-35.22z" transform="translate(-337.29 -549.92)"/><path d="M641 775.68c4.82-1.45 9.44-3.42 14.13-5.22 38.64-14.82 77.29-29.64 115.77-44.9a98.55 98.55 0 0 1 10.27-3.9q7.56 2 15.26 3.42c-.55.74-1.42.69-2.17.76a35.65 35.65 0 0 0-10.34 2.86c-41.52 17.36-83.51 33.55-125.55 49.59q-8.72 3.33-17.41 6.71l-32-8.92-38-10.57q-16.83-4.68-33.66-9.32c-1.22-.34-2-.82-1.84-2.27s0-3 0-4.55c0-1.93.14-2 2.12-1.5q4.4 1.14 8.79 2.32l50.79 13.75q20.55 5.58 41.08 11.19a7.78 7.78 0 0 0 2.76.55z" transform="translate(-337.29 -549.92)" fill="#686a75"/><path class="cls-5" d="M1270.66 647.94v45.77c0 .56-.05 1.12 0 1.68.11 1.09-.23 1.56-1.44 1.55-6-.06-12 0-18 0-1 0-1.46-.35-1.36-1.39a13.81 13.81 0 0 0 0-1.44v-92.49c0-3.15-.45-2.83 2.76-2.84h15.83c2.33 0 2.19-.14 2.19 2.22z" transform="translate(-337.29 -549.92)"/><path d="M615.66 897.45c5.82 1.89 11.66 3.76 17.48 5.66 1.21.39 2.38.88 3.57 1.32-.13.86-.78.87-1.44.88a44.65 44.65 0 0 1-6.63-.71c-9.46-1.25-18.69-3.65-28-5.6-4.27-.9-8.5-2-12.76-3-10.54-2.37-21.09-4.68-31.62-7.06-5.59-1.26-11.14-2.63-16.72-3.92-7.27-1.69-14.57-3.24-21.83-5-5.86-1.44-11.78-2.61-17.66-3.94q-15.93-3.59-31.84-7.21-15-3.42-30-6.82-8-1.81-16-3.68c-12.14-2.84-24.32-5.51-36.48-8.27-4.89-1.11-9.75-2.31-14.63-3.42s-9.78-2.12-14.65-3.23c-4.26-1-8.51-2-12.75-3a25.33 25.33 0 0 1-3.53-1.48c-3.78-1.58-3.72-7-.45-9a52.77 52.77 0 0 1 7.5-3.62q14.51-5.9 29.05-11.67c6.06-2.43 12.15-4.79 18.2-7.24 9-3.65 18-7.37 27-11 4.8-1.95 9.65-3.78 14.46-5.69 6-2.38 12-4.8 18-7.17 1.41-.55 2.86-1 4.3-1.46a13 13 0 0 1 0 3.35 6.24 6.24 0 0 0-3 .62c-5 2-9.93 3.91-14.85 6-3.67 1.54-7.49 2.74-11.1 4.39-5.87 2.67-12 4.73-17.9 7.23-9.75 4.1-19.63 7.88-29.45 11.81l-19.71 7.95c-4.87 2-9.76 3.89-14.63 5.87a19.14 19.14 0 0 0-4.37 2.45c-1.87 1.42-1.86 3.36 0 4.77a9.4 9.4 0 0 0 3.65 1.69c5.82 1.28 11.62 2.61 17.43 3.92 10 2.26 20 4.5 30 6.79 8 1.84 15.92 3.75 23.89 5.6 3.25.75 6.57 1.22 9.77 2.14 4.28 1.23 8.67 2 13 3 6.93 1.75 14 3 20.91 4.73 5.55 1.36 11.16 2.49 16.71 3.85 8.94 2.21 18 4 27 6 5.81 1.32 11.55 2.92 17.38 4.1 8.48 1.72 16.87 3.83 25.31 5.69 6.29 1.39 12.56 2.78 18.8 4.37 5.61 1.43 11.35 2.37 17 3.69 9.27 2.17 18.61 4 28 5.87.99.23 2.48.7 3.59-.55z" transform="translate(-337.29 -549.92)" fill="#eeeeef"/><path class="cls-9" d="M1162.74 884.66c2.58-8.8 5.06-17.3 7.56-25.79.87-2.94.72-2.41 3.21-2.46h.72c2.14 0 2.16 0 2.78 2.05q4 12.93 7.92 25.89c.59-.15.53-.76.66-1.25q3.12-12.29 6.25-24.58c.53-2.09.54-2.09 2.68-2.11 3.54 0 3.53 0 2.63 3.33l-8.73 32.59c-.22.81-.11 2-1.09 2.24a8.32 8.32 0 0 1-4.26-.06c-.71-.22-.72-1.17-.92-1.85l-5.68-18.78c-.83-2.75-1.67-5.49-2.51-8.26-.72.43-.71 1.12-.88 1.71q-3.63 12.4-7.27 24.8c-.11.38-.27.76-.35 1.15-.2 1-.75 1.4-1.83 1.45-3.57.15-3.56.2-4.48-3.26l-8.64-32.36c-.14-.54-.3-1.08-.4-1.63s.21-1.05.91-1.06h.24c4.09-.39 4.1-.38 5.11 3.62q2.93 11.6 5.87 23.19c.1.38.26.77.5 1.43zM972.66 867.7v-10.68c0-3.4-.17-3 3.18-3 2 0 2.08 0 2.08 2.16v36.16c0 .89.58 2.19-1.16 2.37-2.49.26-2.93.06-3.49-1.94-.06-.22-.17-.44-.32-.83a14.24 14.24 0 0 1-6.08 3.06c-6.08 1.14-11.51-1.85-13.42-7.71a22.05 22.05 0 0 1 .11-14.35 11.63 11.63 0 0 1 17.31-6c.49.31.88.94 1.79.76zm0 12.64a20.57 20.57 0 0 0-.52-5.32c-.88-3.26-2.78-4.92-6-5.18-3.55-.28-5.85.91-7.11 4a17.08 17.08 0 0 0-.06 12.84 5.65 5.65 0 0 0 5.54 3.82c.72 0 1.44 0 2.16-.06a5.8 5.8 0 0 0 5.44-4.29 18.19 18.19 0 0 0 .55-5.81zM1349 895.21a28 28 0 0 1-8.78-1.19c-1.87-.62-1.88-.64-1.91-2.49-.06-3.9.09-3.34 3.16-2.42 3.7 1.11 7.46 1.75 11.32.85 3.2-.74 4.84-2.91 4.6-6a5 5 0 0 0-2.48-3.88 23.22 23.22 0 0 0-4.53-2.15 36.87 36.87 0 0 1-6.33-2.81 10.29 10.29 0 0 1-5-11.46c.72-3.35 2.91-5.4 5.94-6.68 3.2-1.34 6.56-1.24 9.91-.84a23.31 23.31 0 0 1 5.78 1.49c.93.36 1.24.91.86 1.84-.12.29-.23.59-.33.89-1.09 3.08-.94 2.42-3.26 1.68-3.14-1-6.31-1.72-9.63-.9-2 .5-3.57 1.51-3.93 3.68s.09 4.29 2.18 5.66a24.49 24.49 0 0 0 4.73 2.27 48.35 48.35 0 0 1 6.35 2.79c4 2.2 5.44 5.61 5 10-.36 4.1-2.67 6.72-6.3 8.3a17.28 17.28 0 0 1-7.35 1.37zM1217.48 891.29a11.7 11.7 0 0 1-9.47 3.92 13.17 13.17 0 0 1-3.07-.46 7.37 7.37 0 0 1-5.83-6.26c-.57-3.51.06-6.7 3.3-8.84 2.84-1.88 6.08-2.29 9.36-2.56 1.35-.11 2.71-.11 4.06-.09 1 0 1.44-.43 1.37-1.44-.22-3.22-.9-5.81-5.67-5.74a17.65 17.65 0 0 0-6.23 1.52c-1.72.67-1.73.66-2.44-1-.19-.44-.33-.9-.54-1.33a1 1 0 0 1 .56-1.54c4.63-2.18 9.43-3 14.38-1.32A7.13 7.13 0 0 1 1222 872a19.34 19.34 0 0 1 .34 3.56v16.75c0 2.25-1.41 3.16-3.56 2.38a1.17 1.17 0 0 1-.73-.86c-.13-.73-.29-1.42-.57-2.54zm-8.14-.71c4.69 0 7.17-2.27 7.72-7 .3-2.57.07-2.82-2.41-2.6l-3.8.29a10.7 10.7 0 0 0-4.12 1.11 4 4 0 0 0-2 2.22c-1.34 3.49.61 6.01 4.61 5.98zM1239.59 887.44c2.29-6.39 4.54-12.7 6.84-19 .34-.93.29-2.28 1.42-2.6a9.8 9.8 0 0 1 4.28 0c.59.09.66.61.46 1.13-.39 1-.8 2.08-1.19 3.13q-5.3 14-10.58 28a23.39 23.39 0 0 1-2.07 4.31 10.16 10.16 0 0 1-11.41 4.56c-1.06-.25-1.54-.69-1.42-1.77a8.65 8.65 0 0 0 0-1.44c-.08-1.08.47-1.42 1.46-1.27a5.83 5.83 0 0 0 .72.06c4.16.2 5.73-.81 7.32-4.7.21-.51.34-1.07.6-1.56a4.22 4.22 0 0 0 0-3.88c-3.29-8-6.5-16.14-9.74-24.21-1-2.47-1-2.47 1.67-2.49h1c2 0 2 0 2.76 1.91l7.1 18.81c.12.33.13.77.78 1.01zM1463.83 881.42h-7.92c-1.53 0-1.61.18-1.37 1.71.75 4.83 3.61 7.27 8.5 7.3a23.45 23.45 0 0 0 7.73-1.47c1.34-.46 1.52-.32 1.63 1v1.2c0 2 0 2-1.91 2.72a20.07 20.07 0 0 1-10.37 1.07c-6-1-9.7-4.56-10.85-10.59a20.42 20.42 0 0 1 .72-10.87c2.55-7 9-9.54 15.44-7.77 4.49 1.23 7.6 5.46 8 10.59s.42 5.09-4.61 5.09zm-9-4.42h12.14c.74 0 .89-.41.9-1.06a6.15 6.15 0 0 0-4.32-5.94c-4.62-1.23-8.67 1.92-8.75 7zM999.46 881.42h-8.15c-1.39 0-1.53.22-1.39 1.53.48 4.58 3.53 7.36 8.15 7.48a23.19 23.19 0 0 0 8.2-1.48c1.32-.46 1.48-.33 1.58 1.07v1.44c.16 1.35-.49 2-1.74 2.41a21.15 21.15 0 0 1-11.08 1 12.39 12.39 0 0 1-10.35-10.56 22.4 22.4 0 0 1 .36-9.5c1.84-7 7.7-10.66 14.76-9.32 5.08 1 8.58 5.13 9.14 10.92.11 1.19 0 2.4.08 3.6.05 1-.4 1.43-1.41 1.42h-8.16zM990 877h12.1c1.2 0 1.27-.58 1.19-1.49a6 6 0 0 0-4.26-5.49 6.82 6.82 0 0 0-7.31 2.24A8.66 8.66 0 0 0 990 877zM906.71 855.92a22.71 22.71 0 0 1 9.4 1.7c1.46.6 1.44.65.78 2.12-1.34 3-1.33 3-4.63 2a17.14 17.14 0 0 0-8-.74 11.33 11.33 0 0 0-9.39 8.19 20.86 20.86 0 0 0-.22 12.27c1.71 6.3 6.34 9.25 13.25 8.81a28.51 28.51 0 0 0 6.6-1.13c1-.3 1.51 0 1.49 1.13-.06 3.84.51 3.41-3.22 4.25a27 27 0 0 1-10.93.32 15 15 0 0 1-12.17-10.27 25.81 25.81 0 0 1-.43-16.25 16.76 16.76 0 0 1 16.34-12.38zM1105.77 891.92a12.36 12.36 0 0 1-9.25 3.28c-5.86-.28-9.49-2.94-9.89-9.13-.27-4.39-.06-8.78-.12-13.18v-5.75c0-1 .41-1.39 1.41-1.48 3.85-.34 4-.22 4 3.7v14.14a21 21 0 0 0 .1 2.63 4.58 4.58 0 0 0 4.59 4.35 15.57 15.57 0 0 0 2.16 0c3.62-.18 5.54-1.78 6.44-5.29a18.6 18.6 0 0 0 .4-4.52v-13c0-2 .1-2 2-2 3.74 0 3.32-.18 3.33 3.13v24.68c0 .64-.36 1.21-1.16 1.2h-1c-1.78 0-2.4.44-2.73-2a3.59 3.59 0 0 0-.28-.76zM1080.45 880.2a16.26 16.26 0 0 1-2.22 9.17c-3 4.73-7.52 6.27-12.8 5.72s-9-3.61-10.67-8.69a19.73 19.73 0 0 1-.2-12c1.86-6.44 7.16-9.69 13.94-9.11 7.81.66 11.35 6.49 12 13 0 .63-.05 1.27-.05 1.91zm-21.16.07a15.23 15.23 0 0 0 .82 5.69 6.66 6.66 0 0 0 6.61 4.57c3.73.1 6.06-1.16 7.27-4.25a16.48 16.48 0 0 0 0-12.14c-1.19-3.06-3.91-4.49-7.54-4.29a6.84 6.84 0 0 0-6.54 5 16.87 16.87 0 0 0-.62 5.42zM947.56 880.45a16.92 16.92 0 0 1-2.25 8.93 12.94 12.94 0 0 1-13.31 5.68 12.7 12.7 0 0 1-10.67-10.28 20.87 20.87 0 0 1 .29-10.41c1.87-6.41 7.15-9.68 14-9.1 7.62.64 11.47 6.33 12 13.5-.03.56-.06 1.12-.06 1.68zm-13.5 10.09c3.63 0 6-1.36 7.13-4.5a17 17 0 0 0 0-11.71c-1.14-3.1-3.81-4.61-7.42-4.48-3.41.12-5.82 1.85-6.73 5.07a18.51 18.51 0 0 0 0 10.38c.96 3.56 3.33 5.2 7.02 5.24zM1293.55 880a18 18 0 0 1 .48-4.71c1.67-7.26 7.44-10.71 14.45-9.94 6.55.71 10.74 5.21 11.51 11.81a21 21 0 0 1-.85 9.68c-1.86 5.25-5.74 7.89-11.16 8.35a12.53 12.53 0 0 1-12.7-6.81 16.89 16.89 0 0 1-1.73-8.38zm21.17.25a13.81 13.81 0 0 0-.91-5.89c-1.3-3.13-3.75-4.61-7.42-4.49a6.62 6.62 0 0 0-6.65 4.85 17.08 17.08 0 0 0 0 11c1.1 3.25 3.38 4.78 6.9 4.82 3.71 0 6-1.44 7.23-4.72a14 14 0 0 0 .85-5.6zM1387.79 891.84a12.73 12.73 0 0 1-9.62 3.36 14.93 14.93 0 0 1-3.53-.62c-3.91-1.17-6.09-4.37-6.17-9.23s0-9.9 0-14.85v-3.35c0-1.11.43-1.48 1.42-1.47h.72c3.85 0 3.15.17 3.16 3.05v14.85a14 14 0 0 0 .09 2.15c.48 3.29 2.12 4.72 5.47 4.8q1 0 1.92-.06a6.07 6.07 0 0 0 5.81-4.84 17.41 17.41 0 0 0 .57-4.5v-13.41c0-2 0-2 2-2 4-.06 3.22.17 3.23 3.23v23.47c0 .75.4 1.81-.53 2.15a5.07 5.07 0 0 1-3.52 0c-.93-.42-.54-1.63-1.02-2.73zM1039.56 874.06c2.77-5.18 5.55-10.21 8.15-15.33.86-1.7 1.81-2.49 3.82-2.37 3.15.18 3.55-.28 1.76 3-3.43 6.23-6.8 12.49-10.24 18.7a7.38 7.38 0 0 0-1 3.87c.06 3.67 0 7.34 0 11 0 1.69-.08 1.78-1.76 1.77-4.07 0-3.69.48-3.71-3.46 0-3-.07-5.91 0-8.86a8.45 8.45 0 0 0-1.17-4.55c-3.39-6.15-6.7-12.35-10-18.53-.3-.56-.62-1.12-.88-1.7s-.18-1.13.63-1.15h3.83c1 0 1.25.87 1.61 1.54 2.52 4.72 5 9.45 7.55 14.17a4 4 0 0 0 1.41 1.9zM1487 895.2a20.16 20.16 0 0 1-7.06-1.12c-1.85-.65-1.93-.82-2-2.75v-1c0-2 .13-2.08 2-1.3a18.68 18.68 0 0 0 8.89 1.45 11.22 11.22 0 0 0 1.42-.16c2-.44 3.15-1.51 3.3-3 .19-1.8-.91-2.8-2.29-3.59a38.16 38.16 0 0 0-4.81-2.12 30.36 30.36 0 0 1-4.78-2.2c-2.6-1.59-4-3.86-3.78-7a7.06 7.06 0 0 1 4.9-6.23 18.38 18.38 0 0 1 11.52-.34c.31.08.62.14.93.23 3.14 1 3.16 1.12 1.8 4.06-.55 1.2-1.21 1.25-2.26.86a18 18 0 0 0-7.26-1.26 7.71 7.71 0 0 0-2.79.61 2.6 2.6 0 0 0-.64 4.62 13.52 13.52 0 0 0 3.81 2 63.68 63.68 0 0 1 6.59 2.82c2.86 1.58 4.4 3.93 4.23 7.2a7.62 7.62 0 0 1-5 7 16.74 16.74 0 0 1-6.72 1.22zM1283 878v14.6c0 2.08 0 2.11-2.16 2.11-3.51 0-3.16.27-3.16-3v-27.29-1.68c.11-1.18-.45-1.51-1.55-1.49-2.72.06-5.43 0-8.15 0-2.14 0-2.14 0-2.17-2.08a3.69 3.69 0 0 1 0-.47c0-2.26 0-2.28 2.21-2.28h18.93c2.08 0 4.16.06 6.23 0 1.29 0 1.74.52 1.67 1.7a1.92 1.92 0 0 0 0 .24c.11 2.9.09 2.92-2.82 2.92-2.47 0-5 .06-7.42 0-1.29 0-1.63.47-1.62 1.67.01 4.98.01 10.05.01 15.05zM1511.82 895.2a22.06 22.06 0 0 1-7.28-1.2c-1.22-.43-1.89-1.09-1.7-2.45.06-.47 0-1 0-1.44.07-1.67.21-1.8 1.83-1.11a19.22 19.22 0 0 0 9.35 1.51 7.14 7.14 0 0 0 2.54-.63 3.08 3.08 0 0 0 .63-5.44 12 12 0 0 0-3.14-1.71c-2.28-1-4.59-1.84-6.81-2.92a7.26 7.26 0 0 1-4.41-5.85c-.39-3.48 1.5-6.43 5.09-7.78 4-1.52 8.16-1.16 12.23 0 3.2.89 3.23 1.12 1.85 4a1.51 1.51 0 0 1-2.25.92 17.57 17.57 0 0 0-7.25-1.27 8.49 8.49 0 0 0-2.34.44 2.76 2.76 0 0 0-2.19 2.25 2.8 2.8 0 0 0 1.41 2.83 17.63 17.63 0 0 0 3.44 1.67 69.42 69.42 0 0 1 6.59 2.82c3.24 1.72 4.35 4.38 4 7.94-.29 3.2-2.14 5-4.84 6.25a15.75 15.75 0 0 1-6.75 1.17zM1404.72 880.26a16.72 16.72 0 0 0 .66 5.21 6.74 6.74 0 0 0 6.59 5 18.48 18.48 0 0 0 6.12-1c1.89-.59 2-.54 2 1.49.06 2.7-.1 3-2.68 3.65a17.43 17.43 0 0 1-9 .11 11.22 11.22 0 0 1-8.17-7.72 20.64 20.64 0 0 1 0-13.42c1.82-5.38 6.31-8.37 12.39-8.36a20 20 0 0 1 6.58 1.15 1.24 1.24 0 0 1 .9 1.83c-.09.22-.18.44-.26.67-.86 2.5-.86 2.51-3.44 1.79a14.38 14.38 0 0 0-5-.52 6.59 6.59 0 0 0-6 4.72 16.37 16.37 0 0 0-.69 5.4zM1444.5 889.13c.06.11.14.17.14.24.31 4.49.82 4.48-3.94 5.51a16 16 0 0 1-7.6-.22 11 11 0 0 1-7.9-7.36 20.5 20.5 0 0 1 0-14.09c1.94-5.37 6.16-7.72 11.66-8a18.7 18.7 0 0 1 7 1.1c1 .35 1.54.83 1 1.93a6.61 6.61 0 0 0-.24.67c-.86 2.47-.87 2.51-3.26 1.77a12.66 12.66 0 0 0-3.76-.66c-3.72 0-6.55 1.14-7.74 6a18.08 18.08 0 0 0 0 8.31c.91 4.14 3.41 6.14 7.63 6.11a19.74 19.74 0 0 0 4.71-.78c.8-.2 1.48-.66 2.3-.53zM1123.83 869.91c2.15-2.64 4.35-4.25 7.3-4.64a12.11 12.11 0 0 1 3.8.2c.16 0 .36 0 .46.12 1.16 1 .11 2.22.19 3.34 0 .69-.19 1.47-1.21 1.4l-1-.07c-5.55-.31-9.09 2.9-9.21 8.5-.1 4.15 0 8.3 0 12.45 0 3.77.71 3.46-3.65 3.51-1.29 0-1.64-.53-1.63-1.72v-11.5-13.89c0-1.8.11-1.86 1.89-1.93 2.48-.1 2.58 0 2.83 2.37z" transform="translate(-337.29 -549.92)"/><path d="M458.18 790.72c0 1.35.07 2.71.07 4.07v47.46c0 3.3-.11 2.72 2.61 3.62q45.44 15.14 90.88 30.24c.67.23 1.32.53 2 .8-.26.87.87 1.33.67 2.29a5.63 5.63 0 0 1-3.25.07c-3.56-.84-7.16-1.43-10.73-2.17-10.73-2.22-21.37-4.81-32.07-7.17-4.8-1.06-9.58-2.24-14.38-3.36-7.18-1.67-14.41-3.19-21.6-4.85-6-1.39-12.15-2.47-18.13-4.05-6.37-1.69-12.87-2.82-19.24-4.52-5.66-1.52-11.45-2.61-17.18-3.88-4.8-1.06-9.59-2.19-14.37-3.32-9.12-2.14-18.28-4.1-27.42-6.14-5.35-1.2-10.7-2.37-16-3.62a30.09 30.09 0 0 1-4.54-1.48c-1.5-.61-1.56-1.38-.41-2.51a7.9 7.9 0 0 1 2.68-1.54c3.23-1.34 6.49-2.63 9.73-3.95 7.3-3 14.53-6.14 21.89-8.93 5.74-2.17 11.41-4.5 17.1-6.77 6.65-2.65 13.26-5.42 19.91-8.09 8.42-3.38 16.82-6.82 25.29-10.06 2.09-.81 4.04-2.29 6.49-2.14z" transform="translate(-337.29 -549.92)" fill="#bbbdbf"/><path d="M458.18 790.72c-2.45-.15-4.4 1.33-6.53 2.14-8.47 3.24-16.87 6.68-25.29 10.06-6.65 2.67-13.26 5.44-19.91 8.09-5.69 2.27-11.36 4.6-17.1 6.77-7.36 2.79-14.59 5.94-21.89 8.93-3.24 1.32-6.5 2.61-9.73 3.95a7.9 7.9 0 0 0-2.68 1.54c-1.15 1.13-1.09 1.9.41 2.51a30.09 30.09 0 0 0 4.54 1.48c5.33 1.25 10.68 2.42 16 3.62 9.14 2 18.3 4 27.42 6.14 4.78 1.13 9.57 2.26 14.37 3.32 5.73 1.27 11.52 2.36 17.18 3.88 6.37 1.7 12.87 2.83 19.24 4.52 6 1.58 12.1 2.66 18.13 4.05 7.19 1.66 14.42 3.18 21.6 4.85 4.8 1.12 9.58 2.3 14.38 3.36 10.7 2.36 21.34 5 32.07 7.17 3.57.74 7.17 1.33 10.73 2.17a5.63 5.63 0 0 0 3.25-.07c.2-1-.93-1.42-.67-2.29 4.08 1.05 8 2.57 12 3.88 8.23 2.69 16.46 5.42 24.69 8.13a7.34 7.34 0 0 1 2.19.9c-1.48 1.26-3.26.76-4.79.49-6.8-1.2-13.57-2.55-20.28-4.18-5.4-1.32-10.85-2.42-16.26-3.71-10.73-2.57-21.53-4.83-32.28-7.28-7.52-1.7-15-3.67-22.52-5.2-6.92-1.41-13.79-3.06-20.68-4.62-11.31-2.56-22.62-5.1-33.91-7.74-5.64-1.32-11.3-2.56-16.93-4-7.94-2-16-3.6-23.93-5.39-9.91-2.22-19.82-4.48-29.74-6.7-3.64-.81-7.23-1.8-10.91-2.5-3.35-.63-6.67-1.46-10-2.37-1.41-.39-3.22-.79-3.43-2.56s1.47-2.42 2.8-3.14c2.12-1.14 4.41-1.85 6.59-2.82 5.39-2.4 11-4.29 16.39-6.64 4.8-2.08 9.76-3.81 14.63-5.75 6.5-2.58 13-5.23 19.47-7.84 5.17-2.09 10.35-4.16 15.51-6.25 5.82-2.37 11.61-4.82 17.46-7.12q6.56-2.58 13.09-5.22c1.66-.66 3.33-1.52 5.22-1.5z" transform="translate(-337.29 -549.92)" fill="#c9cacc"/><path d="M458.17 787.83c-1.89 0-3.56.84-5.22 1.5q-6.54 2.64-13.09 5.22c-5.85 2.3-11.64 4.75-17.46 7.12-5.16 2.09-10.34 4.16-15.51 6.25-6.49 2.61-13 5.26-19.47 7.84-4.87 1.94-9.83 3.67-14.63 5.75-5.41 2.35-11 4.24-16.39 6.64-2.18 1-4.47 1.68-6.59 2.82-1.33.72-3 1.31-2.8 3.14s2 2.17 3.43 2.56c3.29.91 6.61 1.74 10 2.37 3.68.7 7.27 1.69 10.91 2.5 9.92 2.22 19.83 4.48 29.74 6.7 8 1.79 16 3.43 23.93 5.39 5.63 1.39 11.29 2.63 16.93 4 11.29 2.64 22.6 5.18 33.91 7.74 6.89 1.56 13.76 3.21 20.68 4.62 7.55 1.53 15 3.5 22.52 5.2 10.75 2.45 21.55 4.71 32.28 7.28 5.41 1.29 10.86 2.39 16.26 3.71 6.71 1.63 13.48 3 20.28 4.18 1.53.27 3.31.77 4.79-.49 7.74 2.35 15.44 4.82 23 7.63-1.11 1.25-2.6.78-3.81.55-9.35-1.83-18.69-3.7-28-5.87-5.64-1.32-11.38-2.26-17-3.69-6.24-1.59-12.51-3-18.8-4.37-8.44-1.86-16.83-4-25.31-5.69-5.83-1.18-11.57-2.78-17.38-4.1-9-2-18-3.81-27-6-5.55-1.36-11.16-2.49-16.71-3.85-6.94-1.69-14-3-20.91-4.73-4.31-1.09-8.7-1.81-13-3-3.2-.92-6.52-1.39-9.77-2.14-8-1.85-15.92-3.76-23.89-5.6-10-2.29-20-4.53-30-6.79-5.81-1.31-11.61-2.64-17.43-3.92a9.4 9.4 0 0 1-3.65-1.69c-1.87-1.41-1.88-3.35 0-4.77a19.14 19.14 0 0 1 4.37-2.45c4.87-2 9.76-3.91 14.63-5.87l19.71-7.95c9.82-3.93 19.7-7.71 29.45-11.81 5.93-2.5 12-4.56 17.9-7.23 3.61-1.65 7.43-2.85 11.1-4.39 4.92-2.06 9.89-4 14.85-6a6.24 6.24 0 0 1 3-.62 7.37 7.37 0 0 1 .15 2.31z" transform="translate(-337.29 -549.92)" fill="#dbdcdd"/></svg>