<svg id="Layer_1" data-name="Layer 1" xmlns="http://www.w3.org/2000/svg" viewBox="0 0 857.89 199.2"><defs><style>.cls-1{fill:#0e819b}.cls-3{fill:#464547}.cls-4{fill:#f55401}.cls-5{fill:#818386}</style></defs><path class="cls-1" d="M597.2 448.17a256.23 256.23 0 0 1-3.09 28.8c-.47 2.79-1 5.56-1.47 8.36a5 5 0 0 1-3.7 4.24q-27.3 9.09-54.58 18.22-39 13-77.94 26c-.69.24-1.62 1-2.14 0s.62-1.38 1.24-1.82q65.85-45.86 131.69-91.72a3.35 3.35 0 0 1 3.47-.42 11.4 11.4 0 0 1 4.44 2.51 7.45 7.45 0 0 1 2.08 5.83z" transform="translate(-434.16 -428.21)"/><path d="M439.3 487.59a3.77 3.77 0 0 1 2.84-3.9l21.64-7.69q56-20 112-39.89c.64-.23 1.51-1 2 0s-.65 1.15-1.16 1.51q-61.24 42.65-122.51 85.26c-.26.18-.52.37-.79.54a2.66 2.66 0 0 1-4.16-1.44 220 220 0 0 1-9.79-33.72 5.36 5.36 0 0 1-.07-.67z" transform="translate(-434.16 -428.21)" fill="#fe8501"/><path class="cls-3" d="M938.1 466.62v-28.93c0-1.12.31-1.36 1.37-1.34 3.6.06 7.2.07 10.8 0 1.14 0 1.45.25 1.45 1.43q-.06 43.55 0 87.1v10.19c0 .73-.14 1-1 1q-5.82-.08-11.64 0c-.83 0-1-.27-1-1v-5.66c-1.28 1-2.36 1.83-3.49 2.62-9 6.32-18.72 7.92-29 3.78-7.23-2.91-11.53-8.72-14.24-15.81-2.94-7.68-3.48-15.68-3-23.8a39.56 39.56 0 0 1 5.07-17.65c6.41-11.12 15.94-16.73 28.91-16.3a35.25 35.25 0 0 1 14.58 3.82c.33.17.69.32 1.19.55zm0 31.32v-17.73c0-2.51 0-2.5-2.32-3.45a32.64 32.64 0 0 0-16.29-2.45c-8 .9-13 5.61-15.42 13-2.76 8.28-2.51 16.73-.6 25.15a17.7 17.7 0 0 0 5 9.48c3.88 3.55 8.64 4.09 13.58 3.5 5.66-.67 10.52-3.28 15-6.61a2.12 2.12 0 0 0 1-2c.02-6.28.05-12.58.05-18.89zM701.53 521.61v7.07a1 1 0 0 1-.66 1.09c-6.57 3.13-13.27 6-20.49 7.14-12.83 2-25.19.85-36.37-6.48-7.76-5.08-12.65-12.37-15.64-21s-3.58-17.71-3-26.82a51.19 51.19 0 0 1 5-19.71c6.53-13.15 17-21.08 31.58-23.34 13.79-2.14 26.73.71 39 7.17a1.14 1.14 0 0 1 .63 1.23v13.78c0 .42.31 1.1-.28 1.23a2.06 2.06 0 0 1-1.93-.27q-1.8-1.57-3.69-3.06c-7.2-5.6-15.27-8.9-24.48-9-13-.18-23.19 6.75-27.93 18.86-2.82 7.23-3.54 14.75-3.18 22.44a42.06 42.06 0 0 0 5 19c6 10.57 15.14 15.38 27.17 14.9 10.4-.41 19.19-4.65 26.85-11.49a3.66 3.66 0 0 1 .63-.55c1-.58 1.83-.15 1.83 1-.03 2.25-.04 4.53-.04 6.81zM805.31 498.82c.11 6.55-.47 13-2.94 19.15-4.86 12-13.88 18.53-26.72 19.83a36.5 36.5 0 0 1-18.43-2.5 29.4 29.4 0 0 1-16.81-18.61c-4-12.34-4-24.74 1.45-36.66 4.47-9.78 12.43-15.5 23.07-17.26 7.05-1.16 14.05-.79 20.71 2.05 9.69 4.13 15.42 11.67 18.09 21.69a50.61 50.61 0 0 1 1.58 12.31zm-53.61.95a49.41 49.41 0 0 0 1.19 11.31c2.11 8.76 7.5 15 17.09 15.57 9.2.6 16.39-3.51 19.34-12.49 2.87-8.75 2.73-17.67.54-26.55a18.49 18.49 0 0 0-6.52-10.47c-3.83-3-8.26-3.78-13-3.59-7.82.31-13.54 4.4-16.34 11.7-1.81 4.75-2.19 9.75-2.3 14.52zM862.63 528.88c-1.87 1.33-3.57 2.57-5.3 3.75a29.5 29.5 0 0 1-17.78 5.37c-11.55-.28-20-7.38-22.14-18.74a43.46 43.46 0 0 1-.75-8v-45.89c0-1 .19-1.28 1.22-1.27 3.72.07 7.44.06 11.16 0 .94 0 1.18.23 1.18 1.18v41.1a43.88 43.88 0 0 0 .91 10.47c1.07 4.23 3.28 7.44 7.9 8.31a21.12 21.12 0 0 0 9.62-.24 39.55 39.55 0 0 0 13.44-7.16c.63-.49.57-1.07.57-1.7v-50.45c0-1.17.21-1.56 1.47-1.52 3.68.1 7.36.05 11 0 .77 0 1.1.1 1.1 1v69.86c0 .82-.18 1.08-1 1.07-3.8-.05-7.6-.06-11.4 0-1 0-1.18-.36-1.16-1.24 0-1.86-.04-3.78-.04-5.9z" transform="translate(-434.16 -428.21)"/><path class="cls-1" d="M476.2 565.71a3 3 0 0 1-2.45-1.32A125 125 0 0 1 460 544.84c-1.1-1.92-.57-3.23 1.55-3.94L497.3 529q45.09-15 90.2-30.08c.52-.17 1.27-.88 1.66 0s-.54 1-1 1.32l-110 64.76a3.8 3.8 0 0 1-1.96.71z" transform="translate(-434.16 -428.21)"/><path class="cls-4" d="M559.53 432.57c0 .59-.63.63-1.1.8l-20.38 7.28L439 476c-.23.08-.45.17-.68.24-.41.13-.83.16-1.06-.26s0-.82.35-1.14c2.05-1.73 4.08-3.47 6.11-5.2q22.05-18.74 44.08-37.48c2.89-2.46 6.22-3.19 9.85-3.39 9.62-.51 19.24-.72 28.87-.38a249.35 249.35 0 0 1 31.91 3.18c.51.08 1.12.08 1.1 1z" transform="translate(-434.16 -428.21)"/><path class="cls-3" d="M1027.07 456.94c-.49.09-.69-.2-.94-.37a46.5 46.5 0 0 0-21.26-8.06c-6.29-.63-12.45-.23-18.21 2.77-10.37 5.41-10.27 15.89-6.73 22.25 2.32 4.18 6.3 6.35 10.72 7.7 5.46 1.67 11.08 2.69 16.62 4 4.77 1.17 9.51 2.39 13.79 5 6.63 4 9.69 10 9.81 17.53.19 11.49-6.22 20.52-17.4 25-5.73 2.29-11.73 2.61-17.78 2.49a63.6 63.6 0 0 1-14.6-1.77 86.17 86.17 0 0 1-13-4.51c-.4-.17-.81-.26-.8-.87v-10.47a57.77 57.77 0 0 0 7.45 4.82 47.74 47.74 0 0 0 22 5.91c5.63.06 11.18-.61 16.17-3.55 9.12-5.37 9.6-15.4 6.54-21.88-2.16-4.58-6.18-6.86-10.77-8.28-6.11-1.89-12.4-3-18.6-4.55a42.93 42.93 0 0 1-10.22-3.64c-8.2-4.41-12-11.35-11.82-20.57.24-9.76 5.63-16.14 13.78-20.6a33.74 33.74 0 0 1 15.06-3.86 69.91 69.91 0 0 1 29 4.79 1.61 1.61 0 0 1 1.24 1.79c-.12 2.99-.05 5.99-.05 8.93zM1055.9 476.34c2.46-2 4.63-4 7.07-5.68 5.37-3.63 11.11-6 17.74-6 9.58 0 16.44 4.37 20.8 12.8a40.24 40.24 0 0 1 4.15 16c.52 7.59.08 15.09-2.74 22.25-3.45 8.74-9.17 15.41-18.44 18.1a31.26 31.26 0 0 1-23-2.14c-1.85-.91-3.64-1.94-5.62-3V558.4c0 1-.19 1.29-1.22 1.25-2.12-.09-4.24-.06-6.36 0-.84 0-1.07-.23-1.06-1.06v-21.93-68.64c0-1 .19-1.46 1.35-1.4 2.11.1 4.23.06 6.35 0 .75 0 .94.21.93.94.02 2.84.05 5.67.05 8.78zm0 25.85v20.24c0 .6 0 1.09.7 1.44a40.3 40.3 0 0 0 18 4.32c9.48-.11 16.81-5 19.94-14 3.27-9.35 3-18.88.57-28.37a18.32 18.32 0 0 0-6-10.1c-4.68-3.75-10.14-4.18-15.79-3.25-6.46 1.05-11.82 4.4-16.88 8.32-.51.4-.46.87-.46 1.38z" transform="translate(-434.16 -428.21)"/><path class="cls-1" d="M483.31 573.72a.94.94 0 0 1-1-.59.89.89 0 0 1 .28-1.08c.26-.18.54-.34.81-.51l99.53-58.66c.58-.34 1.17-.81 1.86-.27s.35 1.22.15 1.86a162.71 162.71 0 0 1-18.6 38.53 5.55 5.55 0 0 1-3.66 2.45l-53.54 12.28-25.14 5.82z" transform="translate(-434.16 -428.21)"/><path class="cls-3" d="M1211.33 500.75c-.23 7.29-1.17 13.9-4.49 19.93-4.67 8.46-11.9 13.23-21.45 14.49a36.25 36.25 0 0 1-17.26-1.53 26.61 26.61 0 0 1-16.36-16.28 46.67 46.67 0 0 1 .15-34.83c4.31-10.65 12.64-16.42 24.09-17.63a34.49 34.49 0 0 1 16.27 1.84c8.94 3.48 14.4 10.14 17.15 19.17a50.84 50.84 0 0 1 1.9 14.84zm-53.67-.56a56.29 56.29 0 0 0 1.16 11c1.11 4.74 3 9.09 6.57 12.52 4.18 4 9.31 5.48 15 5.45 9.23 0 16.36-4.82 19.45-13.51 3.28-9.21 3.18-18.63 1-28.06a21.22 21.22 0 0 0-7.36-12.28c-4.17-3.33-9-4.36-14.25-4.28-8.94.15-15.76 4.86-19 13.15-2 5.11-2.43 10.46-2.57 16.01zM712.09 486.13v-48.39c0-1.19.33-1.42 1.45-1.4 3.63.08 7.27.07 10.91 0 1 0 1.24.26 1.24 1.25v96.91c0 1.81.19 1.56-1.63 1.57-3.51 0-7-.06-10.55 0-1.21 0-1.4-.35-1.4-1.46q.01-24.22-.02-48.48zM1292 526.79v6c0 .34-.07.57-.5.66-6.61 1.44-13.24 2.39-19.86.17-6.07-2-9.41-6.43-10.63-12.59a37.49 37.49 0 0 1-.68-7.25v-40c0-1-.27-1.26-1.25-1.23-2.12.08-4.24 0-6.36 0-.68 0-.89-.17-.86-.86v-4.31c0-.64.2-.82.82-.81h6.6c.85 0 1-.24 1-1.07v-18.09c0-1 .24-1.3 1.25-1.26q3.12.12 6.24 0c1 0 1.16.31 1.16 1.21v18c0 1 .23 1.25 1.24 1.24 6.91-.05 13.83 0 20.75-.05.89 0 1.19.22 1.13 1.13a30.59 30.59 0 0 0 0 3.83c0 .87-.25 1-1.07 1h-20.87c-.94 0-1.18.22-1.18 1.17 0 13.06 0 26.11.09 39.17a26.6 26.6 0 0 0 .65 6.77c1.38 5.16 4.68 7.93 10 8.53a25.41 25.41 0 0 0 11.45-1.19c.25-.02.52-.07.88-.17z" transform="translate(-434.16 -428.21)"/><path class="cls-5" d="M1210.44 609.2a18.29 18.29 0 0 1-5.61 3c-6.93 2-13.32-.76-16.14-7.4a26.12 26.12 0 0 1 .17-21.94c3.76-8.07 12.46-11.11 20.61-7.44.55.24 1.19.94 1.5-.29.08-.32.49-.21.75-.21h5.4c.7 0 .91.27.89.92V623.89c0 1.12-.32 1.42-1.4 1.37-1.71-.09-3.44-.07-5.16 0-.86 0-1.06-.27-1-1.08v-13.55zm0-16.89v-8.75a1.2 1.2 0 0 0-.88-1.32 16.66 16.66 0 0 0-4.73-1.27c-3.64-.35-6.75.54-8.73 3.91a13 13 0 0 0-1.67 5.57 23.13 23.13 0 0 0 1.12 10.85 6.15 6.15 0 0 0 5.22 4.2c3.62.4 6.62-1.07 9.37-3.22.39-.31.28-.72.28-1.11.02-2.95.02-5.91.02-8.86z" transform="translate(-434.16 -428.21)"/><path class="cls-3" d="M1123 486.15v-46.12c0-1 .2-1.29 1.23-1.25 2.11.09 4.24.08 6.35 0 .94 0 1.19.28 1.1 1.15a19.61 19.61 0 0 0 0 2v90.08c0 1.19-.25 1.58-1.49 1.5-1.83-.12-3.67 0-5.51 0-1.67 0-1.67 0-1.67-1.61z" transform="translate(-434.16 -428.21)"/><path class="cls-5" d="M1281.45 609.18a16.8 16.8 0 0 1-7.81 3.74c-7.89 1.17-13.37-3-14.39-9.87-.88-5.91 1.17-10.88 7.31-13.41 3.76-1.55 7.74-1.85 11.71-2.24.6 0 1.2-.09 1.79-.15 1.53-.17 1.53-.17 1.34-1.73-.3-2.56-2-4-4.75-4.39a24.94 24.94 0 0 0-11.85 1.63l-.9.35c-1.68.62-1.91.46-1.91-1.33v-5c0-.55.09-.9.68-1 5.7-1.46 11.45-2.23 17.29-1 5.37 1.14 8.68 5 8.91 10.4.38 8.7.07 17.41.17 26.11 0 .8-.32.92-1 .91h-5.52c-.84 0-1.16-.23-1.07-1.07.05-.62 0-1.13 0-1.95zm0-11.11a29 29 0 0 1 0-3.23c.12-1.19-.41-1.33-1.38-1.19-1.46.19-2.94.27-4.4.48-2.53.36-5.07.74-7.13 2.46s-2.08 3.77-1.51 6a4.41 4.41 0 0 0 3.86 3.28 11.36 11.36 0 0 0 8.49-2c1.48-1 2.4-2 2.06-3.85a11.07 11.07 0 0 1 .01-1.95zM1174.62 609.11a16.21 16.21 0 0 1-6.28 3.44c-5.41 1.4-10.37.29-13.58-3.76a13.41 13.41 0 0 1-.76-14.66c2.06-3.22 5.32-4.59 8.81-5.5a59.45 59.45 0 0 1 10.79-1.38c1-.07 1.1-.47 1-1.27-.36-3.07-1.87-4.45-4.95-4.86-4.34-.57-8.4.41-12.4 1.9a6 6 0 0 1-1 .32c-.82.15-1.24-.06-1.2-1.05.08-1.83 0-3.67 0-5.5a.92.92 0 0 1 .8-1.09c5.58-1.44 11.2-2.19 16.93-1.05s9.18 5.1 9.27 11c.13 8.54 0 17.09.06 25.63 0 .7-.24.88-.9.87h-5.63c-.71 0-1-.16-1-.93.09-.61.04-1.22.04-2.11zm0-11.06v-3.47c0-.8-.24-1.06-1-1-2.25.29-4.51.48-6.75.83a9.9 9.9 0 0 0-5.4 2.36c-1.79 1.66-1.74 3.76-1.23 5.87s2 2.85 3.9 3.2c3 .57 5.7-.35 8.27-1.94 1.64-1 2.63-2.19 2.24-4.22a8.46 8.46 0 0 1-.03-1.63z" transform="translate(-434.16 -428.21)"/><path class="cls-1" d="M515.61 592.22a12.42 12.42 0 0 1-4.78-1 92.4 92.4 0 0 1-16.7-8.79c-.61-.41-1.25-.79-1.06-1.67s.84-.95 1.53-1.11l57-13.11c.66-.16 1.32-.33 2-.46.48-.1 1-.19 1.28.34a1.12 1.12 0 0 1-.32 1.39 95.92 95.92 0 0 1-10.36 9.59 94.71 94.71 0 0 1-23.79 13.88 13.75 13.75 0 0 1-2.29.69 13.9 13.9 0 0 1-2.51.25z" transform="translate(-434.16 -428.21)"/><path class="cls-5" d="M1246.87 609.14a38.39 38.39 0 0 1-4 2.56c-5 2.57-11.43 1.62-14.79-2.24-2.46-2.84-3.2-6.31-3.23-9.92-.07-7.83 0-15.66 0-23.48 0-.94.3-1.15 1.17-1.11 1.71.06 3.44.08 5.15 0 1-.05 1.35.22 1.34 1.31v21.2a24.84 24.84 0 0 0 .19 3.34c.61 4.49 2.94 5.44 6.87 5 2.65-.33 4.82-1.82 6.91-3.4.52-.39.45-.89.45-1.4v-24.68c0-1 .2-1.4 1.3-1.33 1.75.1 3.52.06 5.28 0 .76 0 1 .2 1 1v35.22c0 .72-.21 1-1 1-1.88 0-3.76-.06-5.64 0-.88 0-1.11-.3-1-1.1.05-.62 0-1.19 0-1.97zM1080.09 579.7c1.16-.92 2.27-1.86 3.44-2.74a13.14 13.14 0 0 1 10.27-2.62c4.8.77 7.62 4 9.11 8.26a30.17 30.17 0 0 1-.54 22.64c-1.89 4.34-5 7.6-9.9 8.63a14.59 14.59 0 0 1-11.21-2.21c-.85-.55-1.32-.62-1.38.56 0 .67-.4.86-1 .83q-1.68-.06-3.36 0c-.64 0-.87-.23-.8-.84a3.84 3.84 0 0 0 0-.48v-50.31c0-1 .2-1.54 1.36-1.4s2.89-.53 3.68.28.2 2.36.21 3.59v14.61a1.84 1.84 0 0 0 .12 1.2zm19.22 14.36a31.11 31.11 0 0 0-1.18-8.64c-1.36-4.2-4.15-6.2-8.55-5.93-3.69.22-6.64 2.12-9.36 4.42-.33.27-.3.63-.3 1V606a1.15 1.15 0 0 0 .74 1.2 20.41 20.41 0 0 0 5.89 1.95c5.83.88 10.32-2.07 11.86-7.75a31.91 31.91 0 0 0 .9-7.34z" transform="translate(-434.16 -428.21)"/><path class="cls-3" d="M1237 500v32.23c0 1-.21 1.3-1.23 1.27-2.2-.08-4.4 0-6.6 0-.63 0-.82-.18-.81-.81v-4.55-60c0-1.3.37-1.58 1.58-1.52 2 .1 3.91.08 5.87 0 .94 0 1.2.23 1.2 1.19-.01 10.74-.01 21.48-.01 32.19z" transform="translate(-434.16 -428.21)"/><path class="cls-4" d="M434.22 448.69c-.46-3.86 1.79-7 5.88-8.54a178.83 178.83 0 0 1 31.27-8.3l1.29-.23c.54-.08 1.06-.1 1.31.52s-.13.9-.5 1.22c-2 1.69-3.94 3.38-5.92 5.06q-14.44 12.32-28.89 24.58c-.7.59-1.32 1.57-2.45 1.12s-.88-1.61-1-2.51c-.42-4.16-.76-8.37-.99-12.92z" transform="translate(-434.16 -428.21)"/><path class="cls-5" d="M1124 604.87c.79-2.23 1.49-4.17 2.16-6.12q3.88-11.12 7.74-22.25c.31-.91.72-1.39 1.77-1.27a16.18 16.18 0 0 0 2.87 0c1-.07 1.25.17.86 1.19-2.59 6.82-5.13 13.66-7.68 20.49q-5.49 14.67-11 29.35c-.31.85-.68 1.21-1.6 1.14a26.91 26.91 0 0 0-3.36 0c-.93 0-1-.28-.66-1 1.81-4.38 3.56-8.79 5.4-13.16a3.72 3.72 0 0 0 .1-3c-4.13-11.27-8.2-22.55-12.33-33.81-.36-1-.24-1.25.81-1.18a23.55 23.55 0 0 0 3.36 0c.89-.06 1.23.31 1.51 1.11q4.63 13.33 9.32 26.63z" transform="translate(-434.16 -428.21)"/><path class="cls-3" d="M1232.65 450.83h-4.43c-.57 0-.76-.18-.75-.76v-6.93c0-.56.15-.76.74-.76h8.85c.58 0 .75.18.75.75v6.93c0 .68-.27.78-.85.77-1.43-.02-2.87 0-4.31 0z" transform="translate(-434.16 -428.21)"/></svg>