<svg id="Layer_1" data-name="Layer 1" xmlns="http://www.w3.org/2000/svg" viewBox="0 0 598.87 222.87"><defs><style>.cls-1{fill:#141414}.cls-4{fill:#0f0f0f}.cls-5{fill:#161616}.cls-6{fill:#121212}.cls-7{fill:#1b1b1b}.cls-10{fill:#45cbf6}.cls-11{fill:#45cdf2}.cls-12{fill:#0f1010}</style></defs><path class="cls-1" d="M1084.91 783.94c-5.27 12-13.88 16.27-26.35 13-10.38-2.7-16.83-13.71-15.42-26.34 1.69-15.21 13.63-24.4 27.22-20.86 7.92 2.07 11.9 7.91 14.28 15.22.34 1-.28 2.41 1.12 3v8c-10.47 0-21 .11-31.42-.06-3.11 0-3.55.94-3 3.72 1.27 6 5.24 10.1 11.23 11.12 6.59 1.13 10.86-.93 14.4-6.92 1.68-2.76 6.03-2.71 7.94.12zM1051.44 769c8 0 16-.07 23.9 0 2.71 0 2.42-1.17 1.92-3a13.11 13.11 0 0 0-13.71-9.92c-6.87.38-11.28 4.98-12.11 12.92z" transform="translate(-486.9 -695.38)"/><path d="M710.5 806.69c.06 61.58-50 111.56-111.8 111.56s-111.85-50-111.8-111.56c0-61.35 50-111.21 111.55-111.31 61.81-.1 111.99 49.75 112.05 111.31zM600 884.84l-5.32 2.52c-1.58.45-3.16.89-4.73 1.36-7.32 2.19-10.45.21-11.38-7.35a32.42 32.42 0 0 1 .1-4.92c.18-1.82 2.2-3.61.11-5.47a.74.74 0 0 0-.68-.54c-3-3.29-2.69.71-3 1.63-3.56 10.27-6.91 20.62-10.42 30.91-.56 1.64-.54 3.66-2.53 4.77 1.48.81 2.8 1.73 4.54 1.59 5.78 2.51 12 3.21 18.11 4.33l1.87.6c6.36.35 12.72 1.75 19.09 0l4-.06c10.78-1.76 21.44-4 31.49-8.44 2-.91 4-1.62 3.36-4.57-1.56-7.48-3-15-4.6-23.23-1.51 2.14-1.19 3.84-1.25 5.37-.18 4.09-1.75 5.89-6.22 5.12-6.26-1.08-12.53-2.09-18-5.44-3.55-2.17-4-1-4.12 2.43-.23 9.27-.72 18.52-1.11 27.78h-3.37q.34-11.44.71-22.87c0-2.8 1.87-6.25-.5-8.17-1.57-1.27-3.9 1.41-5.82 2.48zm-50.13 16.52l-2.06-1c3-5.46 6.09-10.91 9.09-16.4 5.05-9.24 12.12-17.52 13-28.75.18-2.24.36-3.43-1.64-4.78-10.73-7.23-16.84-17.53-19.63-30-2.3-10.28-1.78-20.77-2.44-31.17-1.07-16.83 1.7-32.56 14.66-45-1.88-1-3.54-1.71-5.06-2.66-3.37-2.1-6.41-4.59-5.16-9.15s5.35-5.67 9.13-5.08c6.44 1 10.07-1 12.14-7.23 1.14-3.42 3.81-6.55 8.28-5.73s6.45 4.3 7.23 8.48a11 11 0 0 1 .13 3.95c-.55 2.82.64 3 2.92 2.39 6.53-1.69 13.18-1.55 19.83-1 28.18 2.39 52 21.74 56.66 47.86 3 16.75.93 33.68-4.3 50a45.28 45.28 0 0 1-18.28 24.09c-6.5 4.43-6.48 4.47-1.26 10.35l3.31 3.71c.9 1 2 2.27 1.44 3.5-1.29 2.66.6 4 1.86 5.6 4.87 6.17 9.79 12.31 14.7 18.46 32.71-24.11 49-68.57 39.48-108.38-13.68-57.34-66.92-92.24-125.28-82.13-65 11.26-105 82.44-80.82 143.62 9.57 24.18 25.76 42.56 48 55.81 1.11 1 2 2.71 4 1.57 2.91 2.47 6.56 3.47 10 4.94l.91-1.45c3.37-13.52 9.38-26.31 11.52-40.21-5.77 8.69-10.86 17.63-16.14 26.46-1.92 3.18-3.09 6.88-6.21 9.33zm60-43.05c17.57-.4 31.64-7.83 42.66-20.56 7.33-8.47 9.59-19.33 10.91-30.25.13-1.08.7-2.38-.63-3.16-4.44-2.58-5.33-7.43-7.17-11.55-3.77-8.46-6.94-17.23-12.59-24.71-7-9.32-9.63-8.06-15.77-2.29-6.42 6-14.07 8.17-22.44 3.91-4-2.05-8.26-3.77-11.56-7.15-3-3-6.55-3.49-10.49-1.48-7.39 3.78-13.08 9.19-18.69 15.42-7.91 8.79-7.76 20.57-13.65 29.86-.5 20.36 10 38 27.61 45.42 10.2 4.3 21.12 5.91 31.86 6.54zm52.4-59.15c5.83-23.83-2.77-42.55-21.61-56.28-16.35-11.93-35.1-14.62-54.7-8.72-3.11.94-3.82.19-2.91-2.49s.46-5.25.63-7.87-.56-4.66-3.29-5.38-4.62.63-5.32 3.17c-2.32 8.4-7.93 11.11-16.12 9.63a5.56 5.56 0 0 0-1 0c-1.52 0-3.12-.05-3.86 1.61s.62 2.71 1.59 3.82c3.31 3.8 8.19 4.54 12.78 6.24C548.78 756 548.13 779.63 551 795c4.16-12.62 10.44-23.1 20.53-31.27s16.25-8.82 26.75-1.88q2.49 1.63 5 3.26c7 4.51 14.79 4 21.16-1.27a58.76 58.76 0 0 1 4.68-3.65c4.89-3.26 8-2.85 12.41 1.23a44.64 44.64 0 0 1 10.21 13.93c3.65 7.83 7.05 15.85 10.58 23.81zm-59.14 73.61c1.81 0 2-1.86 3-2.88s.92-2.06-.4-2.84c-5.09-3-9.35-7.87-15.6-8.24-4.39-.25-8-2.42-12.09-3.28-1.52-.32-3.4-3.36-4.82 0-1 2.32-2.28 4.57.82 6.9 3.55 2.66 6.6 5.16 11.54 5.52 6.01.41 12.33.92 17.6 4.82zm45 29.63c3.47-2 6.56-4 9.79-5.69 3.53-1.85 3.22-3.88 1-6.61-4.23-5.06-8.21-10.32-12.4-15.42-.82-1-1.42-3.22-3.27-2.16-1.6.92-.43 2.72-.17 4.07 1.56 8.41 3.26 16.8 5.06 25.81zm-3.45-35.09c-3-3.41-5.9-6.58-8.7-9.8a2.68 2.68 0 0 0-3.39-1c-7.5 2.66-15 5.32-20.53 11.45-.84.93-2.36 1.52-1 3.15 1 1.2 1.87 2.22 3.66 1 5.08-3.39 11-4.33 16.79-5.91 2.88-.78 4.83-.68 5.71 2.47.76 2.7 2.16 2.37 3.94 1 1.07-.83 2.21-1.48 3.53-2.36z" transform="translate(-486.9 -695.38)" fill="#090b0b"/><path class="cls-1" d="M847.27 854.77c10.41-9.73 21.18-9.68 27.8 0 5.35-6.11 11.95-8.53 20-6.53 6.3 1.58 9.8 5.37 9.94 11.92.22 10.76-.07 21.54.16 32.3.07 3.23-1.62 3-3.7 2.93s-4.3.71-4.21-3c.23-9.11.14-18.22.06-27.33-.06-7.16-2.3-10.07-7.81-10.5-6.86-.55-12.17 3.15-13 9.52a102.71 102.71 0 0 0-.25 11.91c0 5.47-.22 10.94.08 16.39.17 3.16-1.51 3-3.63 3s-4.18.43-4.07-3.11c.26-8.61.13-17.23.07-25.84-.06-8.39-2.28-11.59-8.06-11.86a12.26 12.26 0 0 0-13 12.17c-.3 8.27-.21 16.57 0 24.84.08 3-.73 3.92-3.84 3.91s-3.89-.8-3.84-3.87c.18-12.42 0-24.85.18-37.27 0-2.11-2.22-5.67 3.12-5.92s3.6 3.23 4 6.34z" transform="translate(-486.9 -695.38)"/><path d="M764.31 765.13a37 37 0 0 1 4.11-18.76c8-15.21 29.49-20.2 43.47-10.11a18.49 18.49 0 0 1 6.79 8.39c.81 2.15 3.75 5.2.51 6.59-2.5 1.07-6.49 1.83-8.2-3.29-2.15-6.43-7.9-9.13-14.42-9.71-8-.72-15 1.77-19.21 8.9-6.65 11.34-6.43 23.2-.12 34.54 4.34 7.8 12 10.3 20.53 9 8.28-1.29 13.31-6.56 14.63-14.79.85-5.26 4.67-3.36 7.25-3.15 3.42.28 1.38 3.13 1 4.62-3.08 13.41-12.38 20.51-26.6 20.54-14.75 0-25.17-8-28.58-22a36.62 36.62 0 0 1-1.16-10.77z" transform="translate(-486.9 -695.38)" fill="#151515"/><path class="cls-1" d="M865.61 776c.41 10.28 6.34 15.72 15.95 14.89 4.24-.37 7.57-2.21 9.49-6.2.53-1.1.49-2.78 2.37-2.72s4.21-.53 5.29.4c1.46 1.26-.22 3.32-.91 4.87-3.17 7.13-9.12 10.24-16.6 10.61-8.32.42-15.6-2-19.9-9.57a28.74 28.74 0 0 1-1.77-25.81 21 21 0 0 1 21.73-13.34c9 .71 15.64 7.13 18 17.26 2.2 9.61 2.2 9.61-7.26 9.61zm.21-7c8 0 15.94-.07 23.9 0 2.74 0 2.39-1.21 1.89-3.07a13.17 13.17 0 0 0-14.22-9.89c-6.61.66-10.81 5.24-11.57 12.96zM934.46 791.72c-6.22 5.83-13.53 7.35-21.64 5.38-6-1.46-9.2-5.27-9.53-11.14a12.4 12.4 0 0 1 8.27-12.81c5.17-1.83 10.65-2.27 16-3.2 3.28-.56 6.84-1.06 7-5.56.14-3.92-2.61-6.57-7.34-7.24-7.09-1-10.18.74-14.43 7.69-1.54 2.53-4.26 1.14-6.34 1.06-2.66-.1-1.07-2.28-.83-3.4 1.51-7.27 7-11.54 16-12.32a33.56 33.56 0 0 1 9.42.43c8.09 1.59 11 4.95 11 13.2v22.36c0 2.28-.29 4.76 3.36 4.8 2.45 0 1.17 2.23 1.43 3.48.39 1.83-.66 2.65-2.3 3.16-4.63 1.47-7.77-.28-10.07-5.89zm.14-13.42c-.69-1.14 1.12-4.6-1.25-4-6.09 1.4-12.66.79-18.32 3.83-4.62 2.47-5 9.1-.69 11.42 4.69 2.5 9.62 1.87 14.31-.43 4.35-2.18 6.27-5.73 5.95-10.82z" transform="translate(-486.9 -695.38)"/><path class="cls-4" d="M781.92 866.93c0-7.94-.24-15.9.1-23.83.17-3.9-1.14-4.78-4.75-4.53-4.63.32-9.3-.08-13.94.14-2.66.12-3.06-1.05-2.89-3.24.15-1.9-.58-3.88 2.77-3.85q22.92.23 45.84 0c3.41 0 2.5 2.08 2.69 3.9.23 2.24-.35 3.28-2.93 3.17-5-.2-10 .12-14.94-.12-2.93-.14-3.54.94-3.52 3.65.12 16.39 0 32.78.14 49.17 0 3.31-1 4.08-4.13 4.06s-4.7-.39-4.54-4.19c.33-8.09.1-16.21.1-24.33z" transform="translate(-486.9 -695.38)"/><path class="cls-5" d="M994.31 751.39c8.29-.66 8.27-.65 10.74 6.61 3.38 9.9 6.81 19.78 11.28 29.67q4.26-12.75 8.54-25.51c.57-1.72 1.16-3.44 1.74-5.16 2.17-6.47 2.17-6.47 9.74-5.41-5.42 14.61-10.77 29.15-16.26 43.64-.91 2.4-8.24 2.57-9.16.18-5.63-14.58-11.07-29.24-16.62-44.02z" transform="translate(-486.9 -695.38)"/><path class="cls-6" d="M955.83 774.4c0-4.31-.21-8.63.07-12.91.22-3.33-.56-5.06-4.25-4.43-2.51.43-3.81-.13-3.83-3.26s.93-4.22 3.92-3.69c3.21.55 4.59-.66 4.13-4-.23-1.62.08-3.31-.07-5-.24-2.67.09-4.17 3.56-4.12 3.31.05 4.5 1 4 4.19-.13.81.09 1.67 0 2.48-.8 4.9.74 7.47 6.18 6.42 2.82-.54 3.27 1 3.22 3.43s-.18 4.1-3.12 3.51c-6-1.2-6.66 1.9-6.36 6.84.4 6.76.23 13.57 0 20.35-.1 3.88 1 6.16 5.32 5.65 2.68-.32 4.17.07 4.19 3.54 0 3.63-1.78 3.6-4.3 3.45-1.49-.1-3 .08-4.48 0-5.71-.49-8-2.8-8.17-8.55-.13-4.63-.02-9.3-.01-13.9z" transform="translate(-486.9 -695.38)"/><path class="cls-1" d="M840.18 760.35c3.66-6.11 7.63-9.43 13.31-10.11 1.35-.16 4-1.14 3.51 1.7-.32 2.07 2.33 5.36-2.21 6.18-10.23 1.88-14.12 6.38-14.43 16.88-.19 6.29-.2 12.59 0 18.88.11 2.92-1.21 3.22-3.53 3.07-2.1-.14-4.19.53-4.14-3 .19-13.08.15-26.16 0-39.24 0-2.81.76-3.65 3.6-3.63s4 .72 3.63 3.61a43.72 43.72 0 0 0 .26 5.66z" transform="translate(-486.9 -695.38)"/><path class="cls-7" d="M828.21 872.37c0 6.6-.19 13.22.08 19.82.14 3.33-1.58 3.26-3.92 3.22s-4.07.23-4-3.17q.28-20.07 0-40.14c-.05-3.59 2.13-2.92 4.21-3s3.81-.14 3.71 3c-.23 6.71-.08 13.49-.08 20.27zM986.9 773.82c0 6.61-.18 13.22.08 19.82.14 3.25-1.42 3.39-3.86 3.29-2.18-.1-4.13.37-4.08-3.11q.29-20.07 0-40.15c0-3.53 2-2.93 4.15-3.08 2.59-.2 3.88.35 3.78 3.41-.23 6.6-.07 13.21-.07 19.82zM986.84 737.88c.46 2.77.19 4.47-3.6 4.45s-4.32-1.33-4.22-4.58c.1-3 .07-4.74 4.06-4.74s4.14 1.99 3.76 4.87zM828.15 836.51c.54 2.79 0 4.28-3.66 4.3s-4.2-1.48-4.16-4.63.22-4.65 4.11-4.69c4.24-.04 3.98 2.17 3.71 5.02z" transform="translate(-486.9 -695.38)"/><path d="M609.92 858.31c-10.74-.63-21.66-2.24-31.81-6.54-17.61-7.45-28.11-25.06-27.61-45.42 5.89-9.29 5.74-21.07 13.65-29.86 5.61-6.23 11.3-11.64 18.69-15.42 3.94-2 7.53-1.55 10.49 1.48 3.3 3.38 7.53 5.1 11.56 7.15 8.37 4.26 16 2.13 22.44-3.91 6.14-5.77 8.74-7 15.77 2.29 5.65 7.48 8.82 16.25 12.59 24.71 1.84 4.12 2.73 9 7.17 11.55 1.33.78.76 2.08.63 3.16-1.32 10.92-3.58 21.78-10.91 30.25-11.02 12.73-25.09 20.16-42.66 20.56zm-48-45.67c-.66 3.44.58 4.42 1.76 5.23 2.37 1.64 3.7 3.93 5.09 6.38 3 5.35 6 11.45 11.18 14.46 18.38 10.62 37.28 9.19 55.4-.73 4.74-2.6 9.66-6.11 12.31-11.72 1.93-4.08 3.94-9 10.32-7.58.52.12 1.54-.57 1.21-2.19-5.62 1.45-10.45-.26-14.16-5-.9 1.74-.63 2.87.22 3.35 5.48 3 2.4 6.34 0 9-9.48 10.44-20.93 17.78-35.33 18.74-15.56 1-28.55-3.83-36.74-18.21-1.76-3.09-1.16-4.69 1.75-6.08 1.81-.86 3.85-1.67 2.17-4.65-4.91 3.29-10 6.1-15.1-1zm30.64-27.72c-3.14 4.31-5.92 7.94-8.43 11.74-.57.86-2 2.19-.49 3.46 2 1.71 2.21-.8 3.29-1.39 1.86-1 1.78-3 2.7-4.41 1.8-2.81 3.29-3.66 5.14-.09a40.27 40.27 0 0 0 3.09 5c.67.92.91 2.88 2.82 1.84 2.4-1.29.29-2.66-.27-3.62-2.34-4.11-4.96-8.04-7.82-12.53zm34.52 10.87a10 10 0 0 1 2.34 1.89c1 1.45 1.53 3.32 2.68 4.64.8.91 1.73 2.82 3.57 1.57s0-2.23-.58-3.12c-2-3.24-4.3-6.35-6.31-9.61-1.19-1.93-1.83-1.22-3.29-.14-3.22 2.42-4.87 6-7.46 8.88-.6.68-1.86 1.36-1 2.42s1.79.64 3 0c1.65-.87 2.11-2.24 2.94-3.61s1.72-2.96 4.14-2.92z" transform="translate(-486.9 -695.38)" fill="#fbd8b9"/><path class="cls-4" d="M662.32 799.16c-3.53-8-6.93-16-10.63-23.86a44.64 44.64 0 0 0-10.21-13.93c-4.42-4.08-7.52-4.49-12.41-1.23a58.76 58.76 0 0 0-4.68 3.65c-6.37 5.3-14.17 5.78-21.16 1.27q-2.51-1.62-5-3.26c-10.5-6.94-16.75-6.22-26.75 1.88S555.12 782.33 551 795c-2.83-15.32-2.18-38.92 17.55-52.07-4.59-1.7-9.47-2.44-12.78-6.24-1-1.11-2.36-2.09-1.59-3.82s2.34-1.62 3.86-1.61a5.56 5.56 0 0 1 1 0c8.19 1.48 13.8-1.23 16.12-9.63.7-2.54 2.54-3.9 5.32-3.17s3.45 2.82 3.29 5.38.27 5.24-.63 7.87-.2 3.43 2.91 2.49c19.6-5.9 38.35-3.21 54.7 8.72 18.8 13.69 27.4 32.41 21.57 56.24z" transform="translate(-486.9 -695.38)"/><path d="M606.65 890.38q-.36 11.43-.71 22.87l-.18 1c-6.37 1.74-12.73.34-19.09 0l-1.87-.6c-6.11-1.12-12.33-1.82-18.11-4.33-1.62-1.33-1.63-2.81-.93-4.73 1.85-5.08 3.27-10.33 5.21-15.37 2.4-6.26 3.41-13 7.14-18.8a.74.74 0 0 1 .68.54c-1.28 1.8-1.62 3.61-.11 5.47a32.42 32.42 0 0 0-.1 4.92c.93 7.56 4.06 9.54 11.38 7.35 1.57-.47 3.15-.91 4.73-1.36 2.74 1.17 4.39.07 5.32-2.52l.32-.15c4.26-1 6.1.66 5.71 4.95-.04.25.4.51.61.76z" transform="translate(-486.9 -695.38)" fill="#44cbfa"/><path class="cls-10" d="M609.31 913.24c.39-9.26.88-18.51 1.11-27.78.08-3.47.57-4.6 4.12-2.43 5.46 3.35 11.73 4.36 18 5.44 4.47.77 6-1 6.22-5.12.06-1.53-.26-3.23 1.25-5.37 1.62 8.23 3 15.75 4.6 23.23.61 2.95-1.33 3.66-3.36 4.57-10 4.48-20.71 6.68-31.49 8.44zm8.11-21.16c-.41-1.51-1.15-2.79-2.91-2.67a2.59 2.59 0 0 0-2.59 2.9 2.57 2.57 0 0 0 2.57 2.45c1.72.08 2.57-1.08 2.93-2.68zm0 13.3a2.78 2.78 0 0 0-2.44-2.71 2.68 2.68 0 1 0-.14 5.33c1.42 0 2.22-1.18 2.53-2.62zM603.18 872.77c-5.27-3.9-11.59-4.41-17.58-4.85-4.94-.36-8-2.86-11.54-5.52-3.1-2.33-1.8-4.58-.82-6.9 1.42-3.33 3.3-.29 4.82 0 4.07.86 7.7 3 12.09 3.28 6.25.37 10.51 5.25 15.6 8.24 1.32.78 1.36 1.79.4 2.84s-1.15 2.87-2.97 2.91z" transform="translate(-486.9 -695.38)"/><path class="cls-11" d="M559.79 907.21c-3.41-1.47-7.06-2.47-10-4.94a1.11 1.11 0 0 1 .06-.91c3.07-2.45 4.29-6.15 6.2-9.35 5.28-8.83 10.37-17.77 16.14-26.46-2.14 13.9-8.15 26.69-11.52 40.21zM648.14 902.4c-1.8-9-3.5-17.4-5.1-25.81-.26-1.35-1.43-3.15.17-4.07 1.85-1.06 2.45 1.15 3.27 2.16 4.19 5.1 8.17 10.36 12.4 15.42 2.27 2.73 2.58 4.76-1 6.61-3.18 1.7-6.27 3.66-9.74 5.69zM644.69 867.31c-1.32.88-2.46 1.53-3.47 2.33-1.78 1.41-3.18 1.74-3.94-1-.88-3.15-2.83-3.25-5.71-2.47-5.76 1.58-11.71 2.52-16.79 5.91-1.79 1.19-2.63.17-3.66-1-1.41-1.63.11-2.22 1-3.15 5.56-6.13 13-8.79 20.53-11.45a2.68 2.68 0 0 1 3.39 1c2.75 3.25 5.62 6.42 8.65 9.83zM578.11 870.44c-3.73 5.76-4.74 12.54-7.14 18.8-1.94 5-3.36 10.29-5.21 15.37-.7 1.92-.69 3.4.93 4.73-1.74.14-3.06-.78-4.54-1.59 2-1.11 2-3.13 2.53-4.77 3.51-10.29 6.86-20.64 10.42-30.91.32-.92-.02-4.92 3.01-1.63zM606.65 890.38c-.21-.25-.63-.51-.61-.74.39-4.29-1.45-6-5.71-4.95 1.92-1.07 4.25-3.75 5.82-2.48 2.37 1.92.48 5.37.5 8.17zM600 884.84c-.93 2.59-2.58 3.69-5.32 2.52zM578.68 876.45c-1.51-1.86-1.17-3.67.11-5.47 2.09 1.86.07 3.65-.11 5.47z" transform="translate(-486.9 -695.38)"/><path class="cls-12" d="M549.88 901.36a1.11 1.11 0 0 0-.06.91c-2 1.14-2.85-.52-4-1.57.69.11 1.44.48 2-.37zM609.31 913.24l.44 1-4 .06.18-1zM584.8 913.67l1.87.6zM559.79 907.21l.91-1.45z" transform="translate(-486.9 -695.38)"/><path class="cls-1" d="M562 812.64c5.15 7.1 10.24 4.29 15.18 1 1.68 3-.36 3.79-2.17 4.65-2.91 1.39-3.51 3-1.75 6.08 8.19 14.38 21.18 19.25 36.74 18.21 14.4-1 25.85-8.3 35.33-18.74 2.4-2.64 5.48-5.94 0-9-.85-.48-1.12-1.61-.22-3.35 3.71 4.73 8.54 6.44 14.16 5 .33 1.62-.69 2.31-1.21 2.19-6.38-1.4-8.39 3.5-10.32 7.58-2.65 5.61-7.57 9.12-12.31 11.72-18.12 9.92-37 11.35-55.4.73-5.2-3-8.15-9.11-11.18-14.46-1.39-2.45-2.72-4.74-5.09-6.38-1.23-.81-2.47-1.79-1.76-5.23z" transform="translate(-486.9 -695.38)"/><path class="cls-7" d="M592.59 784.92c2.86 4.49 5.48 8.42 7.85 12.49.56 1 2.67 2.33.27 3.62-1.91 1-2.15-.92-2.82-1.84a40.27 40.27 0 0 1-3.09-5c-1.85-3.57-3.34-2.72-5.14.09-.92 1.44-.84 3.4-2.7 4.41-1.08.59-1.3 3.1-3.29 1.39-1.49-1.27-.08-2.6.49-3.46 2.51-3.76 5.29-7.39 8.43-11.7z" transform="translate(-486.9 -695.38)"/><path class="cls-5" d="M627.11 795.79c-2.42 0-3.27 1.59-4.08 2.92s-1.29 2.74-2.94 3.61c-1.23.64-2.21 1-3 0s.39-1.74 1-2.42c2.59-2.87 4.24-6.46 7.46-8.88 1.46-1.08 2.1-1.79 3.29.14 2 3.26 4.27 6.37 6.31 9.61.56.89 2.51 1.82.58 3.12s-2.77-.66-3.57-1.57c-1.15-1.32-1.65-3.19-2.68-4.64a10 10 0 0 0-2.37-1.89z" transform="translate(-486.9 -695.38)"/><path class="cls-7" d="M617.42 892.08c-.36 1.6-1.21 2.76-2.93 2.68a2.57 2.57 0 0 1-2.57-2.45 2.59 2.59 0 0 1 2.59-2.9c1.76-.12 2.49 1.16 2.91 2.67z" transform="translate(-486.9 -695.38)"/><path class="cls-6" d="M617.37 905.38c-.31 1.44-1.11 2.57-2.58 2.62a2.68 2.68 0 1 1 .14-5.33 2.78 2.78 0 0 1 2.44 2.71z" transform="translate(-486.9 -695.38)"/></svg>