<svg id="Layer_1" data-name="Layer 1" xmlns="http://www.w3.org/2000/svg" viewBox="0 0 360.18 97.41"><defs><style>.cls-1{fill:#0f0d0e}</style></defs><path class="cls-1" d="M849.07 532.9H818.8a1.42 1.42 0 0 0-1.41 1.42v14.8a1.41 1.41 0 0 0 1.41 1.41h11.81v18.39s-2.65.9-10 .9c-8.65 0-20.73-3.16-20.73-29.72s12.6-30.1 24.41-30.1c10.22 0 14.63 1.8 17.43 2.67a1.42 1.42 0 0 0 1.69-1.39l3.38-14.3a1.31 1.31 0 0 0-.54-1.1c-1.14-.81-8.08-4.7-25.62-4.7-20.21 0-40.93 8.6-40.93 49.92s23.73 47.49 43.72 47.49c16.56 0 26.61-7.08 26.61-7.08a1.21 1.21 0 0 0 .45-1.07v-46.12a1.42 1.42 0 0 0-1.41-1.42zM1005.05 496.16a1.41 1.41 0 0 0-1.4-1.42h-17a1.43 1.43 0 0 0-1.42 1.42v32.94h-26.59v-32.94a1.42 1.42 0 0 0-1.41-1.42h-17a1.42 1.42 0 0 0-1.41 1.42v89.18a1.42 1.42 0 0 0 1.41 1.43h17a1.42 1.42 0 0 0 1.41-1.43V547.2h26.56l-.05 38.14a1.43 1.43 0 0 0 1.41 1.43h17.09a1.41 1.41 0 0 0 1.4-1.43zM881.23 507.87a11 11 0 1 0-11 11.1 11 11 0 0 0 11-11.1zM880 566.53v-41.16a1.42 1.42 0 0 0-1.41-1.43h-17a1.62 1.62 0 0 0-1.47 1.59v59c0 1.73 1.08 2.25 2.47 2.25h15.31c1.68 0 2.09-.83 2.09-2.28zM1069.82 524.08h-16.91a1.42 1.42 0 0 0-1.41 1.42v43.73a19.09 19.09 0 0 1-10.39 3.14c-6.1 0-7.72-2.76-7.72-8.73V525.5a1.41 1.41 0 0 0-1.4-1.42h-17.17a1.42 1.42 0 0 0-1.41 1.42v41c0 17.74 9.89 22.08 23.48 22.08 11.16 0 20.15-6.16 20.15-6.16a34.48 34.48 0 0 0 .63 3.63 1.48 1.48 0 0 0 1.24.77l10.92-.05a1.42 1.42 0 0 0 1.41-1.42V525.5a1.42 1.42 0 0 0-1.42-1.42zM1116 522.08a31.86 31.86 0 0 0-16.14 4.28v-30.2a1.41 1.41 0 0 0-1.4-1.42h-17.09a1.42 1.42 0 0 0-1.41 1.42v89.18a1.42 1.42 0 0 0 1.41 1.43h11.86a1.4 1.4 0 0 0 1.23-.76 27.09 27.09 0 0 0 .72-4.11s7 6.62 20.22 6.62c15.53 0 24.44-7.88 24.44-35.36s-14.18-31.08-23.84-31.08zm-6.67 50.24a20.3 20.3 0 0 1-9.84-2.84v-28.24a22.46 22.46 0 0 1 8.74-2.84c6.09-.54 12 1.3 12 15.83 0 15.31-2.65 18.34-10.86 18.09zM929 523.94h-12.79v-16.89c0-.64-.33-1-1.07-1H897.7c-.68 0-1 .3-1 1v17.45s-8.73 2.11-9.32 2.28a1.41 1.41 0 0 0-1 1.36v11a1.42 1.42 0 0 0 1.41 1.43h8.93v26.33c0 19.6 13.74 21.53 23 21.53a39.16 39.16 0 0 0 10.14-1.67 1.33 1.33 0 0 0 .81-1.28v-12.07a1.44 1.44 0 0 0-1.41-1.42c-.75 0-2.65.3-4.62.3-6.28 0-8.4-2.92-8.4-6.7v-25.07H929a1.42 1.42 0 0 0 1.41-1.43v-13.73a1.41 1.41 0 0 0-1.41-1.42z" transform="translate(-779.7 -491.21)"/></svg>