<svg id="Layer_1" data-name="Layer 1" xmlns="http://www.w3.org/2000/svg" viewBox="0 0 920.71 357.48"><defs><style>.cls-2{fill:#5e5e5e}.cls-3{fill:#636363}.cls-4{fill:#5c5c5c}.cls-5{fill:#606060}.cls-6{fill:#626262}.cls-7{fill:#868686}.cls-8{fill:#4c4c4c}.cls-9{fill:#3d3d3d}.cls-13{fill:#e7c64b}</style></defs><path d="M450.13 441.64c-1.24 10.65-2.23 21.39-5.92 31.51-1.88 5.14-6.21 7-11.66 6.11-15.08-2.3-30.27-4.12-45.18-7.23-6.79-1.41-10.23 2.83-14.5 5.63-6.76 4.43-12.66 10.21-19.57 14.34-5.49 3.29-7.54 7.52-8.39 13.48-2.05 14.28-4.6 28.49-7 42.73-7.87 8.18-17.21 3.73-26.08 3-7.24-.62-14.19-3.37-21.57-3-2-2.9-5.17-1.58-7.8-1.94-8.92-1.2-15-6.4-14-13.09 1.59-11 3.7-21.9 5.59-32.85.84-.14 1.95-.45 1.83-1.31-.66-4.71 1.83-8.85 2.21-13.36.35-4.18 7.3-10.43 10.64-8.9 5.77 2.65 11.61 1.16 17.4 1.56.09.87.39 1.94 1.29 1.84 5.85-.63 11.12 2.85 17 2.28a13 13 0 0 1 6.18 1.1c3.62 1.44 7.93 2 11.42-.39 10.19-7 19.14-15.69 29.91-22 2.44-1.42 5.77-3.67 5.73-6.48-.08-5.07 1.89-9.62 2.6-14.44s1.08-9.74 2.14-14.44c1.57-7 2.86-13.94 3.88-21 3.75.46 7.08-3 10.54-1.93 9.16 2.93 18.79 3.1 28.1 5.2 6.27 1.41 12.7 2.14 18.92 4.14 7.13 2.29 10.18 6.75 7.64 13.74-1.87 5.27-1.42 10.43-1.35 15.7z" transform="translate(-205.98 -203.63)" fill="#fbbb07"/><path class="cls-2" d="M749.58 369.49l-1.45 4.12c-3.71.07-2.47 2.94-2.48 4.77-.07 28.89 0 57.78-.07 86.66a11.28 11.28 0 0 0 1.16 5.78c-15.08.89-30.17.14-45.25.38-2.88.05-4.18-2.4-6.23-3.69-7-4.41-8.78-10.56-8.61-18.82.59-27.22.09-54.46.35-81.69 0-5-1.36-7.08-6.31-6.48.45-.83 1.23-.92 2.06-1s2.78.65 2-1.48c-.57-1.54-1.5-.14-2.32 0a31.69 31.69 0 0 0-8.74 2.5c-.12-1.06.3-2.57-1.28-2.7-2-.17-1.55 1.56-1.68 2.75-1.39.27-2.9-1.88-4.27.44-1.17 2 .64 2.5 1.29 3.61-3.07 3.39-2.07 8.48-5 11.92-2.79-2-1.76-4.91-1.43-8.06-2.55 1.16-4.3 2.62-3.33 4.73s1 5.58 4.77 5.3c3.37 1.86.79 4.69.81 6.86.24 26 .08 52 .25 78.05 0 3.18-.6 5.6-3 7.54-13.63.09-27.26.15-40.89.29-1.7 0-2.68-1-3.92-1.84-7.6-5.06-10.49-11.54-10.23-21.17.8-29.09 0-58.22.44-87.32.22-14.16 5.56-26.8 15-37.52 2.23.13 4 2.55 6.53 1.18 0 1.94-1.72 2.27-2.92 3.07-1.69-.9-.73.65-1 1.07l-1.89 1.92c-1.33.13-2.71.24-1.08 2-.81 2.1-.7 4.67-3.05 6-.15-1.29-.68-2.2-2.18-1.78a2.06 2.06 0 0 0-1.65 2.1c.09 1.94 1.69 1.51 2.89 1.67-2.58 7.78-5.6 15.37-5.37 23.88.08 2.93.4 5.88.39 8.84-.15 25.11-.08 50.23-.08 75.34 0 2.54-.4 5.34 3.65 4.68 9 0 18-.25 26.94.12 4.59.19 5.46-1.42 5.43-5.67q-.28-42.17-.06-84.33c0-10.21 8.36-19.42 18.4-21.32 10.88-2.07 24.19 5.32 26.59 13.38-.74.37-.77.73 0 1.07l.18.25-.19.24.92 1.47.09 1.66-.29 2.32c-4.62.29-2.48 3.86-2.69 6-.19 2-1.21 5 2.73 5 0 24.55.06 49.1.19 73.64 0 1.74-1.24 4.12 1.5 5.17 1 1.22 2.37 1 3.68 1 8.82 0 17.64-.21 26.45.06 3.67.12 4-1.46 3.95-4.41q-.16-42.42-.12-84.84c0-9.54 5.44-17.2 14.47-20.52 3.2 3.79 9.14 5.22 12.48 3.31-2.24-3.22-7.11-.66-9.49-4.21a18.68 18.68 0 0 1 12.2.08c11.13 3.43 16.51 11.44 17.56 22.73-3 .81-1.74 3.26-1.75 5-.09 24.63-.07 49.25-.08 73.88-4.48-.44-5.09 2.6-3.35 5.16 1.52 2.23 0 3.21-.83 4.66 2.21.33 3.46-.21 4.18-1.8l1.84-.06c1.3 1.59 3.1.9 4.66.91 9.49.07 19 .05 28.47.06-.16 1.79.64 3.23-2.82 3.64-5.29.62-11-1-16 2.26-1.05.68-2.81.19-4.19-.81-2.8-2-6.08-.83-9.16-.91-1.19 0-1.69.9-1.63 2.05a1.75 1.75 0 0 0 2 1.75 11.25 11.25 0 0 0 3.95-.2c2.49-.93 4.25.08 4.61 2.22.52 3.05 2.32 3.07 4.62 3.06q13.47-.09 26.94 0c1.47 0 3.41-.24 4.32.56 4.55 4 4.39.93 4.39-2.61q-.06-43.65 0-87.3c0-1.16.35-2.66-.23-3.42-2.49-3.26-1.14-6.2.29-9.23a30.92 30.92 0 0 1 1.82 11.6c.11 30.12 0 60.24.16 90.36 0 4.09-1.31 5-5.13 4.93-10.81-.24-21.66-.51-32.44.07-7.16.38-12.7-1.45-17.68-6.61-3.14-3.25-5.09-6.11-5-11.05.31-28.12.14-56.25.14-84.37 0-2.83.09-5.66-.91-8.38-.53-4.26-3.93-1.72-5.93-2.51-.65-.95-1.28-.95-1.92 0l-1 .06c-1.6-1.52-1.8-.26-2 1l.15 2.68-3.87 2.74-1.3-1.53c-2-3.48-2-3.48-5.85-1.43l4.88 1.54c-1.04 1.84-3.67 3.44-1.15 5.93zm-103.22 86.3c-.72-.09-1.32 0-1.46.88-.25 1.48 1.18 1.88 1.91 2.63.32.34 1.62-.16 1.72-1.22.14-1.55-1.2-1.76-1.8 1.42a2.27 2.27 0 0 0-1-.06c-.55.18-1.37.43-1.49.82-.25.87.55 1 1.2.92s1.06-.67.92-5.39zM660.71 424v-9-22.91c0-1.24.52-3.06-1.25-3.33-2-.3-2.14 1.66-2.6 3a4.29 4.29 0 0 0-.11 1.48c.56 20.71-1.21 41.45 1 62.13.14 1.35-.65 3.59 1.51 3.56s1.44-2.26 1.45-3.6c.02-10.33 0-20.84 0-31.33zm43.9 37.69A16.19 16.19 0 0 0 703 458c-.54-.76-1.46 0-2.07.58-1.47 1.37-1.59 2.8-.26 4.34a3.15 3.15 0 0 1 .72 2.74c-.19 1.14-3 2.55-.35 3.3 1.91.55 2.15-2 2.56-3.52.34-1.07.61-2.19 1.01-3.72zm-43-105.21c1-.16 2.84.3 2.57-1.29-.36-2.14-2.81-1.81-4.38-2.44a1.3 1.3 0 0 0-1.87 1.45c.27 2.16 1.97 2.3 3.67 2.31zm73 104.82c1.42-.08 2.58-.6 2.75-2.19.14-1.3-.79-1.74-1.87-1.66-1.47.11-3.2.36-3.38 2.1-.11 1.45 1.31 1.71 2.54 1.78zm-37-2.93c-.1-1.08 0-3.1-1.18-2.64s-2.05 2.47-2.56 4c-.38 1.12.78 1.62 1.88 1.55 1.91-.14 1.86-1.55 1.91-2.88zm-72.45-1.18a4.3 4.3 0 0 0-5.18 1.35c-.16.19.21 1.22.36 1.22 2.08.11 3.32-1.46 4.87-2.54zm139.56-102.56c1.34 1.06 2.4 2.3 5.08.9-1.2-.57-1.84-.93-2.52-1.2s-1.47-.85-2.56.3zM623.65 467.11l-1.44 1.08c.25.33.44.84.75.93.61.19 1.31.06 1.27-.8-.01-.4-.36-.78-.58-1.21zm130.77-108.42c-.45-.42-.71-.87-1-.93s-1.06.12-1.19.39c-.34.71.14 1.18.85 1.17.35 0 .73-.32 1.34-.63zm-62.76 91.89c-.43-.27-.84-.73-1.09-.65a1.3 1.3 0 0 0-.72 1c0 .67.4 1.22 1.14.94.29-.14.4-.76.67-1.29zm-38.33-87.35c-.27-.12-.61-.39-.81-.32s-.26.51-.38.79c.27.12.61.4.81.32s.26-.51.38-.79zm36-8.44c-.11-.28-.16-.71-.35-.8s-.55.17-.83.28c.11.28.15.72.35.8s.5-.17.8-.28zm-24.87-4.85l-.36.83c.27.12.61.39.81.31s.26-.51.38-.78zm106.86 18c-.11.28-.23.55-.35.83.27.12.61.39.81.31s.26-.51.38-.78zM725 457.66c.28.12.61.4.81.32s.26-.51.38-.79c-.27-.12-.61-.4-.81-.32s-.25.51-.38.79zm-44.08-110.5c.12-.28.39-.62.31-.82s-.5-.25-.78-.37c-.12.28-.39.61-.31.81s.52.22.79.38zm90.89 112.28a5.79 5.79 0 0 0-.23-.74s-.38 0-.42.12a4.3 4.3 0 0 0-.16.81zm-14.05-114.66a1.73 1.73 0 0 0-.42.14s.06.24.1.36a1.11 1.11 0 0 0 .41-.14s-.06-.23-.09-.36zM735 359.9l.2-.67-.37.11zm-71.95-13.8l-.66-.2.1.37z" transform="translate(-205.98 -203.63)"/><path class="cls-3" d="M627.72 324.54c-2.49 1.37-4.3-1.05-6.53-1.18 17.65-23.35 55.22-30.78 80.55-15.12 7.1 4.39 11.62 4.74 19.26.34 25-14.36 49.64-10.44 72.54 5.56A80.1 80.1 0 0 1 826 360.5a33.57 33.57 0 0 1 .54 3.9c-1.43 3-2.78 6-.29 9.23.58.76.23 2.26.23 3.42v87.3c0 3.54.16 6.58-4.39 2.61-.91-.8-2.85-.55-4.32-.56q-13.47-.07-26.94 0c-2.3 0-4.1 0-4.62-3.06-.36-2.14-2.12-3.15-4.61-2.22a11.25 11.25 0 0 1-3.95.2 1.75 1.75 0 0 1-2-1.75c-.06-1.15.44-2.08 1.63-2.05 3.08.08 6.36-1.12 9.16.91 1.38 1 3.14 1.49 4.19.81 5-3.22 10.71-1.64 16-2.26 3.46-.41 2.66-1.85 2.82-3.64.16-9.29.4-18.59.47-27.88.14-19.94.2-39.88.3-59.82 1.94-3.22 2.17-6.4-.26-9.51a.65.65 0 0 1 .13-.83c.55-1.48.23-2.49-1.48-2.76-2-8-5.87-15.06-10.39-21.83 1.81-1.25 1.3-2.3-.21-3.39-4.46-3.2-6.45-9.19-12.27-10.89-1.44-.42-1.2-1.75-1.26-2.87.35-.26 1.39.46 1.07-.75l-1.05.76c-4.86.37-8.52-3.15-13-4-22.93-7.34-43.16-2.23-61.13 13.27a91.33 91.33 0 0 0-18.76-11.27c0-1.25-.47-2.39-1.76-2.71-11.7-2.88-23.41-3.71-35.21-.34-10.37 2.99-19.06 8.78-26.92 16.02zm183.79 128.09l-.31.22.56.26c0-.1.11-.25.07-.31s-.21-.12-.32-.17zM1044.66 467.43l-.21.16-.21-.16c.06-1.7-1.23-2.28-2.46-2.72-10.15-3.66-18.88-9.66-27.07-16.5-1.63-1.36-4.12-2.63-3.06-5.63.39-1.1.42-2.21-1.16-1.66-2 .69-2.43-1-3.6-1.74-3-1.84-2-6.46-5.64-7.73 1-.16 2-.39 1.63-1.7-.86-2.84 1.32-2.14 2.68-2.41.79.83 1.6 1.65 2.36 2.5 13.07 14.64 29 23.42 49 23.55 14.93.1 29.86 0 44.79 0 1.47 0 3 .34 4.12-1.11 1.48-.18 3.61 5 4 .6.89-10.29.39-20.72.18-31.09-.06-2.78-1.8-4.21-4.71-2.43l-48.14-.28c-.36-1.83-1.82-1.53-3.12-1.68-5.44-.63-9.73-3.61-13.86-6.88.83-1.09 2.47-2.3 2.33-3.25-.23-1.52-2.14-.63-3.32-.82 0-5.64.2-11.29 0-16.92-.13-4 1-5.71 5.15-4.09-.32 4.3-1 8.55-.53 12.91 1 10 4.11 13.11 14.23 13.18 17 .12 33.9.16 50.85-.07 4.21-.06 6.84 1.44 9.87 4.32 6.12 5.85 8.45 12.31 7.85 20.77-.72 10.09-.29 20.27-.1 30.4.06 3.26-.91 4.23-4.2 4.21-20.44-.1-40.88 0-61.32.08a18.58 18.58 0 0 1-5.8-1.16c-2.75-3.83-6.85-2.42-10.53-2.65z" transform="translate(-205.98 -203.63)"/><path class="cls-4" d="M581.86 560.36a12.55 12.55 0 0 1-6.06-.14c-1.33-1.63-2.65-1.64-4 0-3.45 1.19-5 0-4.8-3.68.16-4 0-8 0-12q0-167.91-.11-335.8c0-4.32 1.33-5.49 5.32-5.07 3.13.32 6.31.14 9.47.18 0 1.16.1 2.33.1 3.49q.08 176.53.08 353.02zm-11-179.1v169.22c0 4.38 1.61 5.82 5.13 4.7 3.1-1 1.79-3.63 1.79-5.52q.11-168.21.06-336.42a16.67 16.67 0 0 1 0-2c.33-3-1.29-3.62-3.91-3.58-4.29.06-3 3.2-3 5.39q-.15 84.1-.11 168.21z" transform="translate(-205.98 -203.63)"/><path class="cls-5" d="M963.34 304.61c3-1.61 3.5 1.7 4.9 2.77 6.09 4.65 10 10.15 9.24 18.77-1.08 12 .5 24.06-.7 36.08-2 .1-4 .28-5.95.29-16.25 0-32.51 0-48.76.08-3.08 0-6.66-.71-8.67 2.87-10.48 3.89-15.52 12.39-18.9 22.3-1.65.73-.1 2.66-1.59 3.75-3.89 2.84-3.95 5-.76 7.76a2.66 2.66 0 0 1 1.07 3.24c-.8 3-.06 6 4.15 6v1.98c-1.42.12-3-.45-4.07 1.08-3.7-1-5.84-3.81-8.26-6.54s-.84-6.52-3.21-8.65c-2.78-2.52-3.29-5.41-3.53-8.87-.29-4.34 1.49-8.89-1.07-13.05.74-4.34 2-8.48 4.77-12 3-.17 5.34-1.39 6.32-4.36s3.2-3.8 6.06-3.53l.41.24-.42-.23-.63-3.63h.18c1.85.75 3.39 1 3.13-1.84v.16c17.92.09 35.85.25 53.78.16 2.54 0 5.1-1.21 7.61-2a3.73 3.73 0 0 0 2.87-4.06c-.1-10 0-19.93 0-29.89 0-1.77-.43-4-2.39-3.61-3.15.63-6.18-.26-9.25.09-11.24 1.27-22.54.7-33.78.27-3-.11-6.65.47-9.55-1.61 14.89 0 29.79.27 44.66-.2 4.15-.18 9.39 1.1 12.34-3.82z" transform="translate(-205.98 -203.63)"/><path class="cls-6" d="M1044.33 385.5c-4.1-1.62-5.28.08-5.15 4.09.2 5.63 0 11.28 0 16.92-1.84.07-3.84.22-4.92-1.61-2.07-3.5-4.88-6.91-5.71-10.72-2-9.26-2.43-18.68 1.7-27.68 1.34.48.53 2.3 2 3.25-.18-2 .58-3.85-1.92-4.32l.93-.92c3.28-4.93 8-8.68 11-13.86a18.48 18.48 0 0 1 11.39-4.17c17.19-.14 34.37 0 51.56 0 3.93.59 5.12-1 5-5-.27-10.3-.09-20.61-.09-30.92 2.33-1.19 5.19-1.48 6.79-4 2.71 2.91 5.39 5.85 8.15 8.7 1.3 1.34 1.37 2.91 1.37 4.6 0 13.11-.12 26.23 0 39.34 0 3.3-1.14 4.92-4.36 5.12-.82-1.92-2.52-1.88-4.21-1.88H1073c-1.54 0-3.53-.58-3.84 2h-3c-.68-1.32-1.94-.9-3-1-3.76.4-7.25-.23-11.11 2.43-4.69 3.23-4.7 9.84-10.26 11.89-.73.26-.21 1.69.53 2.05 1.55.73 1.7 2.35 2.56 3.5a2.16 2.16 0 0 1-.55 2.19z" transform="translate(-205.98 -203.63)"/><path class="cls-2" d="M854.07 330.36l1.78-1.91c3.48-.05 5.43-1.69 5.5-5.29l.78-.69c2.33-.16 4.36-.69 4.38-3.63a59.86 59.86 0 0 1 30.91-13.17v.9c-.79.1-1.67.18-1.66 1.22a1.31 1.31 0 0 0 .79 1c.89.14.78-.67.88-1.24h3v3c-7.38 1.54-14.91 2.33-21.42 7-2.28 1.63-4.75 4.66-8.59 2.86-.73-.34-2.13.71-1.76 1.84.75 2.27-1.25 2.7-2.18 3.87-3.64 4.53-9.71 7.12-10.89 13.62l.09-.11c-1.88 1.14-6.3.73-3.06 5-8 15-13 30.56-10.15 47.9 2.73 16.66 9.47 31.15 21.91 42.83 6.25 5.88 13.61 10 21.15 13.86.22 5.24 2.64 4.22 5.5 1.93 4.22.73 8.42 2 12.65 2.09 18.23.26 36.47.16 54.71.19h2.19c-1.86 5-3.46 5.81-7.46 3.57a4.14 4.14 0 0 0-1.87-.55c-13.61 0-27.26-.51-40.83.21-6.21.34-12.22 2.47-18.48-.07-1.89-.77-3.93.66-5.26 2.19-2.25 2.62.07 2.48 1.76 2.62.36.39.57 1.29 1.3.37l-1.29-.37c.91-1.74 3.47-4.32 3.65-1.34.35 5.85 4 2.42 5.39 2.39 4-.07 8.31-2 9.09 4.38a2 2 0 0 0 1.22 1.33c3.72.71 8.05 2.8 11.15.84 5.34-3.37 10.84-2.46 16.35-2.56 8.47-.16 17 0 25.42-.08a16.68 16.68 0 0 1 7.24 1.47c5.36 2.43 7.32 1.32 7.36-4.46.06-10.13 0-20.27.05-30.4 0-1.63-.93-3.85 1.77-4.52v41c-.11.09-.32.18-.31.25a3.52 3.52 0 0 0 .21.7c-1.49 1.64-3.43.75-5.12.76-19.42.1-38.88.88-58.24-.11-18.88-1-35.29-9-49.14-22l3.92-2.6c.76-.17 1.88-.09 2.21-.56.74-1.07-.59-1-1.09-1.46-3.85-3.55-5.21 1.1-7.62 2.24-1.88-1.89-4.45-3.21-5-6.18 1.51-.09 2.24 2.06 4.36 1.24-1-2.42 1.08-5.65-2.35-7.47-2.05 1.65-1.8 4-2 6.24-4.71-1.55-6.27-6.23-8.33-9.72-16.83-28.6-19.7-58-3.55-88 1.4-2.6 2.67-5.33 5.06-7.27a5.9 5.9 0 0 0 4.55-1.14c-1.8-1.14 4.88-3.5-.63-4.01zM875.26 454c2.26.1 3.85 1.25 5.32-.49.17-.2-.32-1.39-.76-1.61-1.82-.9-2.98.1-4.56 2.1zm-4.09-4.22l-.36.83c.28.12.62.39.82.31s.25-.51.37-.79zM902 465.12c-.27-.11-.61-.38-.81-.31s-.26.51-.38.79c.28.12.62.39.81.31s.3-.51.38-.79zm-50.79-37.39l-.52.74a3.23 3.23 0 0 0 .79.15c.1 0 .29-.31.26-.36a3.79 3.79 0 0 0-.49-.53z" transform="translate(-205.98 -203.63)"/><path class="cls-3" d="M940.92 552.23h-11c-3.69 0-5.91-1.94-5.87-5.84s2.09-5.85 5.87-5.94c5.48-.12 11-.11 16.44-.17a17.46 17.46 0 0 0 3.48-.13c1.71-.37 4.12-.41 4.15-2.74 0-2.61-2.4-2.92-4.36-3-3.48-.21-7 0-10.46-.25-10.31-.65-15.82-6.69-15.14-16.42.47-6.89 4.27-11.65 11.08-12.89 8.71-1.57 17.56-.89 26.34-.52 3.74.15 4.84 3 4.77 6.35-.08 3.68-2.11 5.48-5.64 5.54-5.65.1-11.3 0-17 .07a24.77 24.77 0 0 0-4.95.44 2.6 2.6 0 0 0-2.31 2.8c.12 1.42 1.3 1.94 2.45 2.07 2.47.27 5 .35 7.44.5s5 .09 7.46.46c8.39 1.25 12.74 6.58 12.61 15.19-.12 8.22-4.6 13.32-13 14.18-4.11.42-8.29.07-12.44.07z" transform="translate(-205.98 -203.63)"/><path class="cls-6" d="M888.42 461.38c-1.69-.14-4 0-1.76-2.62 1.33-1.53 3.37-3 5.26-2.19 6.26 2.54 12.27.41 18.48.07 13.57-.72 27.22-.23 40.83-.21a4.14 4.14 0 0 1 1.87.55c4 2.24 5.6 1.48 7.46-3.57 0-10.08 0-20.16-.15-30.24 0-1.95.83-4.64-2.7-4.67v.27a5.53 5.53 0 0 0-1.06-.83c-.43-.19-.65.15-.29.46a3.52 3.52 0 0 0 1.27.41c-1.37 1-2.86.64-4.34.42v-4.8h3c1.82.65 3.61 1.39 5.46 1.9.93.26 2.06.13 2.32-1.09s-.69-1.62-1.73-1.77c.06-.51.13-1 .19-1.52 1.13-.32 2.43-.55 3.3.25A69.75 69.75 0 0 1 977 425.1c.52.79.1 2.21.12 3.33-2.7.67-1.75 2.89-1.77 4.52-.07 10.13 0 20.27-.05 30.4 0 5.78-2 6.89-7.36 4.46a16.68 16.68 0 0 0-7.24-1.47c-8.47.1-17-.08-25.42.08-5.51.1-11-.81-16.35 2.56-3.1 2-7.43-.13-11.15-.84a2 2 0 0 1-1.22-1.33c-.78-6.38-5.11-4.45-9.09-4.38-1.39 0-5 3.46-5.39-2.39-.18-3-2.74-.4-3.65 1.34z" transform="translate(-205.98 -203.63)"/><path class="cls-2" d="M1116.92 306.66c-1.6 2.48-4.46 2.77-6.79 4l-4-.15c-.41-2.45-2.35-1.88-3.89-1.88h-41.07c-1.53 0-3.49-.6-3.93 1.85a66.93 66.93 0 0 0-17.3 2.46c-1.71.44-4.11.33-4.62 2.91l.06-.17c-.85 0-1.76-.08-2.16 1q-28.32 12.6-38.54 41.86c-5.85 16.74-5.18 33.4.47 50-1.33 1.38-.34 1.71.87 1.95.49 1.46 2.29 2.83.27 4.44-.94 1.36-1.53 2.71 0 4.3 1.38-1.63-.35-2.93.07-4.26 3.5.09 3 3.59 4.62 5.34-1.15.3-3 .14-1.89 2.21.9 1.6 1.86 3.68 4.36 1.92l2.16 2.94c-1.36.27-3.54-.43-2.68 2.41.39 1.31-.66 1.54-1.63 1.7a1.88 1.88 0 0 0-1-2c-5.78-6.68-10.57-13.78-10-23.21 0-.73.34-2-.8-2-3-.16-2.75-2.72-3-4.35-1.87-13.79-2.45-27.63 2.3-40.95 3.29-9.21 6.49-18.62 14.51-25.26 1.16-1 2.72-3.07.92-5.15a6.39 6.39 0 0 1 3-3c.16.72.34 2.08 1.28 1.1 1.52-1.57 3.64-2.9 3.64-5.52 13.83-11.94 30.21-16.84 48.13-17 17.38-.14 34.77.15 52.15.19a5.72 5.72 0 0 1 4.49 2.32z" transform="translate(-205.98 -203.63)"/><path class="cls-3" d="M1047.7 533c3.87-7.85 7.38-14.93 10.86-22 3.09-6.27 6.22-8.28 9.94-6.31s4.08 5.11 1.06 11.33c-5.07 10.46-10.29 20.83-15.4 31.27-1.4 2.86-3.19 5.18-6.65 5.18s-4.85-2.44-6.14-5.07c-5.4-11-10.87-22.05-16.2-33.12-2.3-4.77-1.51-8.25 2.12-9.66 4.37-1.71 6.81.69 8.61 4.41 3.74 7.68 7.58 15.37 11.8 23.97zM995.32 533c4.15-8.39 7.69-15.53 11.23-22.66a27.42 27.42 0 0 1 1.88-3.51c2-2.83 4.65-3.81 7.78-2.05s4 4.27 2.52 7.59q-8.37 18.68-18.1 36.66c-2.56 4.74-8.24 4.73-10.73-.12-6.15-12-11.95-24.12-17.78-36.25-1.74-3.61-.71-6.67 3-8.18 3.48-1.4 6.14.08 7.77 3.39 3.99 7.99 7.92 15.99 12.43 25.13zM1100.09 532.89c3.56-7.16 6.61-13.36 9.71-19.53a50.58 50.58 0 0 1 3.81-7 5.22 5.22 0 0 1 7.06-1.78c2.85 1.44 4.39 3.9 3.08 7-5.5 13-12 25.55-18.68 38a5.79 5.79 0 0 1-10.27-.27c-6.26-12.28-12.19-24.73-18.09-37.18-1.53-3.22-.26-6 2.86-7.48 3.47-1.69 6.19-.35 7.86 2.93 4.07 7.99 8.03 16.03 12.66 25.31z" transform="translate(-205.98 -203.63)"/><path class="cls-7" d="M581.86 560.36v-353c0-1.16-.07-2.33-.1-3.49 2.73.75 1.47 3 1.47 4.51q.09 88.05 0 176.12v171.13c-.02 1.6 1.16 3.78-1.37 4.73z" transform="translate(-205.98 -203.63)"/><path class="cls-8" d="M1004.21 328.51c1.8 2.08.24 4.19-.92 5.15-8 6.64-11.22 16-14.51 25.26-4.75 13.32-4.17 27.16-2.3 40.95.22 1.63 0 4.19 3 4.35 1.14.06.84 1.28.8 2-.6 9.43 4.19 16.53 10 23.21a2.14 2.14 0 0 0 1 2c3.63 1.27 2.61 5.89 5.64 7.73 1.17.72 1.6 2.43 3.6 1.74 1.58-.55 1.55.56 1.16 1.66-1.06 3 1.43 4.27 3.06 5.63 8.19 6.84 16.92 12.84 27.07 16.5 1.23.44 2.52 1 2.46 2.72-23.24-6.95-40-21.91-51.45-42.82-17.21-31.5-13.12-69.48 9.59-94.44a24 24 0 0 1 1.8-1.64zM662.73 376.5c2.94-3.44 1.94-8.53 5-11.92 2.23-.45 2.67-2.2 3-4.05h3a31.69 31.69 0 0 1 8.74-2.5c.82-.13 1.75-1.53 2.32 0 .79 2.13-1.11 1.34-2 1.48s-1.61.22-2.06 1c-10 4.16-13.18 8.92-13.17 19.78v84.74c0 6.35 0 6.35-6.76 5.88 2.45-1.94 3.07-4.36 3-7.54-.17-26 0-52-.25-78.05 0-2.17 2.56-5-.81-6.86 0-.64 0-1.3-.01-1.96z" transform="translate(-205.98 -203.63)"/><path class="cls-5" d="M953.34 414.43v4.8l-40-.08c-1.67-3.34-4.7-1-7-1.69-1-.28-2.63.36-2.48-1.48.12-1.61 1.1-1.92 2.78-1.73s4.61 1.38 4.71-2.31h2.08c0 3.3 2.47 2.45 4.27 2.46 11.89.05 23.77.03 35.64.03z" transform="translate(-205.98 -203.63)"/><path class="cls-8" d="M911.36 411.94c-.1 3.69-2.89 2.51-4.71 2.31s-2.66.12-2.78 1.73c-.15 1.84 1.49 1.2 2.48 1.48 2.32.65 5.35-1.65 7 1.69-5.12.27-10.16.23-15.09-1.64-14.66-5.55-25.8-24.55-21-43.09 2.56 4.16.78 8.71 1.07 13.05.24 3.46.75 6.35 3.53 8.87 2.37 2.13.85 6 3.21 8.65s4.56 5.54 8.26 6.54c.33 1.74 1.58 2.79 3.13 2.38s.7-2.26.94-3.46v-1.81c4.18 2.95 9.12 2.92 13.96 3.3zm-9.77 3.74a1.36 1.36 0 0 0-.43.14s.06.24.1.37a1.39 1.39 0 0 0 .42-.14s-.06-.24-.09-.37zM746.74 470.82a11.28 11.28 0 0 1-1.16-5.78c0-28.88 0-57.77.07-86.66 0-1.83-1.23-4.7 2.48-4.77q-.12 45.84-.29 91.68c-.01 1.85.95 4.03-1.1 5.53z" transform="translate(-205.98 -203.63)"/><path class="cls-4" d="M963.34 304.61c-3 4.92-8.19 3.64-12.33 3.78-14.87.47-29.77.19-44.66.2l-1.87.06c-.36-.69-.72-1.38-1.09-2.07 2-1.22 4.15-1 6.31-1h41.42c1.76 0 3.7.66 5.21-.92z" transform="translate(-205.98 -203.63)"/><path class="cls-8" d="M953.34 414.43h-35.63c-1.8 0-4.29.84-4.27-2.46h43.83l-1 2.48z" transform="translate(-205.98 -203.63)"/><path class="cls-9" d="M913.4 365.47c2-3.58 5.59-2.85 8.67-2.87 16.25-.13 32.51-.06 48.76-.08 2 0 4-.19 5.95-.29-.85 3.26-3.55 2.37-5.69 2.38q-23.42.09-46.82 0a47.16 47.16 0 0 0-10.87.86z" transform="translate(-205.98 -203.63)"/><path class="cls-3" d="M1044.92 383.37c-.86-1.15-1-2.77-2.56-3.5-.74-.36-1.26-1.79-.53-2.05 5.56-2.05 5.57-8.66 10.26-11.89 3.86-2.66 7.35-2 11.11-2.43l.09 1.4c-9.38 2.91-14.65 9.92-18.37 18.47zM956.33 304.62c-1.51 1.58-3.45.91-5.21.92H909.7c-2.16 0-4.35-.21-6.31 1h-2l-.2-1.61c18.4-1.59 36.81-1.28 55.14-.31z" transform="translate(-205.98 -203.63)"/><path class="cls-9" d="M1069.19 364.53c.31-2.55 2.3-2 3.84-2h44.86c1.69 0 3.39 0 4.21 1.88z" transform="translate(-205.98 -203.63)"/><path class="cls-6" d="M897.37 408.47c-4.21 0-5-3-4.15-6a2.66 2.66 0 0 0-1.07-3.24c-3.19-2.74-3.13-4.92.76-7.76 1.49-1.09-.06-3 1.59-3.75.42 7.02-.5 14.18 2.87 20.75zM868.45 446.4l-3.92 2.6-2.53-2.38c2.41-1.14 3.77-5.79 7.62-2.24.5.47 1.83.39 1.09 1.46-.33.47-1.45.39-2.21.56l-.23-.42-.19.19z" transform="translate(-205.98 -203.63)"/><path class="cls-8" d="M761.54 358.44c2 .79 5.4-1.75 5.93 2.51-3.76-1.21-7.26-.11-10.73 1.24l-.15-2.68a2.08 2.08 0 0 0 2-1l1-.06z" transform="translate(-205.98 -203.63)"/><path class="cls-5" d="M956.31 414.41l1-2.48h2.12c.34 1.79 1.76 1.45 3 1.52 1 .15 2 .48 1.73 1.77s-1.39 1.35-2.32 1.09c-1.92-.51-3.71-1.25-5.53-1.9z" transform="translate(-205.98 -203.63)"/><path class="cls-8" d="M854.07 330.36c5.51.51-1.17 2.87.6 3.94a5.9 5.9 0 0 1-4.55 1.14 15 15 0 0 1 3.95-5.08zM1044.66 467.43c3.68.23 7.78-1.18 10.52 2.71a24.27 24.27 0 0 1-10.52-2.71zM751.57 363.4l1.3 1.53-3.29 4.56c-2.52-2.48.11-4.09 1-6a6.26 6.26 0 0 0 .99-.09zM1012.17 321.06c0 2.62-2.12 3.95-3.64 5.52-.94 1-1.12-.38-1.28-1.1a14 14 0 0 1 4.92-4.42zM861.35 323.16c-.07 3.6-2 5.24-5.5 5.29a21.29 21.29 0 0 1 5.5-5.29zM866.51 318.84c0 2.94-2 3.47-4.38 3.63a10.88 10.88 0 0 1 4.38-3.63z" transform="translate(-205.98 -203.63)"/><path class="cls-7" d="M571.82 560.23c1.33-1.65 2.65-1.64 4 0a2.68 2.68 0 0 1-4 0z" transform="translate(-205.98 -203.63)"/><path class="cls-4" d="M901.23 305c.07.54.13 1.07.2 1.61l-1 1h-3v-1-.9a5.58 5.58 0 0 1 3.8-.71z" transform="translate(-205.98 -203.63)"/><path class="cls-8" d="M962.36 413.45c-1.21-.07-2.63.27-3-1.52h3.16c-.03.51-.1 1.01-.16 1.52z" transform="translate(-205.98 -203.63)"/><path class="cls-9" d="M1063.29 364.9l-.09-1.4c1.08.12 2.34-.3 3 1z" transform="translate(-205.98 -203.63)"/><path class="cls-6" d="M977 470.34a3.52 3.52 0 0 1-.21-.7c0-.07.2-.16.31-.25 0 .32-.04.61-.1.95z" transform="translate(-205.98 -203.63)"/><path d="M353.62 433.71c-2.34 5.1-2 10.72-3 16.07-1.67 9.29-6.83 13.15-16.16 11.61q-21.63-3.6-43.3-7C282.43 453 278.58 447.86 280 439q3.61-22.87 7.47-45.72a5.74 5.74 0 0 0-1-5c-7.47-9.93-14.91-19.9-22.05-30.06a9.91 9.91 0 0 0-7.32-4.34q-19.42-3.06-38.82-6.31c-10.16-1.71-13.39-5.68-11.92-15.72 2.21-15.11 4.78-30.17 7.46-45.21 1.25-7 7-10.75 13.9-9.62q22.62 3.66 45.23 7.45c8.7 1.47 12.4 6.93 10.92 15.69-2.41 14.25-4.7 28.52-7.23 42.75a8.43 8.43 0 0 0 1.8 6.91q11.21 15.23 22.38 30.48a10.93 10.93 0 0 0 8.18 4.81c8.4.94 16.6 3.39 25.12 3.61 1.13.39 2.26.77 3.4 0 5 2.88 11 1.77 16.12 4.24h.07c4.92 5.11 4.47 11.08 3.33 17.48-1.29 7.27-3.24 14.47-3.29 21.93z" transform="translate(-205.98 -203.63)" fill="#06a4ec"/><path d="M417 223.08c4.09-2.23 8.14-2.59 12.9-1.67 14.19 2.76 28.51 4.86 42.79 7.13 7.46 1.18 11.8 6.71 10.63 14q-3.62 22.64-7.35 45.27c-1.28 7.79-6.17 11.91-14 10.79-15.29-2.21-30.53-4.81-45.75-7.47-2.67-.46-4.76-.36-7 1.27q-15.45 11.35-31 22.51c-2.19 1.57-2.42 3.85-2.79 6.13-2 12.47-4 25-6.06 37.42S363.3 373.7 351 371.65c-14.1-2.35-28.23-4.5-42.31-6.95-7.76-1.35-11.48-6.76-10.25-14.32 2.39-14.6 4.77-29.2 7.27-43.79 1.76-10.27 5.74-13.28 16.23-11.75 12.67 1.85 25.33 3.83 37.9 6.28 5.68 1.12 10 .26 14.61-3.49 7.44-6.08 15.54-11.34 23.31-17 1.57-1.15 3.54-1.91 4.39-3.89 2.73-.49 3.63-2.36 4.05-4.89 1.17-7.18 2.51-14.33 3.79-21.49.5-.35 1.41-.65 1.46-1.05a155.53 155.53 0 0 1 4.45-24.49l.44-.22c.84-.22.8-.84.66-1.52z" transform="translate(-205.98 -203.63)" fill="#ef5318"/><path d="M412.59 309.19c15 2.46 31.22 4.9 47.38 7.93 7.11 1.33 9.95 6.53 8.74 14.37-1.83 12-3.48 24-6 35.85-1.63 7.72-.7 14 4.51 20.2 6.79 8.11 12.82 16.87 19 25.46a9.1 9.1 0 0 0 6.41 4c13.78 2.22 27.53 4.55 41.25 7.11 6.06 1.13 9.45 5.95 8.54 12-2.31 15.44-4.66 30.87-7.33 46.25-1.63 9.42-6.47 12.58-15.92 11.07q-21.41-3.42-42.8-7c-9.39-1.56-12.91-6.37-11.45-15.67 2.39-15.26 4.78-30.51 7.35-45.74.3-1.79.35-3.13-.73-4.61-7.51-10.32-15-20.68-22.45-31-1.57-2.16-3.9-2.87-6.45-3.28-13.45-2.17-26.88-4.43-40.32-6.63-8.67-1.42-12.44-6.32-11.11-15q3.39-22.17 7.06-44.29c1.28-7.38 6.08-11.41 14.32-11.02z" transform="translate(-205.98 -203.63)" fill="#7eb908"/><path class="cls-13" d="M316.11 478.45l1.71.06c6 2.68 12.56 2.24 18.79 3.67a4.64 4.64 0 0 0 5.63-3.68h.06c4.31-.83 6.79-4.49 10.18-6.73 6.15-4.06 11.76-9 18.06-12.77 6.56-4 6.23-10.68 7.18-16.49 2.08-12.63 3.56-25.35 6.8-37.77a.5.5 0 0 0 .52-.1l1-.19.26.34c-1 7.05-2.31 14-3.88 21-1.06 4.7-1.42 9.63-2.14 14.44s-2.68 9.37-2.6 14.44c0 2.81-3.29 5.06-5.73 6.48-10.77 6.28-19.72 15-29.91 22-3.49 2.4-7.8 1.83-11.42.39a13 13 0 0 0-6.18-1.1c-5.86.57-11.13-2.91-17-2.28-.9.1-1.2-1-1.29-1.84zM430 406.38l3.95.28c3.28 2 7.1 1.29 10.59 2.14 7.39 1.8 10.65 7.66 9.09 17.28-.71 4.4-1.81 8.74-1.9 13.24a2.47 2.47 0 0 1-1.59 2.32c-.07-5.27-.52-10.43 1.39-15.68 2.54-7-.51-11.45-7.64-13.74-6.22-2-12.65-2.73-18.92-4.14-9.31-2.1-18.94-2.27-28.1-5.2-3.46-1.11-6.79 2.39-10.54 1.93l-.26-.34c.07-.34.13-.68.2-1a.54.54 0 0 0 .12-.52c8.49-3.95 16.73-.4 25.06.82 6.17.89 12.36 1.74 18.55 2.61zM415.89 224.83a155.53 155.53 0 0 0-4.45 24.49c-.05.4-1 .7-1.46 1.05-.22-7 2-13.68 2.6-20.56.17-1.81.72-4.33 3.31-4.98zM417 223.08c.16.68.2 1.3-.65 1.53 0-.61-.23-1.3.65-1.53z" transform="translate(-205.98 -203.63)"/><path class="cls-13" d="M280.4 476.59c8.92-4.32 17.32-.73 25.79 1.72-5.79-.4-11.63 1.09-17.4-1.56-3.34-1.53-10.29 4.72-10.64 8.9-.38 4.51-2.87 8.65-2.21 13.36.12.86-1 1.17-1.83 1.31-.65-6.11 1.24-11.9 2.23-17.81.44-2.63 3.21-3.6 4.06-5.92z" transform="translate(-205.98 -203.63)"/><path class="cls-9" d="M691.66 311.58c-20.07-5.73-38.75-3.32-55.11 10.26-13 10.77-20.46 24.66-20.91 41.74-.79 29.9-.39 59.81-.21 89.72-4 .66-3.65-2.14-3.65-4.68 0-25.11-.07-50.23.08-75.34 0-3-.31-5.91-.39-8.84-.23-8.51 2.79-16.1 5.37-23.88l.94-2c2.35-1.31 2.24-3.88 3.05-6l1.08-2 1.89-1.92 1-1.07c1.2-.8 2.91-1.13 2.92-3.07 7.86-7.24 16.55-13 27-16 11.8-3.37 23.51-2.54 35.21.34 1.26.35 1.69 1.49 1.73 2.74z" transform="translate(-205.98 -203.63)"/><path class="cls-3" d="M660.71 424v31.38c0 1.34.66 3.57-1.45 3.6s-1.37-2.21-1.51-3.56c-2.21-20.68-.44-41.42-1-62.13a4.29 4.29 0 0 1 .11-1.48c.46-1.36.64-3.32 2.6-3 1.77.27 1.25 2.09 1.25 3.33.05 7.63 0 15.27 0 22.91z" transform="translate(-205.98 -203.63)"/><path class="cls-9" d="M693.75 360.17c1.8.74 1.61 2.38 1.61 3.83q-.06 44.14-.17 88.31c-2.74-1.05-1.49-3.43-1.5-5.17-.13-24.54-.15-49.09-.19-73.64v-11z" transform="translate(-205.98 -203.63)"/><path class="cls-8" d="M776.37 365.53v86.84l-1.84.06v-8c0-24.63 0-49.25.08-73.88.02-1.76-1.2-4.21 1.76-5.02z" transform="translate(-205.98 -203.63)"/><path class="cls-3" d="M704.61 461.72c-.4 1.53-.67 2.65-1 3.76-.41 1.55-.65 4.07-2.56 3.52-2.66-.75.16-2.16.35-3.3a3.15 3.15 0 0 0-.72-2.74c-1.33-1.54-1.21-3 .26-4.34.61-.56 1.53-1.34 2.07-.58a16.19 16.19 0 0 1 1.6 3.68zM774.54 444.41v8c-.72 1.59-2 2.13-4.18 1.8.82-1.45 2.35-2.43.83-4.66-1.74-2.55-1.13-5.55 3.35-5.14zM743.62 343.62a3.4 3.4 0 0 1 3-.9c2.38 3.55 7.25 1 9.49 4.21-3.35 1.91-9.29.48-12.49-3.31z" transform="translate(-205.98 -203.63)"/><path class="cls-4" d="M693.46 362.49v11c-3.94 0-2.92-3-2.73-5 .27-2.14-1.89-5.71 2.73-6z" transform="translate(-205.98 -203.63)"/><path class="cls-3" d="M662.73 376.5v2c-3.8.28-3.81-3.22-4.77-5.3s.78-3.57 3.33-4.73c-.29 3.12-1.35 6.05 1.44 8.03zM661.6 356.51c-1.7 0-3.4-.15-3.68-2.28a1.3 1.3 0 0 1 1.87-1.45c1.57.63 4 .3 4.38 2.44.27 1.59-1.54 1.13-2.57 1.29zM734.65 461.33c-1.23-.07-2.65-.38-2.5-1.75.18-1.74 1.91-2 3.38-2.1 1.08-.08 2 .36 1.87 1.66-.17 1.59-1.33 2.11-2.75 2.19zM697.65 458.41c0 1.32 0 2.73-1.85 2.86-1.1.07-2.26-.43-1.88-1.55.51-1.49 1.35-3.46 2.56-4s1.08 1.6 1.17 2.69zM670.72 360.53c-.31 1.85-.75 3.6-3 4.05-.65-1.11-2.46-1.63-1.29-3.61 1.39-2.32 2.9-.17 4.29-.44zM617.78 338.57l-.94 2c-1.2-.16-2.8.27-2.89-1.67a2.06 2.06 0 0 1 1.65-2.1c1.5-.43 2.03.48 2.18 1.77zM751.57 363.4a6.26 6.26 0 0 1-1 .11l-4.85-1.51c3.84-2.08 3.84-2.08 5.85 1.4zM625.21 457.22c-1.55 1.08-2.79 2.65-4.82 2.57-.15 0-.52-1-.36-1.22a4.3 4.3 0 0 1 5.18-1.35zM646.36 455.79c1 .53 2.31.74 2.17 2.29-.1 1.06-1.4 1.56-1.72 1.22-.73-.75-2.16-1.15-1.91-2.63.1-.86.74-.97 1.46-.88zM764.72 354.63c1.09-1.15 1.84-.58 2.56-.3s1.32.63 2.52 1.2c-2.68 1.4-3.74.16-5.08-.9zM673.68 360.48h-3c.14-1.19-.35-2.92 1.69-2.75 1.63.18 1.19 1.69 1.31 2.75zM646.73 459.5c-.23 1-.48 1.62-1.25 1.68s-1.45-.05-1.2-.92c.12-.39.94-.64 1.49-.82a2.27 2.27 0 0 1 .96.06zM623.65 467.11c.22.43.57.81.58 1.21 0 .86-.66 1-1.27.8-.31-.09-.5-.6-.75-.93zM754.42 358.69c-.61.3-1 .63-1.37.63-.71 0-1.19-.46-.85-1.17.13-.27.8-.45 1.19-.39s.61.51 1.03.93z" transform="translate(-205.98 -203.63)"/><path class="cls-4" d="M691.66 450.58c-.27.53-.38 1.15-.67 1.26-.74.28-1.17-.27-1.14-.94a1.3 1.3 0 0 1 .72-1c.25-.05.66.41 1.09.68z" transform="translate(-205.98 -203.63)"/><path class="cls-3" d="M653.33 363.23c-.12.28-.18.71-.38.79s-.54-.2-.81-.32c.12-.28.18-.71.38-.79s.54.2.81.32zM689.3 354.79c-.29.11-.64.37-.83.28s-.24-.52-.35-.8c.28-.11.63-.37.83-.28s.24.52.35.8zM664.43 349.94l.83.36c-.12.27-.18.71-.38.78s-.54-.19-.81-.31zM771.3 367.92l.83.36c-.12.27-.18.7-.38.78s-.54-.19-.81-.31zM725 457.66c.12-.28.18-.71.38-.79s.54.2.81.32c-.12.28-.18.71-.38.79s-.52-.2-.81-.32zM758.59 358.51a2.08 2.08 0 0 1-2 1c.2-1.26.41-2.51 2-1zM621.91 330.6l-1.08 2c-1.63-1.76-.25-1.87 1.08-2zM680.93 347.16c-.27-.12-.7-.18-.78-.38s.19-.53.31-.81c.28.12.71.18.78.37s-.19.54-.31.82zM771.82 459.44l-.81.19a4.3 4.3 0 0 1 .16-.81c0-.09.41-.14.42-.12a5.79 5.79 0 0 1 .23.74zM761.54 358.44h-1.92c.64-.95 1.27-.95 1.92 0zM757.76 344.78c0 .13.13.33.09.36a1.11 1.11 0 0 1-.41.14c0-.12-.14-.33-.1-.36a1.73 1.73 0 0 1 .42-.14zM624.8 327.61l-1 1.07c.27-.42-.69-1.97 1-1.07zM735 359.9c-.09-.28-.13-.42-.17-.56l.37-.11zM663.09 346.1l-.56.17-.1-.37z" transform="translate(-205.98 -203.63)"/><path class="cls-9" d="M692.73 355.48v1.07c-.73-.34-.73-.7 0-1.07zM692.74 357c.56.33 1.1.67.92 1.47zM769.93 310.94c-8.4-1.52-16.65-3.05-25.39-1.6a57 57 0 0 0-28.82 13.48c-2 1.77-3.51 2.31-5.3 0 18-15.5 38.2-20.61 61.13-13.27z" transform="translate(-205.98 -203.63)"/><path class="cls-8" d="M769.93 310.94l1.62-1.36c4.49.84 8.15 4.36 13 4 .06 1.12-.18 2.45 1.26 2.87 5.82 1.7 7.81 7.69 12.27 10.89 1.51 1.09 2 2.14.21 3.39a66.21 66.21 0 0 0-28.36-19.79zM810.28 365.64c-.55-3.15-1.13-6.31-.26-9.51 2.43 3.11 2.2 6.29.26 9.51zM810.15 355.3c-1.82-.21-1.28-1.68-1.48-2.76 1.71.27 2.03 1.28 1.48 2.76zM784.56 313.57l1.05-.76c.32 1.21-.72.49-1.07.75zM811.51 452.63c.11.05.26.08.32.17s-.05.21-.07.31l-.56-.26z" transform="translate(-205.98 -203.63)"/><path class="cls-9" d="M1057.15 419.12c-14.68 1.56-29-10.8-32.89-28.21-2.36-10.43.15-19.75 5.76-28.5a2 2 0 0 1 1.24 2.1l-.93.92c0 .36 0 .71-.08 1.07-4.13 9-3.71 18.42-1.7 27.68.83 3.81 3.64 7.22 5.71 10.72 1.08 1.83 3.08 1.68 4.92 1.61.29 1.37-2.23 3.41 1 4.07 4.13 3.27 8.42 6.25 13.86 6.88 1.29.13 2.75-.17 3.11 1.66zM1105.83 452.32l-.54-32.92c2.91-1.78 4.65-.35 4.71 2.43.21 10.37.71 20.8-.18 31.09-.38 4.44-2.51-.78-3.99-.6z" transform="translate(-205.98 -203.63)"/><path class="cls-6" d="M1040.17 410.56c-3.22-.66-.7-2.7-1-4.07 1.18.19 3.09-.7 3.32.82.15.95-1.49 2.16-2.32 3.25z" transform="translate(-205.98 -203.63)"/><path class="cls-3" d="M570.82 381.26V213.05c0-2.19-1.24-5.33 3-5.39 2.62 0 4.24.58 3.91 3.58a16.67 16.67 0 0 0 0 2q0 168.21-.06 336.42c0 1.89 1.31 4.53-1.79 5.52-3.52 1.12-5.13-.32-5.13-4.7V475.1z" transform="translate(-205.98 -203.63)"/><path class="cls-8" d="M897.1 349.23c3.14-2.57 6.88-2.91 10.73-2.9 15.28 0 30.56-.14 45.83.11 4 .07 5-1.17 4.92-5-.28-8.46-.09-16.93-.1-25.4 0-1.78.42-3.76-2.53-3.7-19.24.4-38.57-1.41-57.69 1.3-16.24 2.31-29.32 10.86-39.82 23.4a31.8 31.8 0 0 1-2.87 2.69c1.18-6.5 7.25-9.09 10.89-13.62.93-1.17 2.93-1.6 2.18-3.87-.37-1.13 1-2.18 1.76-1.84 3.84 1.8 6.31-1.23 8.59-2.86 6.51-4.63 14-5.42 21.42-7 1.56-.2 3.63.67 4.07-1.91l1.87-.06c2.9 2.08 6.51 1.5 9.55 1.61 11.24.43 22.54 1 33.78-.27 3.07-.35 6.1.54 9.25-.09 2-.39 2.39 1.84 2.39 3.61 0 10-.06 19.93 0 29.89a3.73 3.73 0 0 1-2.87 4.06c-2.51.78-5.07 2-7.61 2-17.84.1-35.84-.06-53.74-.15zM882 362.4c2.81-5 6.34-9.2 11.75-11.5.2 1.2.41 2.41.62 3.62-2.86-.27-5 .47-6.06 3.53s-3.31 4.18-6.31 4.35z" transform="translate(-205.98 -203.63)"/><path class="cls-6" d="M897.41 410.45c-.24 1.2.7 3-.94 3.46s-2.8-.64-3.13-2.38c1.05-1.53 2.66-.96 4.07-1.08z" transform="translate(-205.98 -203.63)"/><path class="cls-8" d="M894 350.91c.57-1.42 1.87-1.6 3.14-1.84.21 2.81-1.33 2.59-3.14 1.84zM894.41 354.52l.42.23-.41-.24z" transform="translate(-205.98 -203.63)"/><path class="cls-9" d="M1105.21 346.53c1-10.61.18-21.24.38-31.86 0-1.64-.67-2.44-2.37-2.4-20.24.53-40.54-1.42-60.7 1.7-2.43.38-4.8 1.22-7.2 1.84.51-2.58 2.91-2.47 4.62-2.91a66.93 66.93 0 0 1 17.3-2.46h48.89l4 .15c0 10.31-.18 20.62.09 30.92.11 3.98-1.08 5.61-5.01 5.02z" transform="translate(-205.98 -203.63)"/><path class="cls-8" d="M1031.26 364.51a2 2 0 0 0-1.24-2.1 26.85 26.85 0 0 1 12.24-11.76c-2.97 5.18-7.72 8.93-11 13.86zM1030.25 366.5c0-.36 0-.71.08-1.07 2.5.47 1.74 2.34 1.92 4.32-1.47-.95-.66-2.75-2-3.25z" transform="translate(-205.98 -203.63)"/><path class="cls-9" d="M958.37 453.4c0-10.53.13-21.06.13-31.59a14.34 14.34 0 0 0-.79-3.31c3.53 0 2.68 2.72 2.7 4.67.1 10.08.1 20.16.15 30.24z" transform="translate(-205.98 -203.63)"/><path class="cls-6" d="M856.94 440.45c.22-2.22 0-4.59 2-6.24 3.43 1.82 1.35 5.05 2.35 7.47-2.12.82-2.85-1.33-4.36-1.24z" transform="translate(-205.98 -203.63)"/><path class="cls-5" d="M904.48 308.65c-.44 2.58-2.51 1.71-4.07 1.91v-3l1-1h2c.35.71.71 1.44 1.07 2.09z" transform="translate(-205.98 -203.63)"/><path class="cls-6" d="M885.51 449.19a13.88 13.88 0 0 1 5.5 1.93c-2.86 2.29-5.28 3.31-5.5-1.93zM875.26 454c1.58-2 2.75-3 4.56-2.1.44.22.93 1.41.76 1.61-1.47 1.78-3.06.63-5.32.49z" transform="translate(-205.98 -203.63)"/><path class="cls-8" d="M855.66 339.6a11.34 11.34 0 0 1-3.06 5c-3.24-4.27 1.18-3.86 3.06-5z" transform="translate(-205.98 -203.63)"/><path class="cls-5" d="M897.41 306.57v1c-.1.57 0 1.38-.88 1.24a1.31 1.31 0 0 1-.79-1c0-1.06.88-1.14 1.67-1.24z" transform="translate(-205.98 -203.63)"/><path class="cls-6" d="M871.17 449.82l.83.35c-.12.28-.17.71-.37.79s-.54-.19-.82-.31zM902 465.13c-.12.27-.18.7-.38.78s-.53-.19-.81-.31c.12-.28.18-.71.38-.79s.58.19.81.32z" transform="translate(-205.98 -203.63)"/><path class="cls-3" d="M851.25 427.73a3.79 3.79 0 0 1 .53.53c0 .05-.16.36-.26.36a3.23 3.23 0 0 1-.79-.15z" transform="translate(-205.98 -203.63)"/><path class="cls-6" d="M888.43 461.38l1.29.37c-.73.92-.94 0-1.3-.37z" transform="translate(-205.98 -203.63)"/><path class="cls-2" d="M957.76 418.77h-.09a3.53 3.53 0 0 1-1.26-.41c-.36-.31-.14-.65.29-.46a5.53 5.53 0 0 1 1.06.87z" transform="translate(-205.98 -203.63)"/><path class="cls-6" d="M1106.13 310.47h-48.89c.44-2.45 2.4-1.84 3.93-1.85h41.07c1.54-.03 3.48-.62 3.89 1.85z" transform="translate(-205.98 -203.63)"/><path class="cls-3" d="M1000.93 420.27l2.47 4.13c-2.5 1.76-3.46-.32-4.36-1.92-1.15-2.07.74-1.91 1.89-2.21zM996.31 414.93c-.42 1.33 1.31 2.63-.07 4.26-1.48-1.59-.89-2.94 0-4.3zM995.15 408.5a1.94 1.94 0 0 1 .87 1.95c-1.21-.24-2.2-.57-.87-1.95zM1001.26 431.44a2.14 2.14 0 0 1-1-2 1.88 1.88 0 0 1 1 2z" transform="translate(-205.98 -203.63)"/><path class="cls-9" d="M1035.38 315.64a2.18 2.18 0 0 1-2.16 1c.4-1.08 1.31-.97 2.16-1z" transform="translate(-205.98 -203.63)"/><path class="cls-5" d="M901.59 415.68c0 .13.13.34.09.37a1.39 1.39 0 0 1-.42.14c0-.13-.14-.34-.1-.37a1.36 1.36 0 0 1 .43-.14z" transform="translate(-205.98 -203.63)"/><path class="cls-2" d="M662.47 242.77l-.42-.23.19-.18.23.41z"/></svg>