<svg id="Layer_1" data-name="Layer 1" xmlns="http://www.w3.org/2000/svg" viewBox="0 0 1370.24 638.19"><defs><style>.cls-1{fill:#03bbf0}.cls-2{fill:#04bbf0}.cls-3{fill:#05bcf0}.cls-4{fill:#06bcf0}.cls-5{fill:#07bcf0}.cls-6{fill:#0bbdf1}.cls-7{fill:#1cc2f2}</style></defs><path class="cls-1" d="M557.33 587.84c73-.23 144.32 10 212.7 36.77a414 414 0 0 1 65.41 32.47c3.86 2.36 4 4.27 2.19 8-10.82 21.81-21.43 43.73-32 65.63-1.26 2.62-2 4.56-5.65 2.33-41.52-25-87-38.92-134.34-47.82a582.09 582.09 0 0 0-140.68-9c-65.4 3.68-128.9 15.84-188.4 44.52-7.71 3.71-15.15 8-22.55 12.33-2.6 1.51-3.78 1.4-5.14-1.42q-16.49-34.17-33.27-68.2c-1.79-3.62.34-4.59 2.65-6 30.72-19.19 63.65-33.49 98.17-44.22 50-15.52 101.23-23.61 153.51-25.32 9.07-.33 18.25-.07 27.4-.07zm-113.77 30.39c-6.51.23-12.71 2.19-19.06 3.3-2.48.44-2.86 1.8-2.32 4.09 3.08 13.1 6 26.22 9.06 39.33.39 1.69.8 3.32 3.35 2.62 5.48-1.5 11.24-2 16.52-4.26 10.94-4.65 15.78-15.28 13-28.37-2.19-10.71-9.67-16.77-20.55-16.71zm-35.38 39.82c0-15.11-9.38-26.49-21.82-26.48-13 0-22.95 9.52-23 21.88 0 14.8 10.54 27.13 23.1 27s21.71-9.59 21.72-22.4zm84.64-.36c5.72-.53 11.22-1 16.71-1.56 2.22-.21 4.06-.55 3.68-3.68-.35-2.79-1.48-3.46-4.13-3-3 .48-6.17.09-9.09.8-4.33 1.06-5.71-.38-6-4.62-.58-8.58-.77-8.58 7.66-9.37 1.51-.14 3-.24 4.56-.25 2.29 0 2.89-1.2 2.78-3.28-.35-6.43-5.1-3.27-7.61-3-10.26 1.13-8.85 1.78-10-8.06-.44-3.75 1.13-4.69 4.3-4.88 3.42-.21 6.82-.74 10.23-.9 2.7-.12 3-1.56 2.78-3.77-.22-2.51-1.36-3.14-3.77-2.85-5.85.71-11.73 1.5-17.61 1.64-4.66.11-5.23 2.2-4.67 6.11 1.69 12 3.22 24.1 4.66 36.17.45 3.62 1.6 5.81 5.52 4.5zm312.81 3.68c0-1.26-1-1.85-2-2.3-6.29-2.69-12.62-5.29-18.87-8.06-2.73-1.21-3.25.62-4 2.42-4.83 12.16-9.54 24.38-14.59 36.46-1.33 3.19-.38 4.36 2.43 5.46 5.3 2.09 10.56 4.29 15.73 6.7 2.59 1.2 3.91.91 5.15-1.85 1.37-3-.47-3.6-2.45-4.43q-5-2.12-10-4.25c-1.38-.6-2.66-1-2.26-3.21 1.65-9.09 4.54-10.73 13-7.08 1 .45 2.11.86 3.12 1.38 2.41 1.27 3.62.46 4.76-2 1.26-2.65-.14-3.36-2-4.16-3-1.25-5.93-2.58-8.91-3.81-1.56-.65-2.43-1.36-2-3.38 1.64-8.66 4.31-10.18 12.3-6.73a48.68 48.68 0 0 1 5.21 2.3c4.09 2.42 4.19-1.14 5.38-3.46zm-451 21.46c-10.23 7.63-16.84 9.12-23 5.3-5.93-3.7-10-12.71-8.62-19.91 2.21-11.37 11.42-12.92 20.69-14-.43-6.12-3.26-8-8.73-5.75-1.22.51-2.56.73-3.8 1.2-9.33 3.53-15.58 9.85-16.25 20.07-.7 10.67 3.63 19.49 12.78 25.16 8.52 5.29 16.83 2.56 24.77-2.19 4.17-2.44 5.79-5.39 2.17-9.88zM585 645.16c-1.51 8-.89 9.05 6.36 10.29a29.32 29.32 0 0 0 6.81.39c5.8-.38 10.33-2.9 12.16-8.7s.12-10.54-4.47-14.28c-2.79-2.28-5.83-4.26-8.74-6.41s-4.53-4.93-3-8.39 4.84-4 8.26-3.57c1.68.23 3.27 1 5 1.3 1.43.21 3.24 3.62 4.23.1.62-2.18 1.92-5.55-2.13-6.52a47.65 47.65 0 0 0-8.94-1.65c-6.78-.27-12.39 3.21-14.32 8.38-2.18 5.83-.22 11.27 5.78 15.9 2.86 2.21 5.87 4.23 8.62 6.56a6.09 6.09 0 0 1 1.75 7.74c-1.48 3-4.38 3.4-7.4 3.05-3.7-.41-6.82-2.24-9.97-4.19zm168.66 18.25c.75-2.09-.9-2.3-2.08-2.73-3.22-1.16-6.5-2.17-9.71-3.36-1.31-.48-2.62-.65-2.18-3.07 1.88-10.43 3.14-11.33 13-8 1.26.43 2.58.74 3.78 1.29 2.41 1.12 4.07 1.36 5.13-1.91 1-3-.48-3.6-2.73-4.32-5.8-1.85-11.62-3.68-17.31-5.84-3-1.14-4-.09-4.82 2.65-3.79 12.56-7.77 25.06-11.62 37.59a4 4 0 0 0 4.76 5.07c2.55-.69 2.17-3.3 2.88-5.12 1.51-3.88 1.71-9.23 4.47-11.43 3.15-2.51 7.66 1.37 11.51 2.58 3.61 1.19 4.26-1 4.92-3.4zm-78.26 3c3 1.51 3.14-.84 3.74-2.62.76-2.26.21-3.53-2.43-3.87-2.81-.37-5.56-1.59-8.36-1.7-5.33-.2-5.46-3-4.57-7.14 2-9.46 3.72-19 5.47-28.49.44-2.37 2.06-5.07-2.44-5.94-4.17-.8-4.77 1.41-5.29 4.44-2.12 12.53-4.13 25.09-6.57 37.55-.63 3.25.51 4 3.12 4.5 5.79 1.08 11.57 2.2 17.33 3.29zm38.29-35.69c1.25-3.92-1.82-3.55-3.77-4.37-2.59-1.08-3.37.31-3.91 2.46-3.29 13.08-6.54 26.18-10 39.21-.83 3.1.86 3.47 3 4.16s3.58.43 4.24-2.06c3.43-13.21 6.98-26.42 10.44-39.38zm-157.08-.14h.08v18.81c0 2.69 0 4.76 3.76 4.72 3.52 0 3.42-2 3.43-4.4 0-12.73.11-25.46.31-38.19.05-2.9-.31-4.55-3.89-4.54-3.84 0-3.7 2.19-3.68 4.79.03 6.29-.01 12.56-.01 18.83z" transform="translate(-274.88 -220.91)"/><path class="cls-2" d="M554.67 221.07q134 0 268-.1c5 0 6.72.93 6.71 6.41-.22 100-.09 200-.3 300-.05 28.77-1.93 57.46-7.47 85.79-.33 1.68-.84 3.34-1 5-.26 2.53-1 3.39-3.62 2-5.05-2.67-10.15-5.27-15.37-7.58-2.84-1.25-2.08-3.23-1.72-5.21a407.93 407.93 0 0 0 6.24-59.58c.33-9.89.58-19.8.58-29.7q.07-134 .17-268c0-5.58-1.45-6.82-6.91-6.81q-245.09.22-490.18 0c-5.79 0-7.17 1.4-7.15 7.17.21 91.82.1 183.65.23 275.47 0 26.88 1.68 53.68 6.73 80.14.78 4.07 0 6.22-4 7.72a72.73 72.73 0 0 0-11.27 5.55c-3.46 2-4.85 2.06-5.77-2.56a401.78 401.78 0 0 1-7.45-65.18c-1.52-45.7-.65-91.43-.73-137.15-.12-62.11 0-124.21-.15-186.32 0-5.47.9-7.3 7-7.28q133.76.42 267.43.22z" transform="translate(-274.88 -220.91)"/><path class="cls-1" d="M554.41 859.09c-8.41-2.28-17.08-4.48-25.67-7C480 838 434.17 818 393.57 787.08a291.32 291.32 0 0 1-47.39-45.4c-2.45-2.93-2.74-4.48 1.2-6 5.31-2.09 10.51-6.51 15.66-6.38 5.46.14 8.08 7.24 11.94 11.26 32.66 34.09 72.14 57.63 115.65 75a498.91 498.91 0 0 0 58.65 19c2.48.65 4.88 1.59 7.78.85 50.24-12.88 97.85-31.62 140.13-62.29a250.31 250.31 0 0 0 45-41.29c2.37-2.82 4.36-3.6 7.65-1.84a94.87 94.87 0 0 0 11.41 5.26c4.35 1.62 4.92 3.17 1.72 7-22.48 26.93-49.21 48.76-79.33 66.58-39.37 23.29-81.88 38.58-126.12 49.52-.95.25-1.87.45-3.11.74z" transform="translate(-274.88 -220.91)"/><path class="cls-3" d="M1225.14 524.6c0-17.68.18-35.36-.12-53-.08-4.79 1.24-6.13 6-6 10.26.33 10.27.07 10.27 10.08q0 65.4.07 130.8c0 4.06-.45 6.12-5.44 6-10.63-.36-10.63 0-10.78-10.89 0-1.26-.14-2.52-.29-5-6 8.15-12.42 14-21.36 16.63-26.36 7.66-49.84-8.78-53-37.42-1.48-13.21-.76-26.25 4.66-38.65 8.61-19.67 28.15-29.79 49.11-25.41 8.29 1.7 14.8 6.38 20.88 12.86zm0 36.74c0-2.86.06-5.71 0-8.57-.36-13.69-8.61-24.58-20.73-27.43C1190.3 522 1177.13 528 1171 541c-5.94 12.56-6.36 25.79-2.58 39 4 14 13.89 21.31 27.58 21.1 13.42-.21 23.92-8.67 27.77-22.14 1.63-5.85 1.23-11.74 1.35-17.62z" transform="translate(-274.88 -220.91)"/><path class="cls-2" d="M892.13 734.23c0-21.12.1-42.24-.08-63.36 0-4.23.73-6.07 5.56-5.88 14.65.57 29.39-.9 44 1 21 2.75 33.24 15.57 35.42 36.29s-9.47 38.8-29.21 45.86c-10.87 3.88-22.13 3.57-33.35 3.22-4.68-.14-6.14 1-6 5.87.36 13.88 0 27.77.21 41.66.05 3.79-.71 5.29-4.93 5.24-11.59-.13-11.59.08-11.59-11.69zm16.43-26.17v24.53c0 1.69-.83 4.16 2.33 4.1 10.43-.19 21 1.15 31.15-2.46C954.41 729.84 961 719 960 705c-1-13.34-7.83-21.32-21.12-24-9-1.79-18.22-1-27.35-1.17-3.36 0-2.94 2.16-2.94 4.24q-.04 12.01-.03 23.99z" transform="translate(-274.88 -220.91)"/><path class="cls-3" d="M959.72 494.45c-9.76-6.63-19.79-8.74-30.49-8.3-11.3.47-20.33 6.18-23 14.75-3.2 10.37.23 19.45 10.49 26.55 5.31 3.69 11 6.88 16.55 10.16a146.25 146.25 0 0 1 18 12.11c12 9.71 16.53 22.17 13.06 37.07s-14.12 22.62-28.16 26.12c-14.9 3.72-29.49 1.86-43.74-3.6-3.29-1.26-4.81-3-4.52-6.73.34-4.54.08-9.12.08-14.26 5 2.64 9.3 5.68 14.19 7.62a52.67 52.67 0 0 0 26.91 3.52c7.94-1.09 15-3.94 17.68-12.31 2.79-8.76 1.51-17-5.33-23.71-4.92-4.84-10.78-8.45-16.66-12-7.18-4.33-14.49-8.42-21.18-13.53-12.38-9.43-17.76-21.61-14.63-37 3.06-15.11 13.32-23.48 27.5-27.47 12.4-3.5 24.89-2.69 37.31.34 4.23 1 6.62 3 6 7.9-.44 3.88-.06 7.85-.06 12.77z" transform="translate(-274.88 -220.91)"/><path class="cls-2" d="M1338.05 590.32c0 4.85-.17 8.24 0 11.6.18 2.71-1 4.27-3.26 5.41-17 8.76-34.65 10.69-52.3 3-13.9-6.06-20.46-18.4-22.94-32.76-3.15-18.27-1.27-35.84 11-50.75s28.63-19.14 46.84-14c16.9 4.76 24.15 17.91 26.67 34.34.75 4.92.65 9.85 1 14.78.28 4.09-1.2 5.09-5.13 5.05-19.64-.18-39.28.14-58.91-.22-5.49-.1-6.4 1.77-5.68 6.54 3.19 21.32 19.67 31.9 42 26.83 7.14-1.62 13.66-4.7 20.71-9.82zm-36.66-36.87h22.86c1.74 0 3.86.68 4.28-2.32 1.5-10.6-7.64-23.69-18.24-25.91-16-3.35-29.77 6.22-34.2 23.41-1 3.7-.7 5.11 3.58 4.93 7.23-.33 14.48-.11 21.72-.11zM1383.78 782.2c.85 16.36-.12 17.78-14.88 21.79a67.12 67.12 0 0 1-26.67 2c-18.18-2.44-29.91-12.92-34.85-30.29-4.7-16.58-4.35-33.18 3.71-48.92 9.62-18.77 28.06-27.38 49.36-23.29 16.84 3.24 28.31 17.78 30.23 38.34 1.56 16.57 1.56 16.57-14.82 16.57-16.61 0-33.22.19-49.82-.12-4.72-.08-5.31 1.52-4.69 5.57 3.59 23.42 21 33.95 45.06 27.1a57.77 57.77 0 0 0 17.37-8.75zm-36-37.43h23.41c1.64 0 3.28.35 3.53-2.39.94-10.51-7.27-22.63-17.47-25.33-18.57-4.9-32.1 8.87-35.27 24.5-.69 3.4 1.29 3.25 3.52 3.24 7.42-.03 14.84-.02 22.27-.02z" transform="translate(-274.88 -220.91)"/><path class="cls-3" d="M985.67 727.82v-4.53c-.09-13.16-.12-13.24 12.7-17.13 9.54-2.9 19.21-4.93 29.29-3.13 16.23 2.91 25.74 12.58 26.26 29 .73 22.83.31 45.7.47 68.55 0 2.85-1.19 3.84-3.75 3.41-4-.66-9.36 2.25-11.66-1.49-1.77-2.88-.35-7.7-.35-11.59-2.4-.4-2.68 1.26-3.42 2.17a35.88 35.88 0 0 1-42.8 10.37c-10.14-4.55-15.59-12.5-16.19-23.6-.69-12.84 3.56-23.17 15.43-29.48 9-4.77 19-5.26 28.77-6.79 3.76-.59 7.56-.94 11.33-1.49 7.07-1 7.34-1.45 6.21-8.68-1.79-11.52-8.66-17.41-20.35-17.33a48.17 48.17 0 0 0-26.41 8.1zm52.74 35.94v-7.43c0-1.6-.63-2.44-2.46-2.12-10.09 1.76-20.43 2.15-30.32 5s-14.38 9.4-13.15 19c1.1 8.51 8.06 14.19 17.73 14.48 16.79.49 27.88-11.33 28.2-28.93z" transform="translate(-274.88 -220.91)"/><path class="cls-4" d="M1379.59 527.82c9-11.69 20.23-17.55 34.51-16.92 18.55.83 30.27 11.92 31.34 32 1.18 22 .47 44.17.58 66.27 0 1.59 0 3.13-2.27 3.13-3.82 0-7.64.15-11.45-.06-3.38-.19-2.23-3-2.24-4.85-.08-16.57 0-33.15-.06-49.72a64.89 64.89 0 0 0-1.21-14.76c-4.23-18.23-24-24.61-38.27-12.32-8.37 7.17-10.87 16.69-10.91 27.15-.06 16.2-.18 32.39.09 48.58.07 4.54-.81 6.32-5.83 6.14-10.21-.37-10.22-.07-10.22-10.3 0-27.62.1-55.25-.1-82.87 0-4.61 1-6.28 5.93-6.12 10.06.32 10.07 0 10.11 10.32.01 1.43 0 2.88 0 4.33zM1224.44 719.66c6.53-10 15.35-15.75 26.87-17.08 20.68-2.37 35.53 9.58 37.55 30.66 1.92 20.12.5 40.32.8 60.49.16 10.41 0 10.19-10.56 10.42-4.25.09-5.52-1-5.44-5.37.27-15.41.14-30.83.09-46.25 0-6.09-.11-12.21-1.52-18.16-4.45-18.67-24.9-24.66-39.06-11.49-7 6.51-9.84 14.71-9.83 24.09 0 16.94-.19 33.88.11 50.82.09 4.89-1 6.62-6.2 6.39-9.9-.45-9.92-.11-9.92-9.95 0-28 .07-56-.07-83.94 0-3.9.47-5.78 5.15-5.66 10.78.25 10.77 0 10.95 10.69.02 1.24-.47 2.61 1.08 4.34z" transform="translate(-274.88 -220.91)"/><path class="cls-1" d="M1113.62 596.91l-2.69 3.69c-9 12.3-22.75 17-38.6 13.1-13.65-3.32-21.58-12.48-24-27.9-2.25-14.39-.74-28.89-1.08-43.34-.2-8.37.07-16.76-.09-25.13-.05-2.91.78-3.88 3.82-4 12.25-.46 12.25-.58 12.25 11.56v45.13a57.6 57.6 0 0 0 .74 9.65c2.56 14.54 9.5 21.1 22.3 21.38s23-7.55 26.06-20.4a46.61 46.61 0 0 0 1.28-11.31c-.07-16.76.11-33.52-.13-50.27-.06-4.32.87-5.93 5.57-5.79 10.53.32 10.54.05 10.54 10.48 0 27.61-.09 55.23.09 82.84 0 4.31-.84 5.95-5.56 5.81-10.46-.31-10.47 0-10.54-10.42z" transform="translate(-274.88 -220.91)"/><path class="cls-3" d="M1464.45 783.12c9.61 7.3 19.2 10.35 29.93 9.49 10.51-.85 15.67-6.4 14.7-15.58-.53-4.91-3.51-7.95-7.5-10.09-7.54-4.05-15.29-7.69-22.78-11.82-10-5.5-14.64-14.06-13.87-25.47 1-14.14 12.42-25.18 28.5-27.06a56.19 56.19 0 0 1 21.51 1.72c4.88 1.33 6.72 3.56 6.45 8.72-.45 8.77-.07 8.67-8.25 5.58-7.26-2.74-14.77-3.92-22.35-1.39-5.25 1.75-8.81 5.28-9.42 11s1.09 10.74 6.38 13.59c7.19 3.87 14.71 7.15 21.91 11 7 3.78 13 8.78 15.13 17 3.51 13.3-1.93 25.95-14.5 32-14 6.76-28.37 6.08-42.6.13-2.15-.89-3.39-2.07-3.29-4.64.18-4.3.05-8.61.05-14.18zM1004.69 484c0 8.59.18 16.57-.08 24.54-.12 3.82 1.22 4.95 4.91 4.76 5.33-.27 10.69.09 16-.12 3.31-.14 4.26 1.13 4.19 4.31-.22 11.34.89 9.13-8.84 9.37-5.13.13-11.89-1.67-15 .9-3.61 3-1.09 10-1.17 15.28-.19 12.94-.14 25.89 0 38.83.14 17.42 7.69 22.67 24.89 16.56 0 3.93.08 7.59 0 11.25-.07 2.47-2.2 3-4 3.41-17.94 4.26-36.45.28-36.79-25.48-.24-18.46-.2-36.93 0-55.4.06-4.26-1.1-6-5.42-5.39-1.68.24-3.47-.2-5.14.09-5.67 1-6.71-1.47-6.88-6.82-.2-6.07 1.84-7.73 7.35-6.9 1.87.27 3.82-.09 5.71.07 3.14.27 4.49-.82 4.34-4.16-.23-4.94.3-9.93-.16-14.84-.41-4.34 1.43-6.08 5.31-7 3.49-.74 6.86-2.01 10.78-3.26zM1514.25 598.57c1.27 14.3-.17 15.87-14.29 15.95-15.55.08-24.07-6.86-25.64-22.34-1.83-18.21-.42-36.53-.68-54.8-.15-10.46 0-10.39-10.53-10.55-2.1 0-5.33 1.35-6.1-1.37a18.18 18.18 0 0 1 .15-11.23c.75-2 3.83-.92 5.85-.94 10.6-.1 10.6-.06 10.6-10.44v-1.71c0-12.85 0-12.75 12.39-16.09 2.8-.75 3.67-.39 3.6 2.61-.16 7 .11 14.1-.12 21.14-.11 3.58 1.23 4.65 4.66 4.51 5.33-.21 10.69.14 16-.12 3.49-.17 4.56.88 4.54 4.46 0 9.24.14 9.07-8.86 9.31-5.25.14-12-2.42-15.35 1.18-3.06 3.27-.85 9.83-.9 14.93-.12 11.81 0 23.62 0 35.42v4c.43 16.81 8.43 22.13 24.68 16.08zM1190.24 790.31c.07 1.34.15 2.28.17 3.22.17 10.78-.74 11.77-11.49 12.64-18.72 1.49-29.14-8.09-29.45-27.72-.29-18.26-.21-36.54 0-54.8 0-4.24-1-6-5.35-5.32-1.68.26-3.47-.2-5.14.09-5.68 1-6.69-1.49-6.9-6.82-.25-6.23 2.07-7.18 7.48-7 9.79.4 9.8.11 9.8-9.77v-2.28c0-12.39.06-12.21 11.92-15.83 3.84-1.17 4.13.15 4.07 3.26-.12 6.85.11 13.7-.1 20.55-.09 3.19.85 4.39 4.16 4.25 5.52-.23 11.07.15 16.58-.14 3.59-.19 4.49 1 4.48 4.5 0 9.19.16 9.19-8.78 9.19-4 0-8 .24-12-.06-3.61-.28-4.48 1.06-4.44 4.52.17 16.55 0 33.1.09 49.66.07 18.37 6.72 23.25 24.9 17.86z" transform="translate(-274.88 -220.91)"/><path class="cls-5" d="M1426 723.7c2.27-3.93 3.51-6.42 5.06-8.7 6.43-9.46 15.39-13.15 26.68-11.55 2.64.37 4.21 1.19 4.07 4.24-.19 4.13 0 8.28 0 12.54-20.54-5.94-34 3.56-35.26 25.58-1 17.27-.57 34.63-.39 51.94.06 4.81-.84 6.67-6.16 6.43-10.09-.45-10.11-.11-10.11-10.3 0-27.79.07-55.58-.08-83.37 0-4.13.55-6.06 5.47-5.89 10.76.35 10.77 0 10.77 10.85z" transform="translate(-274.88 -220.91)"/><path class="cls-2" d="M1093 722.94c8.28-15.48 16.66-20.86 30.82-19.59 3.51.32 5.2 1.4 4.9 5.2s-.06 7.58-.06 11.45c-21.8-5.39-34.85 5.27-35.5 29.23-.44 16.36-.26 32.74-.07 49.11 0 4.24-.73 6-5.53 5.82-10.53-.34-10.54 0-10.54-10.38 0-27.79.09-55.58-.09-83.37 0-4.3.83-5.92 5.55-5.77 10.51.33 10.52.05 10.52 10.46z" transform="translate(-274.88 -220.91)"/><path class="cls-6" d="M525.14 317.35c0-6.27-.22-12.55.05-18.81.37-8.61 4.49-13 11.89-13.14s12 3.9 12.25 12.6q.58 19.94 0 39.89c-.27 8.37-4.6 12.28-11.95 12.26s-11.6-4-12.07-12.27c-.4-6.82-.08-13.68-.08-20.53zm16.11.09V297.5c0-2.88-.32-5.55-4.1-5.4-3.26.13-3.91 2.49-3.91 5.2v41c0 2.7.63 5 4 5.09 3.91.09 4-2.66 4-5.46z" transform="translate(-274.88 -220.91)"/><path class="cls-5" d="M687.42 317.62c0-6.83-.2-13.68.06-20.51.28-7.41 4.38-11.43 11.31-11.69s12.07 3.46 12.35 10.63c.55 14.41.56 28.86 0 43.27-.28 7.45-5.54 11.21-12.73 10.8-6.84-.38-10.74-4.43-11-12-.23-6.83-.05-13.67-.05-20.51zm16 .31v-20.54c0-3-.82-5.41-4.4-5.29s-3.64 2.65-3.64 5.28v40.51c0 2.8 0 5.57 3.94 5.53 3.77 0 4.1-2.67 4.1-5.53q.02-9.97.01-19.96zM495.29 317.83c0 6.83.19 13.68-.06 20.51-.23 7.49-4.23 11.46-11.23 11.79-7.14.34-12.29-3.51-12.56-11q-.74-21.33 0-42.71c.26-7.43 5.54-11.36 12.63-11 6.91.38 10.84 4.37 11.12 11.89.29 6.84.1 13.69.1 20.52zm-8-.15v-20c0-2.81 0-5.64-3.86-5.62-3.61 0-4.15 2.59-4.15 5.54v40.5c0 3 .58 5.4 4.31 5.29 3.53-.11 3.68-2.56 3.67-5.21-.03-6.81-.01-13.66-.01-20.5z" transform="translate(-274.88 -220.91)"/><path class="cls-2" d="M387.46 317.66c0 6.64.17 13.29 0 19.93-.27 8.3-4.73 12.68-12.32 12.53-7.33-.14-11.55-4.42-11.66-12.54-.18-13.29-.2-26.58 0-39.87.13-8 4.61-12.29 12-12.29s11.71 4.34 12 12.31c.16 6.63-.03 13.27-.02 19.93zm-16.06.13v20c0 2.8 0 5.56 3.87 5.65s4.18-2.42 4.17-5.37v-40.54c0-3-.57-5.49-4.2-5.41s-3.87 2.87-3.85 5.7c.04 6.64.01 13.31.01 19.97z" transform="translate(-274.88 -220.91)"/><path class="cls-1" d="M496.3 414.08c0 6.64.19 13.29-.05 19.93-.27 7.64-4.52 11.85-11.62 12-7.31.19-12.13-4.13-12.29-11.94-.27-13.48-.25-27 0-40.44.14-8 4.65-12.3 11.95-12.32s11.74 4.29 12 12.23c.19 6.86.02 13.7.01 20.54zm-8 .25V393.2c0-2.72-.36-5.06-3.78-5.17-3.25-.1-4.24 1.83-4.24 4.75q.06 20.85 0 41.69c0 2.88.83 4.94 4.11 4.91s3.94-2.25 3.91-5.06c-.07-6.66-.03-13.32-.03-19.99z" transform="translate(-274.88 -220.91)"/><path class="cls-2" d="M633.72 413.37c0-6.64-.18-13.29 0-19.93.27-7.87 4.78-12.19 12.13-12.11 7.07.09 11.63 4.3 11.78 11.9q.41 20.49 0 41c-.16 7.59-4.76 11.77-11.85 11.82-7.36.05-11.65-4.26-12.1-12.17v-20.51zm8 0v20.56c0 2.94.36 5.49 4.11 5.44 3.31 0 4-2.28 3.94-5.07v-41.12c0-2.75-.51-5.05-3.86-5.15-3.75-.11-4.22 2.37-4.19 5.35.04 6.62 0 13.32 0 19.99z" transform="translate(-274.88 -220.91)"/><path class="cls-1" d="M657.8 509.93c0 6.67.2 13.34 0 20-.28 7.69-4.54 11.85-11.72 12s-12.08-4.23-12.26-12.12q-.36-20.28 0-40.57c.16-7.9 4.88-12.14 12.31-12 7.15.17 11.18 4.34 11.65 12.08v20.57zm-8-.77v-20.54c0-2.63-.7-4.51-3.71-4.64-3.25-.14-4.31 1.68-4.3 4.65v41.65c0 2.86.85 5 4.05 5s4-2.15 4-5c-.12-7.04-.07-14.08-.07-21.12zM711.62 509.76c0 6.48.15 13 0 19.43-.24 8.33-4.69 12.84-12.21 12.73s-11.67-4.4-11.79-12.51q-.29-19.71 0-39.43c.11-8.43 4.51-12.79 12.14-12.7 7.34.08 11.58 4.38 11.84 12.48.18 6.66.01 13.33.02 20zm-16-.06v20c0 2.91.26 5.6 4 5.61s4.09-2.58 4.08-5.53q-.06-20.26 0-40.52c0-3-.55-5.39-4.28-5.25-3.46.12-3.76 2.47-3.74 5.18-.06 6.81-.09 13.66-.09 20.51z" transform="translate(-274.88 -220.91)"/><path class="cls-2" d="M604 413.92c0 6.64.18 13.3-.05 19.93-.27 7.9-4.75 12.24-12.07 12.2s-11.76-4.35-11.89-12.36q-.32-19.94 0-39.87c.12-8.06 4.46-12.38 11.77-12.48 7.53-.11 12 4.36 12.21 12.64.13 6.64.03 13.29.03 19.94zm-16-.31v21.12c0 2.62.79 4.54 3.76 4.63 3.23.11 4.27-1.82 4.26-4.74v-41.67c0-2.85-.8-4.94-4.09-4.92s-4 2.24-3.94 5c.01 6.88-.06 13.73-.06 20.58zM496.32 509.48c0 6.67.16 13.34 0 20-.24 8.07-4.49 12.38-11.87 12.44s-12-4.31-12.1-12.23q-.35-20 0-40c.13-8.06 4.55-12.37 11.9-12.42 7.61 0 11.87 4.33 12.09 12.78.12 6.47-.01 12.95-.02 19.43zm-8 .1v-20c0-2.81 0-5.55-3.88-5.63s-4.17 2.43-4.16 5.38q.06 20.25 0 40.51c0 3 .59 5.51 4.2 5.41s3.87-2.89 3.85-5.73c-.06-6.63-.03-13.29-.03-19.94z" transform="translate(-274.88 -220.91)"/><path class="cls-3" d="M765.42 509.73c0 6.46.17 12.92 0 19.36-.27 8.38-4.64 12.86-12.08 12.84s-11.84-4.37-11.94-12.84c-.16-13.1-.18-26.2 0-39.3.12-8.15 4.29-12.37 11.66-12.52 7.57-.15 12 4.21 12.33 12.53.21 6.64.02 13.29.03 19.93zm-16.07 0v20c0 2.87.2 5.61 3.95 5.58s4.11-2.61 4.1-5.56q-.06-20.26 0-40.52c0-3-.63-5.36-4.33-5.23-3.51.12-3.72 2.57-3.71 5.21 0 6.79-.01 13.68-.01 20.53z" transform="translate(-274.88 -220.91)"/><path class="cls-2" d="M388.69 509.68c0 6.67.16 13.34-.05 20-.25 8-4.59 12.28-12 12.25-7.09 0-11.71-4.22-11.88-11.87q-.47-20.56 0-41.14c.18-7.58 4.91-11.7 12.06-11.65s11.53 4.14 11.81 11.84c.26 6.84.06 13.71.06 20.57zm-8.05.13c0-6.85-.05-13.69 0-20.54 0-3-.38-5.44-4.18-5.3-3.4.13-3.84 2.44-3.83 5.16v41.09c0 2.83.8 5 4 5.08s4-2.07 4-4.94c-.04-6.85.01-13.7.01-20.55z" transform="translate(-274.88 -220.91)"/><path class="cls-3" d="M604 509.89c0 6.65.17 13.3 0 19.94-.25 7.73-4.35 11.85-11.53 12.09s-12.2-4-12.38-11.86q-.48-20.49 0-41c.19-7.84 5-12 12.43-11.79 7.15.23 11.23 4.35 11.48 12.12.2 6.83 0 13.67 0 20.5zm-8-.73v-20.55c0-2.57-.65-4.53-3.71-4.64-3.26-.11-4.32 1.74-4.32 4.67v41.67c0 2.85.9 5 4.09 5s4-2.21 3.95-5c-.01-7.07-.01-14.11-.01-21.15z" transform="translate(-274.88 -220.91)"/><path class="cls-2" d="M388.68 414.05c0 6.65.17 13.3-.05 19.93-.26 7.69-4.49 11.9-11.58 12.06-7.36.17-12.14-4-12.32-11.93q-.48-20.49 0-41c.18-7.59 4.82-11.74 11.91-11.77 7.37 0 11.74 4.25 12 12.21.21 6.83.04 13.67.04 20.5zm-16 .15v20.57c0 2.65.91 4.5 3.83 4.61 3.28.12 4.19-1.84 4.18-4.77q-.07-20.85 0-41.7c0-2.87-.72-5-4.05-4.89s-4 2.24-4 5.05c.05 7.04.02 14.09.02 21.13z" transform="translate(-274.88 -220.91)"/><path class="cls-7" d="M597.87 318.12c0 9.13-.09 18.26 0 27.38.05 3.16-.43 4.87-4.28 4.83-3.64 0-4.46-1.33-4.43-4.69.15-14.07.08-28.14 0-42.21 0-2.14.77-4.8-2.88-4.94-1.16 0-1.31-1.15-1.5-2.11-.34-1.69 4.94-10.85 6.6-11 3.44-.3 6.8-.93 6.51 4.78-.36 9.31-.02 18.64-.02 27.96zM651.85 318.2c0 9.32-.13 18.64.07 27.95.07 3.38-1.27 4.14-4.37 4.15s-4.39-.81-4.35-4.16c.15-14.07.09-28.14 0-42.2 0-2.25 1-5.23-3-5.5-.46 0-1-1-1.26-1.61-1.08-3.07 5-11.3 8.28-11.56s4.74.79 4.66 4.42c-.18 9.5-.03 19.01-.03 28.51z" transform="translate(-274.88 -220.91)"/><path class="cls-5" d="M589 729.6c-10.33 10.25-20.07 19.89-29.76 29.57-1.4 1.39-2.48 2.09-4.23.33-9.76-9.87-19.6-19.66-30-30.1 6.55-.9 11.62-1.09 15.9 4.19 4 4.86 8.94 8.85 13.2 13.47 2.27 2.46 3.72 2.26 5.88-.09 3.87-4.2 8.38-7.86 12-12.26 4.32-5.32 9.46-6.97 17.01-5.11zM524.8 798.49c5.58-5.45 10.43-10.13 15.23-14.86s9.43-9.43 14.18-14.11c1.26-1.24 2.34-3.29 4.58-1 9.76 9.84 19.58 19.62 29.92 30-6.41 1.33-11.32 1.39-15.47-3.76-3.33-4.13-7.74-7.37-11.16-11.44s-6.18-5.07-10-.22c-3.28 4.16-7.81 7.33-11.13 11.46-4.09 5.04-9.03 5.23-16.15 3.93z" transform="translate(-274.88 -220.91)"/><path class="cls-2" d="M436.77 510.07c0 9.31-.09 18.62.05 27.93 0 2.88-.74 4.06-3.83 4s-4.44-.55-4.4-4c.18-14.25.1-28.5.05-42.76 0-2.07.94-4.85-2.81-4.92-1.13 0-1.48-.87-1.67-1.91-.29-1.55 4.88-10.9 6.41-11 3.48-.34 6.66-.88 6.34 4.79-.52 9.23-.14 18.56-.14 27.87z" transform="translate(-274.88 -220.91)"/><path class="cls-5" d="M759.67 414.08v26.8c0 3 .23 5.44-4.28 5.34-4.21-.09-3.93-2.34-3.92-5.12q.06-20.82 0-41.62c0-2.07 1-4.87-2.77-5-1.18 0-1.44-1-1.66-1.93-.33-1.55 4.82-11 6.36-11.16 3.47-.36 6.69-.89 6.39 4.78-.48 9.27-.12 18.6-.12 27.91zM759.67 318.3c0 9.31-.09 18.62.05 27.94 0 2.89-.74 4.05-3.83 4s-4.49-.47-4.44-4c.17-14.26.09-28.51 0-42.77 0-2.06 1-4.88-2.79-5-1.19 0-1.43-1-1.64-1.94-.34-1.58 4.85-10.91 6.44-11.1 3.61-.45 6.61-.66 6.31 4.89-.46 9.33-.1 18.68-.1 27.98z" transform="translate(-274.88 -220.91)"/><path class="cls-4" d="M544.53 509.61c0 9.3-.07 18.61.05 27.92 0 2.89-.36 4.5-3.94 4.54-3.75 0-4.33-1.48-4.3-4.73.14-14.06.07-28.11 0-42.17 0-2.13.81-4.81-2.87-4.9-1.12 0-1.43-.95-1.6-2-.27-1.62 5-10.77 6.52-11 3.66-.45 6.54-.52 6.24 4.94-.46 9.14-.1 18.28-.1 27.4z" transform="translate(-274.88 -220.91)"/><path class="cls-3" d="M705.87 414.1c0 9.13-.12 18.26.07 27.38.06 3.28-.58 4.76-4.34 4.71s-3.91-1.71-3.9-4.56q.13-21.11 0-42.22c0-2.07 1-4.87-2.8-4.94-1.18 0-1.44-.94-1.64-1.94-.32-1.56 4.81-11 6.36-11.15 3.45-.34 6.69-.92 6.38 4.77-.49 9.3-.13 18.63-.13 27.95z" transform="translate(-274.88 -220.91)"/><path class="cls-1" d="M544.4 413.72v26.83c0 2.69 1 5.59-3.88 5.67-5.21.09-4.2-3.06-4.21-6v-40.54c0-2.2 1.15-5.3-3-5.31-.87 0-1.16-.76-1.42-1.52-.73-2.17 4.79-11.26 7.06-11.6 3.89-.57 5.85.3 5.63 5-.48 9.18-.18 18.33-.18 27.47z" transform="translate(-274.88 -220.91)"/><path class="cls-2" d="M435.62 318.26c0 9.32-.14 18.65.08 28 .08 3.51-1.42 4-4.4 4-3.15.06-3.82-1.16-3.79-4 .11-14.08.07-28.17 0-42.25 0-2.39 1.2-5.68-3.29-5.65-.38 0-.9-1.07-1.12-1.72-.49-1.42 4.8-10.72 6.26-11.16 4.22-1.27 6.22.25 6.24 4.83.05 9.3.02 18.62.02 27.95zM436.77 414c0 8.57.08 17.14 0 25.7 0 2.83 1.61 6.59-4.16 6.51-5.44-.08-3.84-3.6-3.86-6.23-.1-13.33 0-26.65-.08-40 0-2.38 1.24-5.69-3.27-5.69-.39 0-.93-1.05-1.14-1.7-.66-2.05 4.66-11.05 6.74-11.27 3.4-.36 6.18-.47 5.94 4.69-.49 9.32-.17 18.66-.17 27.99z" transform="translate(-274.88 -220.91)"/><path class="cls-6" d="M557.8 722.72c3.66.48 6 2.88 5.75 6.75s-2.63 6.16-6.73 6.13c-3.81 0-7-3.41-6.42-7 .6-3.86 2.98-6 7.4-5.88z" transform="translate(-274.88 -220.91)"/><path class="cls-2" d="M441.34 625.35c9.13.11 13.81 4.56 15.51 14.13 1.49 8.42-2.33 15.45-9.92 18.26-8.25 3.06-9.12 2.65-10.93-5.58-1.39-6.29-2.13-12.77-4.14-18.83s.71-7.27 5.58-7.62c1.56-.11 3.02-.28 3.9-.36z" transform="translate(-274.88 -220.91)"/><path class="cls-3" d="M400.42 659.06c0 7-3.15 11.7-9.06 13.53s-11.48-.14-15.36-5.67a23.36 23.36 0 0 1-4.54-15.49c.5-6.39 4.29-10.68 10.77-12.3 5.64-1.41 10.71.72 14.13 5.92a27.34 27.34 0 0 1 4.06 14.01z" transform="translate(-274.88 -220.91)"/><path d="M1034.59 421.87h-16.41v-94.55q0-11.2 1.37-27.42h-.39a87.59 87.59 0 0 1-4.23 13.66l-48.16 108.31h-8.06l-48.06-107.52a83.76 83.76 0 0 1-4.23-14.45H906q.78 8.46.79 27.62v94.35h-15.9V280.93h21.82L956 379.22a125.4 125.4 0 0 1 6.48 16.91h.6q4.22-11.61 6.78-17.3l44.13-97.9h20.64zM1069.69 295.67a10.2 10.2 0 0 1-7.37-2.94 9.94 9.94 0 0 1-3-7.48 10.31 10.31 0 0 1 10.42-10.51 10.41 10.41 0 0 1 7.51 3 10.5 10.5 0 0 1 0 14.9 10.29 10.29 0 0 1-7.56 3.03zm7.86 126.2h-16.12V321.23h16.12zM1170.74 417.26q-11.61 7-27.53 7-21.53 0-34.74-14t-13.22-36.32q0-24.87 14.25-40t38-15.09a53 53 0 0 1 23.39 4.91v16.54a41 41 0 0 0-24-7.87q-15.43 0-25.31 11.06t-9.88 29q0 17.7 9.29 27.92t25.01 10.26q13.18 0 24.78-8.75zM1239.54 337.55q-4.23-3.26-12.19-3.25-10.32 0-17.24 9.73t-6.94 26.54v51.3h-16.12V321.23h16.12V342h.4q3.43-10.62 10.52-16.56a23.93 23.93 0 0 1 15.82-6q6.28 0 9.63 1.37zM1288.4 424.23q-22.32 0-35.63-14.1t-13.32-37.4q0-25.35 13.86-39.61t37.45-14.25q22.5 0 35.13 13.86t12.63 38.43q0 24.07-13.61 38.58t-36.51 14.49zm1.18-91.8q-15.58 0-24.58 10.57t-9 29.14q0 17.89 9.14 28.21t24.48 10.32q15.63 0 24-10.13t8.4-28.79q0-18.87-8.4-29.1t-24.04-10.22zM1350.13 418.24v-17.3a47.76 47.76 0 0 0 29 9.73q21.22 0 21.23-14.15a12.27 12.27 0 0 0-1.82-6.83 18.09 18.09 0 0 0-4.91-5 38.19 38.19 0 0 0-7.28-3.88q-4.17-1.72-9-3.59a116.73 116.73 0 0 1-11.75-5.35 35.52 35.52 0 0 1-8.45-6.1 22.73 22.73 0 0 1-5.11-7.71 27.27 27.27 0 0 1-1.72-10.13 24.09 24.09 0 0 1 3.24-12.53 28.88 28.88 0 0 1 8.65-9.14 40.12 40.12 0 0 1 12.34-5.55 54.47 54.47 0 0 1 14.3-1.87 57.82 57.82 0 0 1 23.39 4.52v16.32a45.56 45.56 0 0 0-25.55-7.28 29.75 29.75 0 0 0-8.16 1 19.56 19.56 0 0 0-6.24 2.9 13.27 13.27 0 0 0-4 4.47 11.76 11.76 0 0 0-1.43 5.75 13.77 13.77 0 0 0 1.43 6.58 14.56 14.56 0 0 0 4.17 4.72 32.25 32.25 0 0 0 6.69 3.74q3.93 1.67 8.94 3.63a126.23 126.23 0 0 1 12 5.26 41.09 41.09 0 0 1 9 6.09 24.05 24.05 0 0 1 5.75 7.82 25.25 25.25 0 0 1 2 10.52 24.86 24.86 0 0 1-3.29 13 28.22 28.22 0 0 1-8.8 9.14 40.69 40.69 0 0 1-12.68 5.41 62.52 62.52 0 0 1-15 1.76q-15.53.04-26.94-5.95zM1475.66 424.23q-22.32 0-35.64-14.1t-13.31-37.4q0-25.35 13.86-39.61t37.43-14.25q22.5 0 35.13 13.86t12.63 38.43q0 24.07-13.61 38.58t-36.49 14.49zm1.18-91.8q-15.54 0-24.58 10.57t-9 29.14q0 17.89 9.14 28.21t24.48 10.32q15.62 0 24-10.13t8.4-28.79q0-18.87-8.4-29.1t-24.04-10.22zM1589.58 287a21.45 21.45 0 0 0-10.71-2.65q-16.92 0-16.91 21.33v15.53h23.59V335H1562v86.88h-16V335h-17.2v-13.77h17.2v-16.32q0-15.82 9.14-25t22.8-9.19q7.38 0 11.7 1.77z" transform="translate(-274.88 -220.91)"/><path d="M1645.12 420.89q-5.71 3.15-15 3.15-26.44 0-26.44-29.49V335h-17.3v-13.77h17.3v-24.57l16.12-5.21v29.78h25.36V335h-25.36v56.7q0 10.13 3.44 14.45t11.4 4.32a17 17 0 0 0 10.52-3.34z" transform="translate(-274.88 -220.91)"/></svg>