<svg id="Layer_1" data-name="Layer 1" xmlns="http://www.w3.org/2000/svg" viewBox="0 0 667.63 453.55"><defs><style>.cls-2{fill:#157cc0}.cls-4{fill:#238bcb}.cls-5{fill:#2096d2}.cls-6{fill:#209cd7}.cls-7{fill:#2c4ea1}.cls-8{fill:#334576}.cls-9{fill:#fcfdfe}.cls-10{fill:#01adee}.cls-11{fill:#019edf}.cls-14{fill:#0094d5}</style></defs><path d="M482.61 533.17a46 46 0 0 0 6.66-6.65 24.51 24.51 0 0 0 4.05-4 43.63 43.63 0 0 0 6.65-6.73 3.87 3.87 0 0 0 1.88-1.78 72.94 72.94 0 0 0 9.12-9.31 3.79 3.79 0 0 0 2-1.8c.61-.53 1.25-1 1.82-1.6L563 453.08c.57-.57 1.2-1.09 1.81-1.63a11.51 11.51 0 0 1 .44 3.51v44c-.48.2-.95.42-1.44.58-19.1 6.45-36.28 16.31-50.74 30.32-35.64 34.55-50.48 76.62-43 125.77 5.63 36.91 24.07 66.75 53.56 89.67a141.3 141.3 0 0 0 42.06 22.1 14.47 14.47 0 0 0-.53 4.4v41.75a5 5 0 0 1-.45 2.82c-.6-.55-1.23-1.07-1.8-1.64L509 760.8c-.63-.63-1.31-1.21-2-1.81a6.91 6.91 0 0 0-2.1-2.07c-3.58-3.88-7.29-7.64-11.21-11.19a28.63 28.63 0 0 0-4.47-4.47 58 58 0 0 0-6.66-6.64 7.82 7.82 0 0 0-2.2-2.24c-.6-.66-1.16-1.34-1.79-2l-94.32-94.29c-2.2-2.2-2.2-2.2-.07-4.33Q431 585 477.76 538.28c.63-.62 1.18-1.32 1.76-2a14.29 14.29 0 0 0 3.09-3.11z" transform="translate(-168.45 -407.17)" fill="#24a9e0"/><path class="cls-2" d="M699.88 497.49q9.51 9.43 19 18.87 9.35 9.3 18.65 18.63l30.9 30.89c.52.52 1 1.1 1.48 1.65-1.16 1-.89 2.28-.9 3.52v125.82a12.84 12.84 0 0 0 .51 4c-.39.44-.76.9-1.17 1.32l-66.05 66c-.36.37-.77.69-1.16 1a15 15 0 0 1-.52-3.28v-25a173.35 173.35 0 0 0 13.09-12.77c27.2-30.87 39.54-66.76 36.1-107.83-2.22-26.4-11.61-50.2-27.28-71.53a151.28 151.28 0 0 0-23.25-24.6 36.38 36.38 0 0 0 .45-7.07c.05-6.55.11-13.11.15-19.62z" transform="translate(-168.45 -407.17)"/><path d="M769.53 700.82a12.84 12.84 0 0 1-.51-4V571c0-1.24-.26-2.57.9-3.52.44.39.91.75 1.32 1.16l63.78 63.72c1 1 1.66 1.51.26 2.91q-32.6 32.4-65.06 64.95c-.22.25-.46.41-.69.6z" transform="translate(-168.45 -407.17)" fill="#1178bd"/><path class="cls-4" d="M700.66 740.9v25a15 15 0 0 0 .52 3.28c-.39.44-.76.91-1.17 1.33L622 848.4c-.42.41-.89.78-1.33 1.18l-.05-75.65c.88-.14 1.75-.32 2.64-.41a141.43 141.43 0 0 0 52.27-15.78 157.36 157.36 0 0 0 25.13-16.84zM699.88 497.49c0 6.53-.1 13.07-.11 19.61a36.38 36.38 0 0 1-.45 7.07c-1-.71-1.91-1.4-2.84-2.12a142.39 142.39 0 0 0-76.72-29.76v-2.89-68.68c0-.84-.6-2 .87-2.4 7.05 7 14.13 14 21.16 21q28.3 28.24 56.57 56.54c.56.5 1.02 1.08 1.52 1.63z" transform="translate(-168.45 -407.17)"/><path class="cls-5" d="M620.66 773.93q0 37.82.05 75.65c-3.49 3.53-7 7.06-10.46 10.62-.65.66-1.09.71-1.79 0-4.4-4.51-8.84-9-13.28-13.47a26.33 26.33 0 0 0 .46-6.63v-29q0-18.74.06-37.47a174.77 174.77 0 0 0 24.96.3zM620.66 418.32c-1.47.36-.87 1.56-.87 2.4V492.29a179.87 179.87 0 0 0-24.57.26v-67.53a11.8 11.8 0 0 0-.44-3.5q6.82-6.9 13.63-13.81c.65-.67 1.12-.76 1.81 0 3.45 3.53 6.95 7.06 10.44 10.61z" transform="translate(-168.45 -407.17)"/><path class="cls-6" d="M595.7 773.65q0 18.74-.06 37.47v29a26.33 26.33 0 0 1-.46 6.63c-4.69-4.64-9.42-9.25-14.09-13.92-5.45-5.46-10.87-11-16.3-16.45a5 5 0 0 0 .45-2.82v-41.75a14.47 14.47 0 0 1 .53-4.4 154.59 154.59 0 0 0 29.93 6.24zM594.76 421.52a11.8 11.8 0 0 1 .44 3.5v67.53a164.09 164.09 0 0 0-29.9 6.45v-44a11.51 11.51 0 0 0-.44-3.51q10.44-10.53 20.88-21c2.95-3.08 6-6.01 9.02-8.97z" transform="translate(-168.45 -407.17)"/><path class="cls-2" d="M191.18 656.6c-8.34 0-15.49-3.1-21.8-8.4-.95-.79-1.34-1.37-.34-2.49 1.88-2.1 3.65-4.31 5.37-6.56.72-.94 1.21-.93 2.08-.19a29.71 29.71 0 0 0 10.11 6 14 14 0 0 0 8.12.46c2.53-.69 3.92-2.27 4.1-4.41.21-2.51-1-4.08-3.2-5.09a49.57 49.57 0 0 0-8.5-2.66 57 57 0 0 1-9.57-3.61c-9.44-4.44-8.9-20-2-25 6.47-4.74 13.59-5.23 21.06-3.82a31.81 31.81 0 0 1 12.42 5.31c1.3.91 1.34 1.58.41 2.78-1.45 1.88-2.8 3.86-4.07 5.87-.77 1.22-1.4 1.3-2.61.46a22.12 22.12 0 0 0-14-4.32c-3.12.15-5.32 1.9-5.64 4.4s.62 4 3.08 5.1a57 57 0 0 0 9.57 3 38 38 0 0 1 9.59 4.1c7.84 4.68 8.55 19.16-.06 25.18-4.3 2.91-9.03 3.91-14.12 3.89zM351.93 635.51q5.67-14.19 11.34-28.31c.78-1.92 1-4.59 2.57-5.51s4-.3 6.12-.33c1.56 0 3.13.09 4.68 0 1.9-.16 2.11.43 1.42 2.1-3.85 9.42-7.6 18.87-11.4 28.3-3 7.58-6.13 15.14-9.13 22.73a2 2 0 0 1-2.24 1.56c-2.45-.12-4.91-.08-7.36 0a1.77 1.77 0 0 1-1.95-1.34Q335.63 628.84 325.2 603c-.65-1.59-.06-1.71 1.28-1.69 3.12.06 6.25.12 9.37 0a2.43 2.43 0 0 1 2.76 1.87c4 10.15 8.07 20.27 12.13 30.4.26.66.32 1.47 1.19 1.93zM296.49 635.54c2.31-5.75 4.59-11.43 6.86-17.11 2-5.1 4.15-10.18 6.1-15.31a2.27 2.27 0 0 1 2.55-1.8c3.13.11 6.26.14 9.38 0 2.31-.1 1.72 1 1.2 2.26q-7.9 19.62-15.79 39.25c-1.58 3.93-3.21 7.83-4.72 11.78A1.86 1.86 0 0 1 300 656c-2.45-.08-4.91-.1-7.36 0a1.9 1.9 0 0 1-2.09-1.48q-10.31-25.74-20.69-51.45c-.55-1.37-.39-1.81 1.18-1.77 3.19.1 6.4.11 9.59 0a2.33 2.33 0 0 1 2.59 1.8c4 10.15 8.07 20.27 12.13 30.4a3.58 3.58 0 0 0 1.14 2.04zM240.94 635.88l8.76-21.82c1.49-3.72 3-7.43 4.44-11.18a2 2 0 0 1 2.26-1.56c3 .09 6 0 8.93 0 2.73 0 2.73 0 1.75 2.45q-8.37 20.76-16.73 41.52c-1.19 3-2.48 5.89-3.53 8.9a2.32 2.32 0 0 1-2.76 1.8 62.39 62.39 0 0 0-6.7 0 2 2 0 0 1-2.29-1.51q-10.26-25.63-20.62-51.23c-.67-1.65-.31-2 1.38-2 3.12.11 6.25.12 9.37 0 1.48-.06 2.06.57 2.56 1.83 4 10.14 8.08 20.27 12.13 30.4.27.73.59 1.37 1.05 2.4z" transform="translate(-168.45 -407.17)"/><path class="cls-7" d="M393.45 787.64c-3.29-2.24-4.85-4.72-4.64-8.67.36-6.81.09-13.67.11-20.5a4 4 0 0 1 .26-2.31c2.47 2.1 4.57 4 4.38 7.8-.38 7.77-.11 15.58-.11 23.68zM382.27 776.56c-2.88-2.31-4.85-4.33-4.65-8.25.4-7.69.12-15.41.12-23.52 2.61 2.26 4.81 3.92 4.64 7.72-.38 7.86-.11 15.74-.11 24.05zM359.93 754.12c-3.29-2.21-4.85-4.7-4.64-8.64.37-6.82.1-13.67.1-20.51v-2.55c2.73 2.34 4.84 4.17 4.65 8-.38 7.8-.11 15.58-.11 23.7zM367.21 733.69c1.05 1.15 2.05 2.34 3.14 3.44a2.6 2.6 0 0 1 .76 2v26.46c-2.19-2.45-4.79-3.64-4.63-7.35.32-7.35.09-14.71.09-22.07V734zM377.74 524.74v-19a24.56 24.56 0 0 0-.05-4.46c-.72-3.85 1.77-5.76 4.29-7.8a3.46 3.46 0 0 1 .28 2.25c0 6.77-.28 13.56.13 20.31.23 3.96-1.32 6.41-4.65 8.7zM355.7 546.91c-.55-.74-.29-1.5-.3-2.21 0-6.77.27-13.56-.12-20.31a8.67 8.67 0 0 1 4.32-8.52c.65.46.31 1.19.31 1.78 0 7.07-.26 14.16.13 21.21.22 3.9-1.7 5.98-4.34 8.05zM371.1 504.42c0 9.08.12 17.77-.08 26.46 0 2.38-2.76 3.18-4.46 4.74v-22.69c0-4.93 0-4.93 4.54-8.51zM393 482.12c.72.86.44 1.64.44 2.34 0 6.77-.25 13.56.12 20.31a8.59 8.59 0 0 1-4.31 8.53c-.63-.25-.31-.86-.32-1.3v-24.11c-.05-2.99 2.76-3.73 4.07-5.77zM337.71 731.9c-3.35-2.22-4.82-4.74-4.6-8.69.4-6.81.1-13.66.13-20.49a3.81 3.81 0 0 1 .23-2.21c2.67 2 4.55 4.12 4.35 8-.38 7.69-.11 15.41-.11 23.39zM348.88 743.1c-3.19-2.23-4.81-4.59-4.59-8.48.38-6.89.1-13.81.12-20.72a4 4 0 0 1 .23-2.23c2.67 2.05 4.55 4.12 4.36 8-.39 7.69-.12 15.41-.12 23.43zM311.12 678.16c2.66 2.06 4.56 4.11 4.36 8-.39 7.69-.11 15.41-.11 23.54-2.46-2.22-4.76-3.74-4.59-7.47.33-7.26.09-14.55.11-21.83a4 4 0 0 1 .23-2.24zM326.54 720.89c-2.6-2.31-4.78-4-4.6-7.81.37-7.85.11-15.73.11-24 2.48 2.28 4.79 3.86 4.6 7.69-.38 7.18-.11 14.4-.11 21.6zM411.13 778.3c3.12 2.15 4.76 4.41 4.59 8.22-.35 7.64-.1 15.29-.1 23.56-2.26-2.44-4.75-3.7-4.59-7.41.33-8 .1-16.02.1-24.37zM400 767c2.71 2.32 4.79 4.08 4.6 7.88-.39 7.78-.12 15.6-.12 24.06-2.14-2.41-4.69-3.55-4.57-7.14.23-8.11.09-16.21.09-24.8zM433.47 463c3.4 2.19 4.82 4.75 4.6 8.69-.39 6.75-.1 13.53-.12 20.3a3.58 3.58 0 0 1-.3 2.27c-2.43-2.15-4.51-4-4.3-7.87.42-7.65.12-15.39.12-23.39zM426.79 483.18c-1.87-.94-2.59-2.82-4.34-3.42-.2-.07-.14-1-.14-1.46v-23.88c0-.64-.27-1.51.43-1.84.88-.4 1.16.67 1.71 1.07 1.89 1.37 2.45 3.18 2.4 5.56-.17 7.21-.06 14.42-.06 21.64zM415.61 459.92c0 9 .08 17.66-.05 26.35 0 2.52-2.86 3.15-3.95 5.14-.76-.78-.46-1.47-.47-2.08 0-6.91.29-13.84-.13-20.73-.23-3.97 1.36-6.41 4.6-8.68zM471.4 742v15.72a46.36 46.36 0 0 0 .06 6.67c.59 4-1.16 6.6-4.54 8.82v-3.34c0-6.83.13-13.66-.07-20.48-.07-2.54.54-4.42 2.53-5.95a10.3 10.3 0 0 0 1.46-1.68zM455.75 784.44V775c0-4.75.14-9.5-.06-14.25-.11-2.58.49-4.57 2.56-6.15a8.64 8.64 0 0 0 1.39-1.74c.89.79.57 1.5.57 2.1 0 7.05-.28 14.12.14 21.15.24 3.89-1.61 6.1-4.6 8.33zM449.06 764.35c0 7.55-.26 15.1.1 22.63.19 3.93-1.36 6.39-4.58 8.6V790c0-6.09.14-12.18-.07-18.26a6.48 6.48 0 0 1 2.54-5.94 11.79 11.79 0 0 0 1.47-1.67zM426.79 786.7v25.84c0 1-2.63 4.29-3.52 4.59-.62.21-.84-.17-.91-.62a13 13 0 0 1-.05-1.77v-22.3c0-1.44-.2-2.75 1.58-3.55 1-.45 1.61-1.65 2.4-2.5zM404.44 471v23.4c0 4.51-.34 5.14-4.48 8.07v-10.3c0-4.24.36-8.52-.11-12.7-.45-3.99 1.67-6.09 4.59-8.47zM344.4 558c0-8.89-.08-17.58 0-26.27 0-2.52 2.88-3.15 3.95-5.14.77.77.47 1.46.48 2.07 0 6.84-.25 13.69.11 20.51a8.81 8.81 0 0 1-4.54 8.83zM337.71 537.92v26.4c0 1.16-1 1.61-1.55 2.31-.78.89-1.61 1.74-2.42 2.61-.84-.65-.51-1.37-.51-2 0-6.84.22-13.69-.11-20.51-.18-3.88.96-6.73 4.59-8.81zM322.05 580.17V558c0-5.24 0-5.24 4.13-8.78.7.38.34 1.05.34 1.55 0 7.36-.1 14.72.08 22.08.06 2.52-.5 4.44-2.52 6a10.7 10.7 0 0 0-1.47 1.66zM438 775.48v14a73.67 73.67 0 0 0 .07 8.92c.48 3.83-1.42 6.09-4.26 8-.57-.57-.28-1.27-.28-1.89 0-7.21.1-14.43-.08-21.65-.06-2.52.48-4.45 2.51-6a9.53 9.53 0 0 0 1.43-1.7zM460.23 516.67c-3.06-2.21-4.81-4.44-4.6-8.37.4-7.55.12-15.14.12-23.34 2.14 2.46 4.72 3.64 4.58 7.34-.33 8-.1 16.03-.1 24.37zM444.58 474.1c3.24 2.24 4.79 4.69 4.59 8.63-.38 7.47-.11 15-.11 22.89-2.38-2.24-4.74-3.68-4.59-7.42.34-7.92.11-15.87.11-24.1zM466.92 496.43c3.05 2.21 4.81 4.42 4.6 8.36-.4 7.55-.12 15.14-.12 23.31-2.15-2.41-4.72-3.57-4.58-7.28.32-8.01.1-16.03.1-24.39zM480.42 732.38a7.82 7.82 0 0 1 2.2 2.24c0 6.38-.35 12.78.07 19.13.27 4-1.62 6.12-4.6 8.36v-10.82c0-4.3.13-8.61 0-12.91-.15-2.46.26-4.5 2.33-6zM482.61 533.17a14.29 14.29 0 0 1-3.09 3.12 3.84 3.84 0 0 1-1.46-3.48c.07-8.3 0-16.61 0-25.28 2.52 2.2 4.83 3.8 4.59 7.61-.35 5.99-.05 12.02-.04 18.03zM304.26 698.49c-3.06-2.21-4.93-4.44-4.58-8.38a125.69 125.69 0 0 0 .05-14.91c-.07-2.17 1.23-1.67 2.42-1.74s2.18-.06 2.16 1.77c-.11 7.64-.05 15.29-.05 23.26zM315.37 560.46c0 6.76-.07 13.52 0 20.28 0 2.12-1.34 1.49-2.38 1.52s-2.22.47-2.18-1.47c.11-5.12 0-10.25.07-15.37.07-2.65 2.82-3.34 4-5.22z" transform="translate(-168.45 -407.17)"/><path class="cls-8" d="M381.69 788.92a3.77 3.77 0 0 1 1.81 3c.18 10.76.46 21.53.7 32.29 0 .35 0 .7-.06 1.21a3.1 3.1 0 0 1-2.08-3q-.29-16.5-.59-33a2.67 2.67 0 0 1 .22-.5zM442 426.44a2.94 2.94 0 0 1 1.66 2.54c.16 10.85.38 21.7.58 32.55 0 .35 0 .7-.07 1.31-1.05-.88-1.85-1.44-1.87-2.78-.18-10.77-.44-21.54-.66-32.31-.01-.41-.2-.9.36-1.31zM335.35 742.65c1.18 1 2 1.61 2 3 .18 10.54.45 21.08.67 31.61 0 .64-.05 1.28-.09 2.17-1.18-.79-1.91-1.4-1.93-2.72-.17-11.23-.41-22.42-.65-34.06zM323.9 731.19c1.09.91 1.92 1.53 2 3 .18 10.62.46 21.24.69 31.86 0 .55.21 1.15-.21 1.72-1.84-.7-1.88-2.28-1.91-3.83q-.27-14.61-.52-29.21c-.07-1.13-.05-2.21-.05-3.54zM490.41 508.82c-2-.86-2-2.29-2.06-3.84q-.24-14.94-.53-29.89c0-.81-.08-1.62-.14-2.65 1.21.46 2 1.06 2.05 2.3.27 11.26.45 22.57.68 34.08zM404.48 811.81c1.22 1 2.07 1.57 2.09 2.92.16 10.85.38 21.71.58 32.57 0 .35-.07.71-.11 1.2-1.07-.74-1.81-1.36-1.83-2.68-.21-11.21-.47-22.41-.73-34.01zM393.08 800.41c1.18.87 1.93 1.57 1.95 3 .17 10.56.44 21.12.65 31.68 0 .55.24 1.18-.29 1.72-1.56-.66-1.76-1.95-1.78-3.43q-.24-14.94-.53-29.89c-.01-.94 0-1.88 0-3.08zM280.31 721.82c-1.15-.88-1.93-1.44-1.94-2.7-.17-11.07-.39-22.14-.58-33.22a2.8 2.8 0 0 1 .2-.59c.9.7 1.7 1.24 1.72 2.55.2 10.85.45 21.69.68 32.54.01.35-.04.71-.08 1.42zM478.75 497.32a3.37 3.37 0 0 1-1.95-2.95q-.27-16.49-.58-33a1.6 1.6 0 0 1 .17-.47 2.79 2.79 0 0 1 1.82 2.64q.35 16.57.72 33.17a2.16 2.16 0 0 1-.18.61zM303.38 744.86c-1.72-.92-1.92-2.25-1.95-3.85-.17-10.1-.45-20.19-.69-30.29v-2.31c1.88.59 2.1 2 2.12 3.51q.27 14.49.52 29c.02 1.22 0 2.48 0 3.94zM453.12 437.69a3.48 3.48 0 0 1 2.05 3.33c.18 11.05.45 22.1.69 33.59-1.12-1.08-2-1.64-2-3.06-.19-10.62-.46-21.24-.71-31.86-.04-.57-.03-1.14-.03-2zM291.94 733.44c-1.17-.9-2-1.45-2-2.78-.2-11-.45-22-.68-33a7.26 7.26 0 0 1 .1-.86c1 .66 1.89 1.19 1.91 2.51.2 11.27.43 22.53.67 34.13zM430.09 414.6c1.22.9 2 1.5 2 2.84.19 10.77.45 21.53.68 32.3v1.56c-1.27-.81-2-1.48-2-2.88-.2-11.13-.44-22.26-.68-33.82zM346.89 754.33c1.2.8 2 1.39 2 2.7q.27 16.37.58 32.71a6.64 6.64 0 0 1-.16 1.1 3.45 3.45 0 0 1-1.78-3.38c-.16-9.79-.43-19.57-.66-29.36-.01-1.16.02-2.31.02-3.77zM361.12 802.67c-1.18-1-2-1.56-2-2.81-.22-11.22-.48-22.44-.73-33.84a2.6 2.6 0 0 1 2 2.57c.23 11.21.48 22.41.73 34.08zM370 777.34c1.17.85 1.88 1.51 1.91 2.71.23 11.26.5 22.51.76 34.12-1.2-1-2.1-1.55-2.12-3-.18-10.92-.41-21.83-.62-32.75 0-.23.07-.5.07-1.08zM418.46 859.91c-2-.91-1.67-2.55-1.71-4.11-.22-10.24-.48-20.48-.72-30.72v-1.6c1.14.74 2 1.28 2 2.6q.29 16.7.61 33.4c.02.12-.09.24-.18.43zM312.93 720.16a2.84 2.84 0 0 1 1.44 2.38v33.51a2.76 2.76 0 0 1-1.42-2.64c-.02-11.12-.02-22.24-.02-33.25zM465.31 449.58c1.39.64 1.41 2.22 1.44 3.77.11 5.87.22 11.73.28 17.6v14.68a2.76 2.76 0 0 1-1.72-2.52c.01-11.21 0-22.41 0-33.53zM483.45 801.72c-.54-2.43-.28-4.81-.35-7.15-.24-8.16-.3-16.33-.51-24.5a3.37 3.37 0 0 1 2.17-3.56c0 4.33-.05 8.38 0 12.42q.15 9.69.46 19.37a3.31 3.31 0 0 1-1.77 3.42zM438.66 846.27v-19.82q0-6.12-.3-12.24A3.2 3.2 0 0 1 440 811c.75 2.31.37 4.68.44 7 .27 8.23.31 16.48.53 24.71.03 1.35-.31 2.37-2.31 3.56zM420.44 407.72c.42 4.21.34 8.34.42 12.47.12 6.46.26 12.91.46 19.36a3 3 0 0 1-1.77 3.18c-.56-2.3-.28-4.61-.35-6.88-.25-8.3-.3-16.61-.53-24.92a3.23 3.23 0 0 1 1.77-3.21zM375.3 487c-.41-4.05-.32-8-.4-12-.12-6.6-.26-13.2-.46-19.79a3 3 0 0 1 1.69-3.16c.7 2.33.35 4.72.43 7.06.26 8.23.31 16.47.52 24.7a3.15 3.15 0 0 1-1.78 3.19zM451.75 799.61v18.64q0 6.68.27 13.35a3 3 0 0 1-1.73 3.21c-.53-2.21-.26-4.4-.31-6.57-.19-8.38-.32-16.76-.53-25.14-.03-1.38.26-2.47 2.3-3.49zM342 520.24c-.21-11.09-.4-21.79-.65-32.48 0-1.34.71-2 2.22-3v13.08c.08 6.39.15 12.79.37 19.18.06 1.45-.48 2.3-1.94 3.22zM471.83 813v-18.1c0-4.68-.12-9.36-.28-14-.05-1.43.38-2.38 2.15-3.2 0 4.33-.05 8.37 0 12.42q.14 9.79.42 19.59c.04 1.39-.41 2.36-2.29 3.29zM332.43 496c0 4.12-.05 7.94 0 11.77.09 6.69.19 13.38.41 20.06.06 1.53-.34 2.55-2.19 3.6 0-4.62.06-8.9 0-13.19q-.15-9.47-.45-18.93c-.04-1.43.41-2.41 2.23-3.31zM297.76 564.4c-.23-10.81-.43-21.26-.7-31.72 0-1.49.32-2.6 2.23-3.64 0 4.11-.05 7.93 0 11.74q.17 10.35.45 20.7c.05 1.41-.64 2.13-1.98 2.92zM429.49 821.82v12.21c.09 6.6.19 13.21.39 19.8 0 1.44-.36 2.41-2.31 3.38v-19.83c0-4.15-.13-8.31-.26-12.46-.05-1.35.46-2.23 2.18-3.1zM496.08 755.34v26c0 2 .05 4 .18 6a2.94 2.94 0 0 1-1.56 3.15c-.7-.24-.45-.85-.46-1.3-.19-10.17-.33-20.34-.56-30.51-.03-1.47.49-2.34 2.4-3.34zM409.77 418.65v12.52q.15 9.69.43 19.37a3.11 3.11 0 0 1-1.77 3.3c-.12-2.47-.27-4.84-.32-7.2-.17-8.32-.28-16.63-.49-24.95-.03-1.39.53-2.16 2.15-3.04zM308.45 553.06v-14.8q-.07-8.34-.29-16.69a3.3 3.3 0 0 1 2.19-3.53v12.83c.1 6.52.23 13 .44 19.58a3.08 3.08 0 0 1-1.6 2.74zM321.11 507.23c.23 11 .43 21.72.69 32.47 0 1.27-.79 1.8-2.17 3v-9.47c-.13-7.57-.27-15.14-.46-22.7a3 3 0 0 1 1.94-3.3zM387.93 440.58v25.14c0 2.37.06 4.75.18 7.12a2.78 2.78 0 0 1-1.58 2.94c-.6-.58-.42-1.37-.43-2-.2-9.87-.35-19.73-.56-29.6-.02-1.43.26-2.51 2.39-3.6zM363.59 498.34v-25.88c0-2.15-.06-4.3-.18-6.45-.07-1.32.38-2.27 2.05-3v6.1c.16 8.61.3 17.21.53 25.81.01 1.4-.36 2.39-2.4 3.42zM399 429.66v25.14c0 2.45 0 4.9.1 7.35.05 1.27-.43 2.08-2.18 2.76v-13.09q-.09-9.46-.3-18.93c-.02-1.33.28-2.29 2.38-3.23zM353.05 509.08c-.19-8.63-.37-17-.54-25.36-.05-2.31 0-4.61-.11-6.91 0-1.28.43-2.08 2.18-2.8v13.09c.06 6.32.13 12.63.32 18.94a2.88 2.88 0 0 1-1.85 3.04zM460.65 824.08v-25c0-2.45 0-4.9-.11-7.36-.05-1.33.38-2.25 2.19-3.08v13.35q.09 9.36.29 18.73c.05 1.36-.29 2.34-2.37 3.36zM501.85 514a3.87 3.87 0 0 1-1.88 1.78c-.26-10.58-.51-21.17-.77-31.94a3.42 3.42 0 0 1 2.12 3.42c.12 8.9.34 17.81.53 26.74zM288.28 540.06v17.42c0 3.27.19 6.53.26 9.8 0 .73.38 1.74-1 1.71-1.23 0-.95-.9-1-1.59-.2-8-.36-16-.6-24.08-.02-1.4.61-2.21 2.34-3.26zM268.57 710.1a3.16 3.16 0 0 1-1.72-3c-.1-7.49-.31-15-.49-22.48 0-.68-.18-1.34.89-1.38s1.11.5 1.13 1.24c.06 3.63.16 7.27.18 10.91.03 4.84.01 9.73.01 14.71z" transform="translate(-168.45 -407.17)"/><path class="cls-7" d="M293.09 687.36c-5.69-3.21-4.56-8.3-4.42-13 .06-1.81 1.76-.66 2.69-.86.65-.15 1.74-.44 1.73 1-.01 4.17 0 8.37 0 12.86z" transform="translate(-168.45 -407.17)"/><path class="cls-8" d="M505 756.92a6.91 6.91 0 0 1 2.1 2.07c.07 5.87.09 11.74.23 17.6a3.16 3.16 0 0 1-1.9 3.1c-.18-7.75-.32-15.26-.43-22.77z" transform="translate(-168.45 -407.17)"/><path class="cls-7" d="M304.26 571.48v9.54c0 2.11-1.52 1.14-2.39 1.21s-2.23.67-2.13-1.23a43 43 0 0 0 0-4.68c-.06-1.37 1.09-1.84 1.77-2.67s1.44-1.68 2.16-2.51z" transform="translate(-168.45 -407.17)"/><path class="cls-8" d="M277.27 551.66v16c0 .71 0 1.34-1 1.35s-1-.51-1.05-1.27c-.08-4.53-.17-9.06-.33-13.58a3 3 0 0 1 1.6-2.63zM257 698.6a3 3 0 0 1-1.63-2.75c0-3.85-.18-7.7-.3-11.54 0-.67 0-1.12.92-1.12s1 .36 1 1.07c.01 4.74.01 9.54.01 14.34z" transform="translate(-168.45 -407.17)"/><path class="cls-7" d="M489.28 741.26a28.63 28.63 0 0 1 4.47 4.47c-.42 2.55-2.93 3.3-4.47 5z" transform="translate(-168.45 -407.17)"/><path class="cls-8" d="M513 502.87a3.79 3.79 0 0 1-2 1.8v-9.14a2.88 2.88 0 0 1 1.84 3.12c-.1 1.4.07 2.81.16 4.22z" transform="translate(-168.45 -407.17)"/><path class="cls-7" d="M493.32 522.49a24.51 24.51 0 0 1-4.05 4v-7.69c1.73.99 2.73 2.54 4.05 3.69z" transform="translate(-168.45 -407.17)"/><path class="cls-8" d="M265.92 562.36V568c0 .45 0 .92-.65.94-.42 0-.88.14-1.18-.34-.81-1.3.13-4.98 1.83-6.24zM245.73 687.18c-1.33-.75-2-1.6-1.91-2.93 0-.54 0-1 .77-1s1.18 0 1.15.88-.01 1.87-.01 3.05z" transform="translate(-168.45 -407.17)"/><path class="cls-7" d="M279.2 673.54c2.84-.1 2.84-.1 2.52 2.38z" transform="translate(-168.45 -407.17)"/><path class="cls-9" d="M565.3 499a164.09 164.09 0 0 1 29.89-6.41 179.87 179.87 0 0 1 24.57-.26 142.39 142.39 0 0 1 76.72 29.76c.93.72 1.89 1.41 2.84 2.12a151.28 151.28 0 0 1 23.25 24.6c15.67 21.33 25.06 45.13 27.28 71.53 3.44 41.07-8.9 77-36.1 107.83a173.35 173.35 0 0 1-13.09 12.77 157.36 157.36 0 0 1-25.09 16.84 141.43 141.43 0 0 1-52.27 15.78c-.89.09-1.76.27-2.64.41a174.77 174.77 0 0 1-25-.28 154.59 154.59 0 0 1-29.94-6.25 141.3 141.3 0 0 1-42.06-22.1c-29.49-22.92-47.93-52.76-53.56-89.67-7.5-49.15 7.34-91.22 43-125.77 14.46-14 31.64-23.87 50.74-30.32.51-.2.98-.42 1.46-.58zm169.89 151.65a113.81 113.81 0 0 0 .56-30.9c-.36-2.72-.63-5.46-1.11-8.17-4.59-26-15.75-48.84-34.53-67.4-31.57-31.18-69.62-43.67-113.47-36-34.6 6.05-62.12 24.07-82.09 53-17.31 25.09-24.47 53.08-21.89 83.47a81.42 81.42 0 0 0 2.61 15.81c-.12 2.12.79 4 1.34 6a118.29 118.29 0 0 0 13.32 31.24c4.15 7.91 9.77 14.74 15.68 21.37.54.6 1.06 1.23 1.63 1.81a113.27 113.27 0 0 0 20.25 17 115 115 0 0 0 29 14.88 123.57 123.57 0 0 0 45.72 7.43 126.49 126.49 0 0 0 64.34-19.22 87.24 87.24 0 0 0 14.72-10.79 112.23 112.23 0 0 0 21.79-23.69c1.37-2 2.78-4 4.11-6.06 4.07-6.23 7-13 10-19.8a111.44 111.44 0 0 0 8.02-29.98z" transform="translate(-168.45 -407.17)"/><path class="cls-10" d="M485.27 660.45a81.42 81.42 0 0 1-2.61-15.81c-2.58-30.39 4.58-58.38 21.89-83.47 20-28.93 47.49-46.95 82.09-53 43.85-7.66 81.9 4.83 113.47 36 18.78 18.56 29.94 41.4 34.53 67.4.48 2.71.75 5.45 1.11 8.17-4.16 0-8.14 1.31-12.23 1.84-.17-1.4-.3-2.81-.53-4.21-1.23-7.22-3.93-13.63-11.36-16.37a25.17 25.17 0 0 0-24 2.9c-2.66 1.82-4.58 4.36-6.66 7.16-3.78-8.51-10.49-12-19.21-11.71s-15.25 4.25-20.44 11.71c0-3.19-.07-5.77 0-8.34.05-1.33-.28-1.82-1.71-1.8-5.44.08-10.88.09-16.31 0-1.52 0-1.84.5-1.83 1.91q.07 15.18 0 30.37c0 6.1-.06 12.2-.1 18.31-3.42 0-6.65 1.44-10.08 1.33v-6l-2.56 1.42a24.1 24.1 0 0 1-15.27 3.07c-9.24-1.37-14-6.64-14.66-16.69-.62-9.86 4-17.69 13.93-19.58a22.44 22.44 0 0 1 16.52 3c.57.35 1 1.12 2 .77 0-4.78-.11-9.54 0-14.3a2.83 2.83 0 0 0-2.27-3.2 43.21 43.21 0 0 0-17.62-1.88c-21 1.61-32.8 14.51-32.86 35.53 0 4.14 1 8.08 1.83 12.06a57.28 57.28 0 0 1-10.81 1.79c0-.89-.1-1.78-.11-2.67-.11-7.88.22-15.76-.26-23.64-.67-11.22-6.52-19.18-16.54-21.82-11.79-3.09-23.13-.73-34.22 3.53-.52.2-1.09.42-1.09 1.22v14.36c1-.59 1.62-1 2.25-1.34a37.72 37.72 0 0 1 21.29-5.43c4.92.26 8.06 2.51 9.26 6.63 1 3.4.72 3.67-2.76 4.16-6.84 1-13.77 1.36-20.48 3.13-16.46 4.36-17.78 18.71-14.45 28.63.4 1.19 1.37 2.14 1.44 3.47z" transform="translate(-168.45 -407.17)"/><path class="cls-11" d="M549.53 648.84a57.28 57.28 0 0 0 10.81-1.79c.42.78.86 1.55 1.25 2.35a29.89 29.89 0 0 0 17.55 15.65c6.38 2.19 13.15 2.13 19.85 1.41a34 34 0 0 0 10.74-2.76 2.21 2.21 0 0 0 1.51-2.37c-.07-2.82 0-5.65.06-8.48 3.43.11 6.66-1.36 10.08-1.33 0 4 .12 8 .07 12.05 0 1.37.42 1.77 1.78 1.75 5.21-.07 10.43-.12 15.63 0 2 0 2.5-.44 2.48-2.44-.09-8.7 0-17.41 0-26.12a13.28 13.28 0 0 0 2-.08q9.55-1.73 19.1-3.49c0 .81.1 1.63.1 2.45 0 9.15.06 18.3 0 27.46 0 1.78.5 2.25 2.24 2.21a344.2 344.2 0 0 1 15.41 0c1.76 0 2.25-.45 2.23-2.22-.06-8 0-16.06.06-24.1.52-.06 1-.1 1.54-.19l19.57-3.38c0 3.42.07 6.84.1 10.26q.09 9.81.16 19.63c-1.17.17-2.34.33-3.5.53-14.23 2.52-28.46 5-42.67 7.59-4.64.84-9.34 1.37-13.89 2.67-.78-.14-1.56-.32-2.35-.4-1.55-.14-2.78.19-2.65 2.15-3-.15-5.92.78-8.86 1.29-1 .17-2.36-.36-2.59 1.32-3.46-1.12-6.26.21-8.78 2.61-.34-1.11.32-2.57-1.36-2.56-1.21 0-2.81-.67-3.19 1.36a29.8 29.8 0 0 0-7.49 1.43 6.25 6.25 0 0 0-4-2.88 14.25 14.25 0 0 0-7.69.4c-2.94 1-3.25 1.5-2.72 4.56a40.27 40.27 0 0 1-7 1.41c-.78-5.29-4-7.72-8.45-6.43a21.83 21.83 0 0 0-3.68 2c0-2.94-.12-5.59 0-8.23.12-2-.87-2.21-2.41-2.17s-2.72-.05-2.66 2.16c.12 5.41 0 10.83 0 16.24a9.32 9.32 0 0 0-3.48.48c-4.54.88-9.19 1.16-13.59 2.7-2-2.24-2.17-5-1.94-7.75.63-7.44 5.09-9.77 11.64-6.22.2.1.37.25.57.34.54.24.81 0 1-.51a3.89 3.89 0 0 0-1.64-4.76c-5.71-2.69-12.92-1.08-15.77 5a19.94 19.94 0 0 0-1.49 9.79l-12 2.06c-8.13 1.4-16.28 2.72-24.37 4.28-2.32.45-4.9.16-6.9 1.85a118.29 118.29 0 0 1-13.32-31.24c-.55-2-1.46-3.85-1.34-6l8.6-1.38a17.48 17.48 0 0 0 10.46 7c8.65 1.83 16.6.92 23-5.92 1-1.09 1.9-2.32 3.11-3.81 0 2.61.1 4.77 0 6.91-.1 1.61.31 2.2 2.06 2.16 5-.12 10-.1 15 0 1.57 0 2-.42 2-2-.12-4.83-.01-9.67.02-14.5z" transform="translate(-168.45 -407.17)"/><path d="M727.18 680.6c-2.93 6.8-5.91 13.57-10 19.8-1.33 2-2.74 4-4.11 6.06-2.33-.2-4.55.49-6.8.88-10 1.74-19.92 3.45-29.88 5.2-8.65 1.52-17.29 3.1-25.94 4.63-9.09 1.6-18.18 3.16-27.26 4.76-8.65 1.52-17.29 3.1-25.94 4.62q-16 2.84-32.06 5.61c-7.27 1.27-14.56 2.44-21.8 3.87-2 .39-4.38-.16-5.92 1.82a113.27 113.27 0 0 1-20.25-17c-.57-.58-1.09-1.21-1.63-1.81.73-1.36 2.17-1.15 3.33-1.36 8.13-1.48 16.28-2.85 24.42-4.29 8.72-1.54 17.44-3.14 26.16-4.67q14.82-2.61 29.67-5.14c4.94-.85 9.84-2 14.84-2.47 0 1.33.17 2.67.1 4-.12 2.18 1.42 1.84 2.71 1.88s2.54 0 2.44-2c-.13-2.24 0-4.5 0-6.93 5 3.21 8.34 2.71 11.58-1.5 2.76.29 5.41-.45 8.09-.86.58 3.73 5.81 6 8.84 3.87 1.15-.82 1-2.1.72-3.27-.31-1.43-1.3-.41-2-.44-.9 0-1.83.11-2.16-1 2.83-.53 5.58-1.48 8.51-1.34 2.45 6.22 9.14 8.71 15.32 5.75 1.55-.74 1.37-2.08 1.11-3.24-.32-1.43-1.36-.54-2.12-.33a13.63 13.63 0 0 1-5.71.58 3.86 3.86 0 0 1-3.36-3.08c-.38-1.35-.09-1.91 1.41-1.86 2.82.07 5.64 0 8.45 0 1.12 0 2.11-.08 2.38-1.42l6.12-.9c0 3 0 6 .07 8.92 0 .73-.13 1.47.88 1.79 2.64.86 4-.11 4.13-2.78.13-3.09-.49-6.21.35-9.27a17.4 17.4 0 0 0 2.89-.06c9.55-1.69 19.08-3.55 28.66-5.12 4.58-.74 9.06-2.12 13.76-1.9z" transform="translate(-168.45 -407.17)" fill="#028bcd"/><path d="M537.49 737.85c1.54-2 3.93-1.43 5.92-1.82 7.24-1.43 14.53-2.6 21.8-3.87q16-2.79 32.06-5.61c8.65-1.52 17.29-3.1 25.94-4.62 9.08-1.6 18.17-3.16 27.26-4.76 8.65-1.53 17.29-3.11 25.94-4.63 10-1.75 19.92-3.46 29.88-5.2 2.25-.39 4.47-1.08 6.8-.88a112.23 112.23 0 0 1-21.79 23.69 26.8 26.8 0 0 0-4 .09c-8.44 1.42-16.87 2.92-25.31 4.41l-50.6 9c-13.52 2.38-27.06 4.7-40.56 7.21-1.45.27-3.62-.35-4.3 1.92a115 115 0 0 1-29.04-14.93z" transform="translate(-168.45 -407.17)" fill="#1182c5"/><path class="cls-14" d="M614 701.1c-5 .49-9.9 1.62-14.84 2.47q-14.85 2.55-29.67 5.14c-8.72 1.53-17.44 3.13-26.16 4.67-8.14 1.44-16.29 2.81-24.42 4.29-1.16.21-2.6 0-3.33 1.36-5.91-6.63-11.53-13.46-15.68-21.37 2-1.69 4.58-1.4 6.9-1.85 8.09-1.56 16.24-2.88 24.37-4.28l12-2.06a17.5 17.5 0 0 0 1.46 5.11c2.85 5.59 11.69 7.62 16.61 3.8.74-.57 1.34-3.9.71-4.48-1.09-1-1.71.37-2.42.73-3.73 1.85-6.32 1.59-8.75-1.07 4.4-1.54 9.05-1.82 13.59-2.7a9.32 9.32 0 0 1 3.48-.48c0 2.52.16 5 0 7.56-.1 2.28 1.43 1.75 2.68 1.83s2.47.06 2.38-1.9c-.14-3-.05-6.08 0-9.12a4.43 4.43 0 0 1 4-4.24c2-.06 3 1.32 3.07 4 0 3.11.11 6.23 0 9.34-.08 1.79.7 2.43 2.3 2.3 1.39-.1 2.79-.17 2.75-2.26-.08-3.7 0-7.41 0-11.12a40.27 40.27 0 0 0 7-1.41c.88.5 1.53-.27 2.29-.39 2-.32 3.93-1.68 6.15-.73 1.62.69 1.47 2 1.36 3.32s-1.27.93-2.08 1-1.94 0-2.9 0c-2.71.23-5.09 1.18-6.09 3.91-.88 2.43.6 5.76 3.3 7.09a7.32 7.32 0 0 0 7.35-.65c.69-.43 1.11-1 1.75.28.56 1.15 2 .52 3.06.47.7 0 .93-.68.9-1.32-.17-5 .53-10.1-.63-15.09a29.8 29.8 0 0 1 7.49-1.43c.24 6.47.26 12.88.02 19.28z" transform="translate(-168.45 -407.17)"/><path class="cls-2" d="M566.52 752.73c.68-2.27 2.85-1.65 4.3-1.92 13.5-2.51 27-4.83 40.56-7.21l50.6-9c8.44-1.49 16.87-3 25.31-4.41a26.8 26.8 0 0 1 4-.09 87.24 87.24 0 0 1-14.72 10.79 126.49 126.49 0 0 1-64.34 19.22 123.57 123.57 0 0 1-45.71-7.38z" transform="translate(-168.45 -407.17)"/><path class="cls-14" d="M676.45 689l-6.12.9c0-.67 0-1.34-.07-2-.25-4.32-2.6-7.07-6.59-7.73-4.73-.79-8.51 1.12-10.14 5-1.13 2.71-.65 5.51-.68 8.29-2.93-.14-5.68.81-8.51 1.34-.93-2.29-.33-4.69-.41-7-.11-3.05 0-3.17 3-3.2 1.75 0 1.39-1.09 1.42-2.08s.17-2.29-1.49-2c-2.69.51-3.37-.74-3-3.12a6.65 6.65 0 0 0-.08-1.33c4.55-1.3 9.25-1.83 13.89-2.67 14.21-2.59 28.44-5.07 42.67-7.59 1.16-.2 2.33-.36 3.5-.53 5.77 0 11.55-.1 17.32 0 1.79 0 2.45-.36 2.38-2.28-.14-3.69 0-7.4 0-11.09 1.1-.05 2.19-.15 3.28-.29 2.76-.35 5.46-1.29 8.29-1a111.44 111.44 0 0 1-8 30c-4.7-.22-9.19 1.16-13.75 1.92-9.58 1.57-19.11 3.43-28.66 5.12a17.4 17.4 0 0 1-2.89.06c1-2 2.39-3.4 4.91-2.61.63.2 1.08-.07 1.14-.68.14-1.3.67-2.83-.44-3.79a3.19 3.19 0 0 0-3.78 0 31 31 0 0 0-2.93 2.35c.45-2.82-1.27-2.46-2.77-2.46-2 0-1.44 1.47-1.48 2.55.01 1.92.01 3.92-.01 5.92z" transform="translate(-168.45 -407.17)"/><path class="cls-11" d="M735.19 650.65c-2.83-.26-5.53.68-8.29 1-1.09.14-2.18.24-3.28.29q0-15.19-.1-30.38c4.09-.53 8.07-1.81 12.23-1.84a113.81 113.81 0 0 1-.56 30.93z" transform="translate(-168.45 -407.17)"/><path d="M723.52 621.59q0 15.18.1 30.38c0 3.69-.19 7.4 0 11.09.07 1.92-.59 2.31-2.38 2.28-5.77-.11-11.55 0-17.32 0q-.07-9.83-.16-19.63c0-3.42-.07-6.84-.1-10.26.13-4.61.52-9.24-.79-13.74-1.08-3.71-3.34-6.24-7.37-6.86-5.75-.89-10.39 2.32-12.17 8.64-1.43 5.1-.83 10.34-.78 15.53 0 8-.12 16.07-.06 24.1 0 1.77-.47 2.26-2.23 2.22a344.2 344.2 0 0 0-15.41 0c-1.74 0-2.26-.43-2.24-2.21.09-9.16 0-18.31 0-27.46 0-.82-.06-1.64-.1-2.45a41.48 41.48 0 0 0-.33-9.77c-.79-5-3.55-8-7.72-8.61-6-.91-10.7 2.36-12.31 8.66-1.12 4.37-.92 8.84-.74 13.29 0 8.71-.14 17.42 0 26.12 0 2-.52 2.49-2.48 2.44-5.2-.14-10.42-.09-15.63 0-1.36 0-1.79-.38-1.78-1.75 0-4 0-8-.07-12.05 0-6.11.09-12.21.1-18.31v-30.37c0-1.41.31-1.94 1.83-1.91 5.43.09 10.87.08 16.31 0 1.43 0 1.76.47 1.71 1.8-.09 2.57 0 5.15 0 8.34 5.19-7.46 11.86-11.47 20.44-11.71s15.43 3.2 19.21 11.71c2.08-2.8 4-5.34 6.66-7.16a25.17 25.17 0 0 1 24-2.9c7.43 2.74 10.13 9.15 11.36 16.37.15 1.37.28 2.78.45 4.18z" transform="translate(-168.45 -407.17)" fill="#fefefe"/><path class="cls-9" d="M549.53 648.84c0 4.83-.14 9.67-.08 14.5 0 1.57-.44 2-2 2-5-.09-10-.11-15 0-1.75 0-2.16-.55-2.06-2.16.13-2.14 0-4.3 0-6.91-1.21 1.49-2.09 2.72-3.11 3.81-6.4 6.84-14.35 7.75-23 5.92a17.48 17.48 0 0 1-10.47-6.93c-.07-1.33-1-2.28-1.44-3.47-3.33-9.92-2-24.27 14.45-28.63 6.71-1.77 13.64-2.16 20.48-3.13 3.48-.49 3.74-.76 2.76-4.16-1.2-4.12-4.34-6.37-9.26-6.63a37.72 37.72 0 0 0-21.29 5.43c-.63.36-1.26.75-2.25 1.34v-14.36c0-.8.57-1 1.09-1.22 11.09-4.26 22.43-6.62 34.22-3.53 10 2.64 15.87 10.6 16.54 21.82.48 7.88.15 15.76.26 23.64.06.89.12 1.83.16 2.67zm-19-10.3a19 19 0 0 1 0-2c.14-1.31-.38-1.7-1.66-1.51-3.53.51-7.08.89-10.6 1.43a13.55 13.55 0 0 0-5.44 1.89 7.48 7.48 0 0 0-3.4 7.9 7.06 7.06 0 0 0 5.33 6 12.12 12.12 0 0 0 13.37-4.79 14.75 14.75 0 0 0 2.44-8.92zM611.3 652.85c0 2.83-.13 5.66-.06 8.48a2.21 2.21 0 0 1-1.51 2.37 34 34 0 0 1-10.73 2.76c-6.7.72-13.47.78-19.85-1.41a29.89 29.89 0 0 1-17.55-15.65c-.39-.8-.83-1.57-1.25-2.35-.85-4-1.84-7.92-1.83-12.06.06-21 11.89-33.92 32.86-35.53a43.21 43.21 0 0 1 17.62 1.88 2.83 2.83 0 0 1 2.27 3.2c-.16 4.76 0 9.52 0 14.3-.93.35-1.38-.42-2-.77a22.44 22.44 0 0 0-16.52-3c-10 1.89-14.55 9.72-13.93 19.58.64 10.05 5.42 15.32 14.66 16.69a24.1 24.1 0 0 0 15.27-3.07l2.56-1.42z" transform="translate(-168.45 -407.17)"/><path class="cls-10" d="M682.5 639c0-5.19-.65-10.43.78-15.53 1.78-6.32 6.42-9.53 12.17-8.64 4 .62 6.29 3.15 7.37 6.86 1.31 4.5.92 9.13.79 13.74L684 638.82c-.47.09-1 .18-1.5.18zM641.39 636.78c-.18-4.45-.38-8.92.74-13.29 1.61-6.3 6.32-9.57 12.31-8.66 4.17.63 6.93 3.66 7.72 8.61a41.48 41.48 0 0 1 .33 9.77q-9.49 1.79-19.1 3.49a13.28 13.28 0 0 1-2 .08z" transform="translate(-168.45 -407.17)"/><path class="cls-9" d="M614 701.1c.21-6.4.19-12.81 0-19.21.38-2 2-1.34 3.19-1.36 1.68 0 1 1.45 1.36 2.56 2.52-2.4 5.32-3.73 8.78-2.61a8.45 8.45 0 0 1 4.6 6.58 18 18 0 0 1-1.13 9.54c-3.24 4.21-6.55 4.71-11.58 1.5 0 2.43-.1 4.69 0 6.93.1 2-1.1 2-2.44 2s-2.83.3-2.71-1.88c.13-1.38 0-2.72-.07-4.05zm5.22-11.34v2.37a4.56 4.56 0 0 0 3.54 3.74c1.87.26 3-.78 3.55-2.37a9.23 9.23 0 0 0-.08-7c-.85-2.08-2.83-2.64-4.78-1.51a4.13 4.13 0 0 0-2.2 4.77zM585 686.81c0 3.71-.11 7.42 0 11.12 0 2.09-1.36 2.16-2.75 2.26-1.6.13-2.38-.51-2.3-2.3.13-3.11.06-6.23 0-9.34 0-2.72-1.12-4.1-3.07-4a4.43 4.43 0 0 0-4 4.24c0 3-.11 6.09 0 9.12.09 2-1 2-2.38 1.9s-2.78.45-2.68-1.83c.12-2.51 0-5 0-7.56 0-5.41.15-10.83 0-16.24-.06-2.21 1.18-2.12 2.66-2.16s2.53.21 2.41 2.17c-.16 2.64 0 5.29 0 8.23a21.83 21.83 0 0 1 3.68-2c4.43-1.33 7.69 1.1 8.43 6.39zM550.78 693.56c2.43 2.66 5 2.92 8.75 1.07.71-.36 1.33-1.72 2.42-.73.63.58 0 3.91-.71 4.48-4.92 3.82-13.76 1.79-16.61-3.8a17.5 17.5 0 0 1-1.46-5.11 19.94 19.94 0 0 1 1.49-9.79c2.85-6.1 10.06-7.71 15.77-5a3.89 3.89 0 0 1 1.64 4.76c-.21.46-.48.75-1 .51-.2-.09-.37-.24-.57-.34-6.55-3.55-11-1.22-11.64 6.22-.25 2.71-.07 5.49 1.92 7.73zM606.54 683.32c1.16 5 .46 10.06.63 15.09 0 .64-.2 1.29-.9 1.32-1 0-2.5.68-3.06-.47-.64-1.31-1.06-.71-1.75-.28a7.32 7.32 0 0 1-7.35.65c-2.7-1.33-4.18-4.66-3.3-7.09 1-2.73 3.38-3.68 6.09-3.91 1-.09 1.94 0 2.9 0s2 .39 2.08-1 .26-2.63-1.36-3.32c-2.22-.95-4.11.41-6.15.73-.76.12-1.41.89-2.29.39-.53-3.06-.22-3.59 2.72-4.56a14.25 14.25 0 0 1 7.69-.4 6.25 6.25 0 0 1 4.05 2.85zm-6 8.13c-3.25 0-5 1.07-4.83 2.9a2.4 2.4 0 0 0 2.73 2.29 3.85 3.85 0 0 0 3.86-3.41c.12-1.54-.53-2-1.75-1.78zM643.81 676.12a6.65 6.65 0 0 1 .08 1.33c-.38 2.38.3 3.63 3 3.12 1.66-.32 1.52.92 1.49 2s.33 2.06-1.42 2.08c-3.05 0-3.13.15-3 3.2.08 2.34-.52 4.74.41 7 .33 1.16 1.26 1 2.16 1 .68 0 1.67-1 2 .44.24 1.17.43 2.45-.72 3.27-3 2.17-8.26-.14-8.84-3.87v-9.08c0-1.19.08-2.17-1.66-2.06s-1.32-1.31-1.3-2.26c0-.66-.51-1.91.9-1.74 2.45.28 2.18-1.2 1.95-2.73-.13-2 1.1-2.29 2.65-2.15.74.13 1.49.33 2.3.45z" transform="translate(-168.45 -407.17)"/><path class="cls-14" d="M638.81 677.87c.23 1.53.5 3-1.95 2.73-1.41-.17-.89 1.08-.9 1.74 0 .95-.3 2.36 1.3 2.26s1.67.87 1.66 2.06v9.08c-2.68.41-5.33 1.15-8.09.86a18 18 0 0 0 1.13-9.54 8.45 8.45 0 0 0-4.6-6.58c.23-1.68 1.6-1.15 2.59-1.32 2.94-.51 5.82-1.44 8.86-1.29z" transform="translate(-168.45 -407.17)"/><path class="cls-9" d="M652.85 693.51c0-2.78-.45-5.58.68-8.29 1.63-3.89 5.41-5.8 10.14-5 4 .66 6.34 3.41 6.59 7.73 0 .66 0 1.33.07 2-.27 1.34-1.26 1.43-2.38 1.42h-8.45c-1.5-.05-1.79.51-1.41 1.86a3.86 3.86 0 0 0 3.36 3.08 13.63 13.63 0 0 0 5.71-.58c.76-.21 1.8-1.1 2.12.33.26 1.16.44 2.5-1.11 3.24-6.17 2.92-12.87.43-15.32-5.79zm8.58-5.36a6.45 6.45 0 0 0 1.32 0c.86-.18 2.22.65 2.49-.54a3.08 3.08 0 0 0-1.76-3.51 3.64 3.64 0 0 0-4.47.77 3.16 3.16 0 0 0-1 2.82c.27 1 1.52.31 2.32.47a6.85 6.85 0 0 0 1.1-.01zM676.45 689c0-2 0-4 .08-6 0-1.08-.5-2.55 1.48-2.55 1.5 0 3.22-.36 2.77 2.46a31 31 0 0 1 2.93-2.35 3.19 3.19 0 0 1 3.78 0c1.11 1 .58 2.49.44 3.79-.06.61-.51.88-1.14.68-2.52-.79-3.89.57-4.91 2.61-.84 3.06-.22 6.18-.35 9.27-.11 2.67-1.49 3.64-4.13 2.78-1-.32-.87-1.06-.88-1.79-.02-2.9-.05-5.9-.07-8.9z" transform="translate(-168.45 -407.17)"/><path class="cls-10" d="M530.57 638.54a14.75 14.75 0 0 1-2.39 8.89 12.12 12.12 0 0 1-13.37 4.79 7.06 7.06 0 0 1-5.33-6 7.48 7.48 0 0 1 3.4-7.9 13.55 13.55 0 0 1 5.44-1.89c3.52-.54 7.07-.92 10.6-1.43 1.28-.19 1.8.2 1.66 1.51a19 19 0 0 0-.01 2.03z" transform="translate(-168.45 -407.17)"/><path class="cls-14" d="M619.25 689.76a4.13 4.13 0 0 1 2.23-4.72c1.95-1.13 3.93-.57 4.78 1.51a9.23 9.23 0 0 1 .08 7c-.6 1.59-1.68 2.63-3.55 2.37a4.56 4.56 0 0 1-3.54-3.74c-.03-.71 0-1.38 0-2.42z" transform="translate(-168.45 -407.17)"/><path d="M600.55 691.45c1.22-.22 1.87.24 1.76 1.78a3.85 3.85 0 0 1-3.86 3.41 2.4 2.4 0 0 1-2.73-2.29c-.17-1.83 1.58-2.88 4.83-2.9z" transform="translate(-168.45 -407.17)" fill="#0e99d7"/><path class="cls-14" d="M661.43 688.15a6.85 6.85 0 0 1-1.11 0c-.8-.16-2.05.51-2.32-.47a3.16 3.16 0 0 1 1-2.82 3.64 3.64 0 0 1 4.47-.77 3.08 3.08 0 0 1 1.76 3.51c-.27 1.19-1.63.36-2.49.54a6.45 6.45 0 0 1-1.31.01z" transform="translate(-168.45 -407.17)"/></svg>